M48
;GenerationSoftware,Autodesk,EAGLE,9.6.2*%
;CreationDate,2021-02-28T18:36:12Z*%
FMAT,2
ICI,OFF
METRIC,TZ,000.000
T2C0.800
T1C1.000
%
G90
M71
T1
X1587Y12700
X1587Y15240
X1587Y17780
X1587Y20320
X1587Y22860
X1587Y25400
X1587Y27940
X24447Y12700
X24447Y15240
X24447Y17780
X24447Y20320
X24447Y22860
X24447Y25400
X24447Y27940
X1587Y10160
X24447Y10160
T2
X16192Y21130
X16192Y23130
X16192Y25130
X16192Y27130
X10478Y27130
X10478Y25130
X10478Y23130
X10478Y21130
X16192Y10335
X16192Y12335
X16192Y14335
X16192Y16335
X10478Y16335
X10478Y14335
X10478Y12335
X10478Y10335
M30