G04 EAGLE Gerber RS-274X export*
G75*
%MOMM*%
%FSLAX34Y34*%
%LPD*%
%INBottom layer*%
%IPPOS*%
%AMOC8*
5,1,8,0,0,1.08239X$1,22.5*%
G01*
%ADD10C,0.000000*%
%ADD11R,1.308000X1.308000*%
%ADD12C,1.308000*%
%ADD13C,1.508000*%
%ADD14C,1.016000*%
%ADD15C,0.406400*%


D10*
X0Y298450D02*
X0Y82550D01*
X2Y82439D01*
X8Y82329D01*
X17Y82218D01*
X31Y82108D01*
X48Y81999D01*
X69Y81890D01*
X94Y81782D01*
X123Y81675D01*
X155Y81569D01*
X191Y81464D01*
X231Y81361D01*
X274Y81259D01*
X321Y81158D01*
X372Y81059D01*
X425Y80963D01*
X482Y80868D01*
X543Y80775D01*
X606Y80684D01*
X673Y80595D01*
X743Y80509D01*
X816Y80426D01*
X891Y80344D01*
X969Y80266D01*
X1051Y80191D01*
X1134Y80118D01*
X1220Y80048D01*
X1309Y79981D01*
X1400Y79918D01*
X1493Y79857D01*
X1587Y79800D01*
X1684Y79747D01*
X1783Y79696D01*
X1884Y79649D01*
X1986Y79606D01*
X2089Y79566D01*
X2194Y79530D01*
X2300Y79498D01*
X2407Y79469D01*
X2515Y79444D01*
X2624Y79423D01*
X2733Y79406D01*
X2843Y79392D01*
X2954Y79383D01*
X3064Y79377D01*
X3175Y79375D01*
X8210Y79375D01*
X8472Y79372D01*
X8734Y79362D01*
X8995Y79347D01*
X9256Y79324D01*
X9517Y79296D01*
X9776Y79261D01*
X10035Y79220D01*
X10293Y79173D01*
X10549Y79120D01*
X10804Y79060D01*
X11058Y78994D01*
X11310Y78922D01*
X11560Y78844D01*
X11808Y78761D01*
X12054Y78671D01*
X12298Y78575D01*
X12539Y78473D01*
X12778Y78366D01*
X13014Y78252D01*
X13248Y78133D01*
X13478Y78009D01*
X13705Y77879D01*
X13930Y77743D01*
X14150Y77602D01*
X14368Y77456D01*
X14582Y77305D01*
X14792Y77148D01*
X14998Y76987D01*
X15200Y76820D01*
X15398Y76649D01*
X15592Y76473D01*
X15782Y76292D01*
X15967Y76107D01*
X16148Y75917D01*
X16324Y75723D01*
X16495Y75525D01*
X16662Y75323D01*
X16823Y75117D01*
X16980Y74907D01*
X17131Y74693D01*
X17277Y74475D01*
X17418Y74255D01*
X17554Y74030D01*
X17684Y73803D01*
X17808Y73573D01*
X17927Y73339D01*
X18041Y73103D01*
X18148Y72864D01*
X18250Y72623D01*
X18346Y72379D01*
X18436Y72133D01*
X18519Y71885D01*
X18597Y71635D01*
X18669Y71383D01*
X18735Y71129D01*
X18795Y70874D01*
X18848Y70618D01*
X18895Y70360D01*
X18936Y70101D01*
X18971Y69842D01*
X18999Y69581D01*
X19022Y69320D01*
X19037Y69059D01*
X19047Y68797D01*
X19050Y68535D01*
X19050Y12700D01*
X19052Y12589D01*
X19058Y12479D01*
X19067Y12368D01*
X19081Y12258D01*
X19098Y12149D01*
X19119Y12040D01*
X19144Y11932D01*
X19173Y11825D01*
X19205Y11719D01*
X19241Y11614D01*
X19281Y11511D01*
X19324Y11409D01*
X19371Y11308D01*
X19422Y11209D01*
X19475Y11112D01*
X19532Y11018D01*
X19593Y10925D01*
X19656Y10834D01*
X19723Y10745D01*
X19793Y10659D01*
X19866Y10576D01*
X19941Y10494D01*
X20019Y10416D01*
X20101Y10341D01*
X20184Y10268D01*
X20270Y10198D01*
X20359Y10131D01*
X20450Y10068D01*
X20543Y10007D01*
X20637Y9950D01*
X20734Y9897D01*
X20833Y9846D01*
X20934Y9799D01*
X21036Y9756D01*
X21139Y9716D01*
X21244Y9680D01*
X21350Y9648D01*
X21457Y9619D01*
X21565Y9594D01*
X21674Y9573D01*
X21783Y9556D01*
X21893Y9542D01*
X22004Y9533D01*
X22114Y9527D01*
X22225Y9525D01*
X256975Y9525D01*
X257086Y9527D01*
X257196Y9533D01*
X257307Y9542D01*
X257417Y9556D01*
X257526Y9573D01*
X257635Y9594D01*
X257743Y9619D01*
X257850Y9648D01*
X257956Y9680D01*
X258061Y9716D01*
X258164Y9756D01*
X258266Y9799D01*
X258367Y9846D01*
X258466Y9897D01*
X258562Y9950D01*
X258657Y10007D01*
X258750Y10068D01*
X258841Y10131D01*
X258930Y10198D01*
X259016Y10268D01*
X259099Y10341D01*
X259181Y10416D01*
X259259Y10494D01*
X259334Y10576D01*
X259407Y10659D01*
X259477Y10745D01*
X259544Y10834D01*
X259607Y10925D01*
X259668Y11018D01*
X259725Y11112D01*
X259778Y11209D01*
X259829Y11308D01*
X259876Y11409D01*
X259919Y11511D01*
X259959Y11614D01*
X259995Y11719D01*
X260027Y11825D01*
X260056Y11932D01*
X260081Y12040D01*
X260102Y12149D01*
X260119Y12258D01*
X260133Y12368D01*
X260142Y12479D01*
X260148Y12589D01*
X260150Y12700D01*
X260150Y298525D01*
X260148Y298631D01*
X260142Y298737D01*
X260133Y298843D01*
X260120Y298948D01*
X260103Y299053D01*
X260082Y299157D01*
X260058Y299261D01*
X260029Y299363D01*
X259998Y299465D01*
X259962Y299565D01*
X259924Y299663D01*
X259881Y299761D01*
X259835Y299857D01*
X259786Y299951D01*
X259734Y300043D01*
X259678Y300133D01*
X259619Y300222D01*
X259557Y300308D01*
X259491Y300392D01*
X259423Y300473D01*
X259352Y300552D01*
X259279Y300629D01*
X259202Y300702D01*
X259123Y300773D01*
X259042Y300841D01*
X258958Y300907D01*
X258872Y300969D01*
X258783Y301028D01*
X258693Y301084D01*
X258601Y301136D01*
X258507Y301185D01*
X258411Y301231D01*
X258313Y301274D01*
X258215Y301312D01*
X258115Y301348D01*
X258013Y301379D01*
X257911Y301408D01*
X257807Y301432D01*
X257703Y301453D01*
X257598Y301470D01*
X257493Y301483D01*
X257387Y301492D01*
X257281Y301498D01*
X257175Y301500D01*
X3050Y301500D01*
X2941Y301498D01*
X2832Y301492D01*
X2724Y301483D01*
X2616Y301469D01*
X2508Y301452D01*
X2402Y301430D01*
X2296Y301405D01*
X2191Y301376D01*
X2087Y301344D01*
X1984Y301308D01*
X1883Y301268D01*
X1783Y301224D01*
X1685Y301177D01*
X1588Y301127D01*
X1494Y301073D01*
X1401Y301016D01*
X1311Y300955D01*
X1222Y300892D01*
X1136Y300825D01*
X1053Y300755D01*
X972Y300682D01*
X893Y300607D01*
X818Y300528D01*
X745Y300447D01*
X675Y300364D01*
X608Y300278D01*
X545Y300189D01*
X484Y300099D01*
X427Y300006D01*
X373Y299912D01*
X323Y299815D01*
X276Y299717D01*
X232Y299617D01*
X192Y299516D01*
X156Y299413D01*
X124Y299309D01*
X95Y299204D01*
X70Y299098D01*
X48Y298992D01*
X31Y298884D01*
X17Y298776D01*
X8Y298668D01*
X2Y298559D01*
X0Y298450D01*
D11*
X161925Y211300D03*
D12*
X161925Y231300D03*
X161925Y251300D03*
X161925Y271300D03*
D11*
X104775Y271300D03*
D12*
X104775Y251300D03*
X104775Y231300D03*
X104775Y211300D03*
D11*
X161925Y103350D03*
D12*
X161925Y123350D03*
X161925Y143350D03*
X161925Y163350D03*
D11*
X104775Y163350D03*
D12*
X104775Y143350D03*
X104775Y123350D03*
X104775Y103350D03*
D13*
X15875Y127000D03*
X15875Y152400D03*
X15875Y177800D03*
X15875Y203200D03*
X15875Y228600D03*
X15875Y254000D03*
X15875Y279400D03*
X244475Y127000D03*
X244475Y152400D03*
X244475Y177800D03*
X244475Y203200D03*
X244475Y228600D03*
X244475Y254000D03*
X244475Y279400D03*
X15875Y101600D03*
X244475Y101600D03*
D14*
X136525Y245900D02*
X161925Y271300D01*
X136525Y245900D02*
X136525Y209550D01*
X136525Y101600D01*
X136525Y82550D01*
X149225Y69850D01*
X187325Y69850D01*
X244475Y127000D01*
X134775Y211300D02*
X104775Y211300D01*
X134775Y211300D02*
X136525Y209550D01*
X134775Y103350D02*
X136525Y101600D01*
X134775Y103350D02*
X104775Y103350D01*
X161925Y251300D02*
X171925Y251300D01*
X180975Y260350D01*
X180975Y282575D01*
X174625Y288925D01*
X152400Y288925D01*
X120650Y257175D01*
X120650Y244475D01*
X107475Y231300D01*
X104775Y231300D01*
D15*
X149225Y116050D02*
X161925Y103350D01*
X149225Y116050D02*
X149225Y171450D01*
X206375Y228600D01*
X244475Y228600D01*
X241775Y203200D02*
X161925Y123350D01*
X241775Y203200D02*
X244475Y203200D01*
M02*
