G04 EAGLE Gerber RS-274X export*
G75*
%MOMM*%
%FSLAX34Y34*%
%LPD*%
%INSilk top*%
%IPPOS*%
%AMOC8*
5,1,8,0,0,1.08239X$1,22.5*%
G01*
%ADD10C,0.203200*%
%ADD11C,0.152400*%
%ADD12C,0.254000*%
%ADD13C,0.400000*%
%ADD14C,0.127000*%
%ADD15R,0.406400X0.863600*%
%ADD16C,0.101600*%


D10*
X90945Y60820D02*
X118605Y60820D01*
D11*
X114935Y62230D02*
X94615Y62230D01*
D10*
X118605Y60820D02*
X118605Y28080D01*
X90945Y28080D02*
X90945Y60820D01*
D11*
X94615Y26670D02*
X114935Y26670D01*
D10*
X118605Y28080D02*
X90945Y28080D01*
X104775Y51250D02*
X104775Y57550D01*
X107775Y54450D02*
X101475Y54450D01*
D12*
X153275Y17500D02*
X183275Y17500D01*
X138275Y43500D02*
X138275Y60000D01*
X190775Y60000D02*
X198275Y60000D01*
X198275Y43500D01*
X145775Y60000D02*
X138275Y60000D01*
D13*
X141861Y66500D02*
X141863Y66575D01*
X141869Y66649D01*
X141879Y66723D01*
X141892Y66796D01*
X141910Y66869D01*
X141931Y66940D01*
X141956Y67011D01*
X141985Y67080D01*
X142018Y67147D01*
X142054Y67212D01*
X142093Y67276D01*
X142135Y67337D01*
X142181Y67396D01*
X142230Y67453D01*
X142282Y67506D01*
X142336Y67557D01*
X142393Y67606D01*
X142453Y67650D01*
X142515Y67692D01*
X142579Y67731D01*
X142645Y67766D01*
X142712Y67797D01*
X142782Y67825D01*
X142852Y67849D01*
X142924Y67870D01*
X142997Y67886D01*
X143070Y67899D01*
X143145Y67908D01*
X143219Y67913D01*
X143294Y67914D01*
X143368Y67911D01*
X143443Y67904D01*
X143516Y67893D01*
X143590Y67879D01*
X143662Y67860D01*
X143733Y67838D01*
X143803Y67812D01*
X143872Y67782D01*
X143938Y67749D01*
X144003Y67712D01*
X144066Y67672D01*
X144127Y67628D01*
X144185Y67582D01*
X144241Y67532D01*
X144294Y67480D01*
X144345Y67425D01*
X144392Y67367D01*
X144436Y67307D01*
X144477Y67244D01*
X144515Y67180D01*
X144549Y67114D01*
X144580Y67045D01*
X144607Y66976D01*
X144630Y66905D01*
X144649Y66833D01*
X144665Y66760D01*
X144677Y66686D01*
X144685Y66612D01*
X144689Y66537D01*
X144689Y66463D01*
X144685Y66388D01*
X144677Y66314D01*
X144665Y66240D01*
X144649Y66167D01*
X144630Y66095D01*
X144607Y66024D01*
X144580Y65955D01*
X144549Y65886D01*
X144515Y65820D01*
X144477Y65756D01*
X144436Y65693D01*
X144392Y65633D01*
X144345Y65575D01*
X144294Y65520D01*
X144241Y65468D01*
X144185Y65418D01*
X144127Y65372D01*
X144066Y65328D01*
X144003Y65288D01*
X143938Y65251D01*
X143872Y65218D01*
X143803Y65188D01*
X143733Y65162D01*
X143662Y65140D01*
X143590Y65121D01*
X143516Y65107D01*
X143443Y65096D01*
X143368Y65089D01*
X143294Y65086D01*
X143219Y65087D01*
X143145Y65092D01*
X143070Y65101D01*
X142997Y65114D01*
X142924Y65130D01*
X142852Y65151D01*
X142782Y65175D01*
X142712Y65203D01*
X142645Y65234D01*
X142579Y65269D01*
X142515Y65308D01*
X142453Y65350D01*
X142393Y65394D01*
X142336Y65443D01*
X142282Y65494D01*
X142230Y65547D01*
X142181Y65604D01*
X142135Y65663D01*
X142093Y65724D01*
X142054Y65788D01*
X142018Y65853D01*
X141985Y65920D01*
X141956Y65989D01*
X141931Y66060D01*
X141910Y66131D01*
X141892Y66204D01*
X141879Y66277D01*
X141869Y66351D01*
X141863Y66425D01*
X141861Y66500D01*
D14*
X151925Y191300D02*
X171925Y191300D01*
D12*
X176925Y291300D02*
X146925Y291300D01*
X139925Y191300D02*
X183925Y191300D01*
X183925Y209300D01*
X183925Y273300D02*
X183925Y291300D01*
X139925Y291300D01*
X139925Y191300D01*
X183925Y191300D02*
X189925Y191300D01*
X189925Y209300D01*
X183925Y209300D01*
X183925Y273300D01*
X189925Y273300D01*
X189925Y291300D01*
X183925Y291300D01*
D14*
X114775Y291300D02*
X94775Y291300D01*
D12*
X89775Y191300D02*
X119775Y191300D01*
X126775Y291300D02*
X82775Y291300D01*
X82775Y273300D01*
X82775Y209300D02*
X82775Y191300D01*
X126775Y191300D01*
X126775Y291300D01*
X82775Y291300D02*
X76775Y291300D01*
X76775Y273300D01*
X82775Y273300D01*
X82775Y209300D01*
X76775Y209300D01*
X76775Y191300D01*
X82775Y191300D01*
D14*
X151925Y83350D02*
X171925Y83350D01*
D12*
X176925Y183350D02*
X146925Y183350D01*
X139925Y83350D02*
X183925Y83350D01*
X183925Y101350D01*
X183925Y165350D02*
X183925Y183350D01*
X139925Y183350D01*
X139925Y83350D01*
X183925Y83350D02*
X189925Y83350D01*
X189925Y101350D01*
X183925Y101350D01*
X183925Y165350D01*
X189925Y165350D01*
X189925Y183350D01*
X183925Y183350D01*
D14*
X114775Y183350D02*
X94775Y183350D01*
D12*
X89775Y83350D02*
X119775Y83350D01*
X126775Y183350D02*
X82775Y183350D01*
X82775Y165350D01*
X82775Y101350D02*
X82775Y83350D01*
X126775Y83350D01*
X126775Y183350D01*
X82775Y183350D02*
X76775Y183350D01*
X76775Y165350D01*
X82775Y165350D01*
X82775Y101350D01*
X76775Y101350D01*
X76775Y83350D01*
X82775Y83350D01*
D11*
X221105Y66290D02*
X229745Y66290D01*
X229745Y73410D02*
X221105Y73410D01*
D15*
X231775Y69850D03*
X219075Y69850D03*
D11*
X221105Y40890D02*
X229745Y40890D01*
X229745Y48010D02*
X221105Y48010D01*
D15*
X231775Y44450D03*
X219075Y44450D03*
D14*
X28575Y209550D02*
X22225Y215900D01*
X28575Y209550D02*
X28575Y196850D01*
X22225Y190500D01*
X28575Y184150D01*
X28575Y171450D01*
X22225Y165100D01*
X28575Y158750D01*
X28575Y146050D01*
X22225Y139700D01*
X28575Y133350D01*
X28575Y120650D01*
X22225Y114300D01*
X3175Y209550D02*
X9525Y215900D01*
X3175Y196850D02*
X9525Y190500D01*
X3175Y184150D01*
X3175Y171450D02*
X9525Y165100D01*
X3175Y158750D01*
X3175Y146050D02*
X9525Y139700D01*
X3175Y133350D01*
X3175Y120650D02*
X9525Y114300D01*
D16*
X35433Y146558D02*
X35433Y158242D01*
X38679Y158242D01*
X38792Y158240D01*
X38905Y158234D01*
X39018Y158224D01*
X39131Y158210D01*
X39243Y158193D01*
X39354Y158171D01*
X39464Y158146D01*
X39574Y158116D01*
X39682Y158083D01*
X39789Y158046D01*
X39895Y158006D01*
X39999Y157961D01*
X40102Y157913D01*
X40203Y157862D01*
X40302Y157807D01*
X40399Y157749D01*
X40494Y157687D01*
X40587Y157622D01*
X40677Y157554D01*
X40765Y157483D01*
X40851Y157408D01*
X40934Y157331D01*
X41014Y157251D01*
X41091Y157168D01*
X41166Y157082D01*
X41237Y156994D01*
X41305Y156904D01*
X41370Y156811D01*
X41432Y156716D01*
X41490Y156619D01*
X41545Y156520D01*
X41596Y156419D01*
X41644Y156316D01*
X41689Y156212D01*
X41729Y156106D01*
X41766Y155999D01*
X41799Y155891D01*
X41829Y155781D01*
X41854Y155671D01*
X41876Y155560D01*
X41893Y155448D01*
X41907Y155335D01*
X41917Y155222D01*
X41923Y155109D01*
X41925Y154996D01*
X41924Y154996D02*
X41924Y149804D01*
X41925Y149804D02*
X41923Y149691D01*
X41917Y149578D01*
X41907Y149465D01*
X41893Y149352D01*
X41876Y149240D01*
X41854Y149129D01*
X41829Y149019D01*
X41799Y148909D01*
X41766Y148801D01*
X41729Y148694D01*
X41689Y148588D01*
X41644Y148484D01*
X41596Y148381D01*
X41545Y148280D01*
X41490Y148181D01*
X41432Y148084D01*
X41370Y147989D01*
X41305Y147896D01*
X41237Y147806D01*
X41166Y147718D01*
X41091Y147632D01*
X41014Y147549D01*
X40934Y147469D01*
X40851Y147392D01*
X40765Y147317D01*
X40677Y147246D01*
X40587Y147178D01*
X40494Y147113D01*
X40399Y147051D01*
X40302Y146993D01*
X40203Y146938D01*
X40102Y146887D01*
X39999Y146839D01*
X39895Y146794D01*
X39789Y146754D01*
X39682Y146717D01*
X39574Y146684D01*
X39464Y146654D01*
X39354Y146629D01*
X39243Y146607D01*
X39131Y146590D01*
X39018Y146576D01*
X38905Y146566D01*
X38792Y146560D01*
X38679Y146558D01*
X35433Y146558D01*
X47244Y156944D02*
X47244Y158242D01*
X53735Y158242D01*
X50490Y146558D01*
D14*
X3175Y298450D02*
X257175Y298450D01*
X257175Y285750D01*
X257175Y273050D01*
X257175Y260350D01*
X257175Y247650D01*
X257175Y234950D01*
X257175Y222250D01*
X257175Y12700D01*
D16*
X35433Y171958D02*
X35433Y183642D01*
X38679Y183642D01*
X38792Y183640D01*
X38905Y183634D01*
X39018Y183624D01*
X39131Y183610D01*
X39243Y183593D01*
X39354Y183571D01*
X39464Y183546D01*
X39574Y183516D01*
X39682Y183483D01*
X39789Y183446D01*
X39895Y183406D01*
X39999Y183361D01*
X40102Y183313D01*
X40203Y183262D01*
X40302Y183207D01*
X40399Y183149D01*
X40494Y183087D01*
X40587Y183022D01*
X40677Y182954D01*
X40765Y182883D01*
X40851Y182808D01*
X40934Y182731D01*
X41014Y182651D01*
X41091Y182568D01*
X41166Y182482D01*
X41237Y182394D01*
X41305Y182304D01*
X41370Y182211D01*
X41432Y182116D01*
X41490Y182019D01*
X41545Y181920D01*
X41596Y181819D01*
X41644Y181716D01*
X41689Y181612D01*
X41729Y181506D01*
X41766Y181399D01*
X41799Y181291D01*
X41829Y181181D01*
X41854Y181071D01*
X41876Y180960D01*
X41893Y180848D01*
X41907Y180735D01*
X41917Y180622D01*
X41923Y180509D01*
X41925Y180396D01*
X41924Y180396D02*
X41924Y175204D01*
X41925Y175204D02*
X41923Y175091D01*
X41917Y174978D01*
X41907Y174865D01*
X41893Y174752D01*
X41876Y174640D01*
X41854Y174529D01*
X41829Y174419D01*
X41799Y174309D01*
X41766Y174201D01*
X41729Y174094D01*
X41689Y173988D01*
X41644Y173884D01*
X41596Y173781D01*
X41545Y173680D01*
X41490Y173581D01*
X41432Y173484D01*
X41370Y173389D01*
X41305Y173296D01*
X41237Y173206D01*
X41166Y173118D01*
X41091Y173032D01*
X41014Y172949D01*
X40934Y172869D01*
X40851Y172792D01*
X40765Y172717D01*
X40677Y172646D01*
X40587Y172578D01*
X40494Y172513D01*
X40399Y172451D01*
X40302Y172393D01*
X40203Y172338D01*
X40102Y172287D01*
X39999Y172239D01*
X39895Y172194D01*
X39789Y172154D01*
X39682Y172117D01*
X39574Y172084D01*
X39464Y172054D01*
X39354Y172029D01*
X39243Y172007D01*
X39131Y171990D01*
X39018Y171976D01*
X38905Y171966D01*
X38792Y171960D01*
X38679Y171958D01*
X35433Y171958D01*
X47244Y178449D02*
X51139Y178449D01*
X51238Y178447D01*
X51338Y178441D01*
X51437Y178432D01*
X51535Y178419D01*
X51633Y178402D01*
X51731Y178381D01*
X51827Y178356D01*
X51922Y178328D01*
X52016Y178296D01*
X52109Y178261D01*
X52201Y178222D01*
X52291Y178179D01*
X52379Y178134D01*
X52466Y178084D01*
X52550Y178032D01*
X52633Y177976D01*
X52713Y177918D01*
X52791Y177856D01*
X52866Y177791D01*
X52939Y177723D01*
X53009Y177653D01*
X53077Y177580D01*
X53142Y177505D01*
X53204Y177427D01*
X53262Y177347D01*
X53318Y177264D01*
X53370Y177180D01*
X53420Y177093D01*
X53465Y177005D01*
X53508Y176915D01*
X53547Y176823D01*
X53582Y176730D01*
X53614Y176636D01*
X53642Y176541D01*
X53667Y176445D01*
X53688Y176347D01*
X53705Y176249D01*
X53718Y176151D01*
X53727Y176052D01*
X53733Y175952D01*
X53735Y175853D01*
X53735Y175204D01*
X53736Y175204D02*
X53734Y175091D01*
X53728Y174978D01*
X53718Y174865D01*
X53704Y174752D01*
X53687Y174640D01*
X53665Y174529D01*
X53640Y174419D01*
X53610Y174309D01*
X53577Y174201D01*
X53540Y174094D01*
X53500Y173988D01*
X53455Y173884D01*
X53407Y173781D01*
X53356Y173680D01*
X53301Y173581D01*
X53243Y173484D01*
X53181Y173389D01*
X53116Y173296D01*
X53048Y173206D01*
X52977Y173118D01*
X52902Y173032D01*
X52825Y172949D01*
X52745Y172869D01*
X52662Y172792D01*
X52576Y172717D01*
X52488Y172646D01*
X52398Y172578D01*
X52305Y172513D01*
X52210Y172451D01*
X52113Y172393D01*
X52014Y172338D01*
X51913Y172287D01*
X51810Y172239D01*
X51706Y172194D01*
X51600Y172154D01*
X51493Y172117D01*
X51385Y172084D01*
X51275Y172054D01*
X51165Y172029D01*
X51054Y172007D01*
X50942Y171990D01*
X50829Y171976D01*
X50716Y171966D01*
X50603Y171960D01*
X50490Y171958D01*
X50377Y171960D01*
X50264Y171966D01*
X50151Y171976D01*
X50038Y171990D01*
X49926Y172007D01*
X49815Y172029D01*
X49705Y172054D01*
X49595Y172084D01*
X49487Y172117D01*
X49380Y172154D01*
X49274Y172194D01*
X49170Y172239D01*
X49067Y172287D01*
X48966Y172338D01*
X48867Y172393D01*
X48770Y172451D01*
X48675Y172513D01*
X48582Y172578D01*
X48492Y172646D01*
X48404Y172717D01*
X48318Y172792D01*
X48235Y172869D01*
X48155Y172949D01*
X48078Y173032D01*
X48003Y173118D01*
X47932Y173206D01*
X47864Y173296D01*
X47799Y173389D01*
X47737Y173484D01*
X47679Y173581D01*
X47624Y173680D01*
X47573Y173781D01*
X47525Y173884D01*
X47480Y173988D01*
X47440Y174094D01*
X47403Y174201D01*
X47370Y174309D01*
X47340Y174419D01*
X47315Y174529D01*
X47293Y174640D01*
X47276Y174752D01*
X47262Y174865D01*
X47252Y174978D01*
X47246Y175091D01*
X47244Y175204D01*
X47244Y178449D01*
X47246Y178592D01*
X47252Y178735D01*
X47262Y178878D01*
X47276Y179020D01*
X47293Y179162D01*
X47315Y179304D01*
X47340Y179445D01*
X47370Y179585D01*
X47403Y179724D01*
X47440Y179862D01*
X47481Y179999D01*
X47525Y180135D01*
X47574Y180270D01*
X47626Y180403D01*
X47681Y180535D01*
X47741Y180665D01*
X47804Y180794D01*
X47870Y180921D01*
X47940Y181045D01*
X48013Y181168D01*
X48090Y181289D01*
X48170Y181408D01*
X48253Y181524D01*
X48339Y181639D01*
X48428Y181750D01*
X48521Y181860D01*
X48616Y181966D01*
X48715Y182070D01*
X48816Y182171D01*
X48920Y182270D01*
X49026Y182365D01*
X49136Y182458D01*
X49247Y182547D01*
X49362Y182633D01*
X49478Y182716D01*
X49597Y182796D01*
X49718Y182873D01*
X49840Y182946D01*
X49965Y183016D01*
X50092Y183082D01*
X50221Y183145D01*
X50351Y183205D01*
X50483Y183260D01*
X50616Y183312D01*
X50751Y183361D01*
X50887Y183405D01*
X51024Y183446D01*
X51162Y183483D01*
X51301Y183516D01*
X51441Y183546D01*
X51582Y183571D01*
X51724Y183593D01*
X51866Y183610D01*
X52008Y183624D01*
X52151Y183634D01*
X52294Y183640D01*
X52437Y183642D01*
X35433Y197358D02*
X35433Y209042D01*
X38679Y209042D01*
X38792Y209040D01*
X38905Y209034D01*
X39018Y209024D01*
X39131Y209010D01*
X39243Y208993D01*
X39354Y208971D01*
X39464Y208946D01*
X39574Y208916D01*
X39682Y208883D01*
X39789Y208846D01*
X39895Y208806D01*
X39999Y208761D01*
X40102Y208713D01*
X40203Y208662D01*
X40302Y208607D01*
X40399Y208549D01*
X40494Y208487D01*
X40587Y208422D01*
X40677Y208354D01*
X40765Y208283D01*
X40851Y208208D01*
X40934Y208131D01*
X41014Y208051D01*
X41091Y207968D01*
X41166Y207882D01*
X41237Y207794D01*
X41305Y207704D01*
X41370Y207611D01*
X41432Y207516D01*
X41490Y207419D01*
X41545Y207320D01*
X41596Y207219D01*
X41644Y207116D01*
X41689Y207012D01*
X41729Y206906D01*
X41766Y206799D01*
X41799Y206691D01*
X41829Y206581D01*
X41854Y206471D01*
X41876Y206360D01*
X41893Y206248D01*
X41907Y206135D01*
X41917Y206022D01*
X41923Y205909D01*
X41925Y205796D01*
X41924Y205796D02*
X41924Y200604D01*
X41925Y200604D02*
X41923Y200491D01*
X41917Y200378D01*
X41907Y200265D01*
X41893Y200152D01*
X41876Y200040D01*
X41854Y199929D01*
X41829Y199819D01*
X41799Y199709D01*
X41766Y199601D01*
X41729Y199494D01*
X41689Y199388D01*
X41644Y199284D01*
X41596Y199181D01*
X41545Y199080D01*
X41490Y198981D01*
X41432Y198884D01*
X41370Y198789D01*
X41305Y198696D01*
X41237Y198606D01*
X41166Y198518D01*
X41091Y198432D01*
X41014Y198349D01*
X40934Y198269D01*
X40851Y198192D01*
X40765Y198117D01*
X40677Y198046D01*
X40587Y197978D01*
X40494Y197913D01*
X40399Y197851D01*
X40302Y197793D01*
X40203Y197738D01*
X40102Y197687D01*
X39999Y197639D01*
X39895Y197594D01*
X39789Y197554D01*
X39682Y197517D01*
X39574Y197484D01*
X39464Y197454D01*
X39354Y197429D01*
X39243Y197407D01*
X39131Y197390D01*
X39018Y197376D01*
X38905Y197366D01*
X38792Y197360D01*
X38679Y197358D01*
X35433Y197358D01*
X47244Y197358D02*
X51139Y197358D01*
X51238Y197360D01*
X51338Y197366D01*
X51437Y197375D01*
X51535Y197388D01*
X51633Y197405D01*
X51731Y197426D01*
X51827Y197451D01*
X51922Y197479D01*
X52016Y197511D01*
X52109Y197546D01*
X52201Y197585D01*
X52291Y197628D01*
X52379Y197673D01*
X52466Y197723D01*
X52550Y197775D01*
X52633Y197831D01*
X52713Y197889D01*
X52791Y197951D01*
X52866Y198016D01*
X52939Y198084D01*
X53009Y198154D01*
X53077Y198227D01*
X53142Y198302D01*
X53204Y198380D01*
X53262Y198460D01*
X53318Y198543D01*
X53370Y198627D01*
X53420Y198714D01*
X53465Y198802D01*
X53508Y198892D01*
X53547Y198984D01*
X53582Y199077D01*
X53614Y199171D01*
X53642Y199266D01*
X53667Y199362D01*
X53688Y199460D01*
X53705Y199558D01*
X53718Y199656D01*
X53727Y199755D01*
X53733Y199855D01*
X53735Y199954D01*
X53735Y201253D01*
X53733Y201352D01*
X53727Y201452D01*
X53718Y201551D01*
X53705Y201649D01*
X53688Y201747D01*
X53667Y201845D01*
X53642Y201941D01*
X53614Y202036D01*
X53582Y202130D01*
X53547Y202223D01*
X53508Y202315D01*
X53465Y202405D01*
X53420Y202493D01*
X53370Y202580D01*
X53318Y202664D01*
X53262Y202747D01*
X53204Y202827D01*
X53142Y202905D01*
X53077Y202980D01*
X53009Y203053D01*
X52939Y203123D01*
X52866Y203191D01*
X52791Y203256D01*
X52713Y203318D01*
X52633Y203376D01*
X52550Y203432D01*
X52466Y203484D01*
X52379Y203534D01*
X52291Y203579D01*
X52201Y203622D01*
X52109Y203661D01*
X52016Y203696D01*
X51922Y203728D01*
X51827Y203756D01*
X51731Y203781D01*
X51633Y203802D01*
X51535Y203819D01*
X51437Y203832D01*
X51338Y203841D01*
X51238Y203847D01*
X51139Y203849D01*
X47244Y203849D01*
X47244Y209042D01*
X53735Y209042D01*
X35433Y132842D02*
X35433Y121158D01*
X35433Y132842D02*
X38679Y132842D01*
X38792Y132840D01*
X38905Y132834D01*
X39018Y132824D01*
X39131Y132810D01*
X39243Y132793D01*
X39354Y132771D01*
X39464Y132746D01*
X39574Y132716D01*
X39682Y132683D01*
X39789Y132646D01*
X39895Y132606D01*
X39999Y132561D01*
X40102Y132513D01*
X40203Y132462D01*
X40302Y132407D01*
X40399Y132349D01*
X40494Y132287D01*
X40587Y132222D01*
X40677Y132154D01*
X40765Y132083D01*
X40851Y132008D01*
X40934Y131931D01*
X41014Y131851D01*
X41091Y131768D01*
X41166Y131682D01*
X41237Y131594D01*
X41305Y131504D01*
X41370Y131411D01*
X41432Y131316D01*
X41490Y131219D01*
X41545Y131120D01*
X41596Y131019D01*
X41644Y130916D01*
X41689Y130812D01*
X41729Y130706D01*
X41766Y130599D01*
X41799Y130491D01*
X41829Y130381D01*
X41854Y130271D01*
X41876Y130160D01*
X41893Y130048D01*
X41907Y129935D01*
X41917Y129822D01*
X41923Y129709D01*
X41925Y129596D01*
X41924Y129596D02*
X41924Y124404D01*
X41925Y124404D02*
X41923Y124291D01*
X41917Y124178D01*
X41907Y124065D01*
X41893Y123952D01*
X41876Y123840D01*
X41854Y123729D01*
X41829Y123619D01*
X41799Y123509D01*
X41766Y123401D01*
X41729Y123294D01*
X41689Y123188D01*
X41644Y123084D01*
X41596Y122981D01*
X41545Y122880D01*
X41490Y122781D01*
X41432Y122684D01*
X41370Y122589D01*
X41305Y122496D01*
X41237Y122406D01*
X41166Y122318D01*
X41091Y122232D01*
X41014Y122149D01*
X40934Y122069D01*
X40851Y121992D01*
X40765Y121917D01*
X40677Y121846D01*
X40587Y121778D01*
X40494Y121713D01*
X40399Y121651D01*
X40302Y121593D01*
X40203Y121538D01*
X40102Y121487D01*
X39999Y121439D01*
X39895Y121394D01*
X39789Y121354D01*
X39682Y121317D01*
X39574Y121284D01*
X39464Y121254D01*
X39354Y121229D01*
X39243Y121207D01*
X39131Y121190D01*
X39018Y121176D01*
X38905Y121166D01*
X38792Y121160D01*
X38679Y121158D01*
X35433Y121158D01*
X47244Y124404D02*
X47246Y124517D01*
X47252Y124630D01*
X47262Y124743D01*
X47276Y124856D01*
X47293Y124968D01*
X47315Y125079D01*
X47340Y125189D01*
X47370Y125299D01*
X47403Y125407D01*
X47440Y125514D01*
X47480Y125620D01*
X47525Y125724D01*
X47573Y125827D01*
X47624Y125928D01*
X47679Y126027D01*
X47737Y126124D01*
X47799Y126219D01*
X47864Y126312D01*
X47932Y126402D01*
X48003Y126490D01*
X48078Y126576D01*
X48155Y126659D01*
X48235Y126739D01*
X48318Y126816D01*
X48404Y126891D01*
X48492Y126962D01*
X48582Y127030D01*
X48675Y127095D01*
X48770Y127157D01*
X48867Y127215D01*
X48966Y127270D01*
X49067Y127321D01*
X49170Y127369D01*
X49274Y127414D01*
X49380Y127454D01*
X49487Y127491D01*
X49595Y127524D01*
X49705Y127554D01*
X49815Y127579D01*
X49926Y127601D01*
X50038Y127618D01*
X50151Y127632D01*
X50264Y127642D01*
X50377Y127648D01*
X50490Y127650D01*
X50603Y127648D01*
X50716Y127642D01*
X50829Y127632D01*
X50942Y127618D01*
X51054Y127601D01*
X51165Y127579D01*
X51275Y127554D01*
X51385Y127524D01*
X51493Y127491D01*
X51600Y127454D01*
X51706Y127414D01*
X51810Y127369D01*
X51913Y127321D01*
X52014Y127270D01*
X52113Y127215D01*
X52210Y127157D01*
X52305Y127095D01*
X52398Y127030D01*
X52488Y126962D01*
X52576Y126891D01*
X52662Y126816D01*
X52745Y126739D01*
X52825Y126659D01*
X52902Y126576D01*
X52977Y126490D01*
X53048Y126402D01*
X53116Y126312D01*
X53181Y126219D01*
X53243Y126124D01*
X53301Y126027D01*
X53356Y125928D01*
X53407Y125827D01*
X53455Y125724D01*
X53500Y125620D01*
X53540Y125514D01*
X53577Y125407D01*
X53610Y125299D01*
X53640Y125189D01*
X53665Y125079D01*
X53687Y124968D01*
X53704Y124856D01*
X53718Y124743D01*
X53728Y124630D01*
X53734Y124517D01*
X53736Y124404D01*
X53734Y124291D01*
X53728Y124178D01*
X53718Y124065D01*
X53704Y123952D01*
X53687Y123840D01*
X53665Y123729D01*
X53640Y123619D01*
X53610Y123509D01*
X53577Y123401D01*
X53540Y123294D01*
X53500Y123188D01*
X53455Y123084D01*
X53407Y122981D01*
X53356Y122880D01*
X53301Y122781D01*
X53243Y122684D01*
X53181Y122589D01*
X53116Y122496D01*
X53048Y122406D01*
X52977Y122318D01*
X52902Y122232D01*
X52825Y122149D01*
X52745Y122069D01*
X52662Y121992D01*
X52576Y121917D01*
X52488Y121846D01*
X52398Y121778D01*
X52305Y121713D01*
X52210Y121651D01*
X52113Y121593D01*
X52014Y121538D01*
X51913Y121487D01*
X51810Y121439D01*
X51706Y121394D01*
X51600Y121354D01*
X51493Y121317D01*
X51385Y121284D01*
X51275Y121254D01*
X51165Y121229D01*
X51054Y121207D01*
X50942Y121190D01*
X50829Y121176D01*
X50716Y121166D01*
X50603Y121160D01*
X50490Y121158D01*
X50377Y121160D01*
X50264Y121166D01*
X50151Y121176D01*
X50038Y121190D01*
X49926Y121207D01*
X49815Y121229D01*
X49705Y121254D01*
X49595Y121284D01*
X49487Y121317D01*
X49380Y121354D01*
X49274Y121394D01*
X49170Y121439D01*
X49067Y121487D01*
X48966Y121538D01*
X48867Y121593D01*
X48770Y121651D01*
X48675Y121713D01*
X48582Y121778D01*
X48492Y121846D01*
X48404Y121917D01*
X48318Y121992D01*
X48235Y122069D01*
X48155Y122149D01*
X48078Y122232D01*
X48003Y122318D01*
X47932Y122406D01*
X47864Y122496D01*
X47799Y122589D01*
X47737Y122684D01*
X47679Y122781D01*
X47624Y122880D01*
X47573Y122981D01*
X47525Y123084D01*
X47480Y123188D01*
X47440Y123294D01*
X47403Y123401D01*
X47370Y123509D01*
X47340Y123619D01*
X47315Y123729D01*
X47293Y123840D01*
X47276Y123952D01*
X47262Y124065D01*
X47252Y124178D01*
X47246Y124291D01*
X47244Y124404D01*
X47894Y130246D02*
X47896Y130347D01*
X47902Y130447D01*
X47912Y130547D01*
X47925Y130647D01*
X47943Y130746D01*
X47964Y130845D01*
X47989Y130942D01*
X48018Y131039D01*
X48051Y131134D01*
X48087Y131228D01*
X48127Y131320D01*
X48170Y131411D01*
X48217Y131500D01*
X48267Y131587D01*
X48321Y131673D01*
X48378Y131756D01*
X48438Y131836D01*
X48501Y131915D01*
X48568Y131991D01*
X48637Y132064D01*
X48709Y132134D01*
X48783Y132202D01*
X48860Y132267D01*
X48940Y132328D01*
X49022Y132387D01*
X49106Y132442D01*
X49192Y132494D01*
X49280Y132543D01*
X49370Y132588D01*
X49462Y132630D01*
X49555Y132668D01*
X49650Y132702D01*
X49745Y132733D01*
X49842Y132760D01*
X49940Y132783D01*
X50039Y132803D01*
X50139Y132818D01*
X50239Y132830D01*
X50339Y132838D01*
X50440Y132842D01*
X50540Y132842D01*
X50641Y132838D01*
X50741Y132830D01*
X50841Y132818D01*
X50941Y132803D01*
X51040Y132783D01*
X51138Y132760D01*
X51235Y132733D01*
X51330Y132702D01*
X51425Y132668D01*
X51518Y132630D01*
X51610Y132588D01*
X51700Y132543D01*
X51788Y132494D01*
X51874Y132442D01*
X51958Y132387D01*
X52040Y132328D01*
X52120Y132267D01*
X52197Y132202D01*
X52271Y132134D01*
X52343Y132064D01*
X52412Y131991D01*
X52479Y131915D01*
X52542Y131836D01*
X52602Y131756D01*
X52659Y131673D01*
X52713Y131587D01*
X52763Y131500D01*
X52810Y131411D01*
X52853Y131320D01*
X52893Y131228D01*
X52929Y131134D01*
X52962Y131039D01*
X52991Y130942D01*
X53016Y130845D01*
X53037Y130746D01*
X53055Y130647D01*
X53068Y130547D01*
X53078Y130447D01*
X53084Y130347D01*
X53086Y130246D01*
X53084Y130145D01*
X53078Y130045D01*
X53068Y129945D01*
X53055Y129845D01*
X53037Y129746D01*
X53016Y129647D01*
X52991Y129550D01*
X52962Y129453D01*
X52929Y129358D01*
X52893Y129264D01*
X52853Y129172D01*
X52810Y129081D01*
X52763Y128992D01*
X52713Y128905D01*
X52659Y128819D01*
X52602Y128736D01*
X52542Y128656D01*
X52479Y128577D01*
X52412Y128501D01*
X52343Y128428D01*
X52271Y128358D01*
X52197Y128290D01*
X52120Y128225D01*
X52040Y128164D01*
X51958Y128105D01*
X51874Y128050D01*
X51788Y127998D01*
X51700Y127949D01*
X51610Y127904D01*
X51518Y127862D01*
X51425Y127824D01*
X51330Y127790D01*
X51235Y127759D01*
X51138Y127732D01*
X51040Y127709D01*
X50941Y127689D01*
X50841Y127674D01*
X50741Y127662D01*
X50641Y127654D01*
X50540Y127650D01*
X50440Y127650D01*
X50339Y127654D01*
X50239Y127662D01*
X50139Y127674D01*
X50039Y127689D01*
X49940Y127709D01*
X49842Y127732D01*
X49745Y127759D01*
X49650Y127790D01*
X49555Y127824D01*
X49462Y127862D01*
X49370Y127904D01*
X49280Y127949D01*
X49192Y127998D01*
X49106Y128050D01*
X49022Y128105D01*
X48940Y128164D01*
X48860Y128225D01*
X48783Y128290D01*
X48709Y128358D01*
X48637Y128428D01*
X48568Y128501D01*
X48501Y128577D01*
X48438Y128656D01*
X48378Y128736D01*
X48321Y128819D01*
X48267Y128905D01*
X48217Y128992D01*
X48170Y129081D01*
X48127Y129172D01*
X48087Y129264D01*
X48051Y129358D01*
X48018Y129453D01*
X47989Y129550D01*
X47964Y129647D01*
X47943Y129746D01*
X47925Y129845D01*
X47912Y129945D01*
X47902Y130045D01*
X47896Y130145D01*
X47894Y130246D01*
D14*
X3175Y222250D02*
X3175Y234950D01*
X3175Y247650D01*
X3175Y260350D01*
X3175Y273050D01*
X3175Y285750D01*
X3175Y298450D01*
X9525Y114300D02*
X3175Y107950D01*
X3175Y95250D02*
X9525Y88900D01*
X22225Y88900D01*
X28575Y95250D01*
X28575Y107950D01*
X22225Y114300D01*
D16*
X35433Y95758D02*
X38679Y95758D01*
X38792Y95760D01*
X38905Y95766D01*
X39018Y95776D01*
X39131Y95790D01*
X39243Y95807D01*
X39354Y95829D01*
X39464Y95854D01*
X39574Y95884D01*
X39682Y95917D01*
X39789Y95954D01*
X39895Y95994D01*
X39999Y96039D01*
X40102Y96087D01*
X40203Y96138D01*
X40302Y96193D01*
X40399Y96251D01*
X40494Y96313D01*
X40587Y96378D01*
X40677Y96446D01*
X40765Y96517D01*
X40851Y96592D01*
X40934Y96669D01*
X41014Y96749D01*
X41091Y96832D01*
X41166Y96918D01*
X41237Y97006D01*
X41305Y97096D01*
X41370Y97189D01*
X41432Y97284D01*
X41490Y97381D01*
X41545Y97480D01*
X41596Y97581D01*
X41644Y97684D01*
X41689Y97788D01*
X41729Y97894D01*
X41766Y98001D01*
X41799Y98109D01*
X41829Y98219D01*
X41854Y98329D01*
X41876Y98440D01*
X41893Y98552D01*
X41907Y98665D01*
X41917Y98778D01*
X41923Y98891D01*
X41925Y99004D01*
X41923Y99117D01*
X41917Y99230D01*
X41907Y99343D01*
X41893Y99456D01*
X41876Y99568D01*
X41854Y99679D01*
X41829Y99789D01*
X41799Y99899D01*
X41766Y100007D01*
X41729Y100114D01*
X41689Y100220D01*
X41644Y100324D01*
X41596Y100427D01*
X41545Y100528D01*
X41490Y100627D01*
X41432Y100724D01*
X41370Y100819D01*
X41305Y100912D01*
X41237Y101002D01*
X41166Y101090D01*
X41091Y101176D01*
X41014Y101259D01*
X40934Y101339D01*
X40851Y101416D01*
X40765Y101491D01*
X40677Y101562D01*
X40587Y101630D01*
X40494Y101695D01*
X40399Y101757D01*
X40302Y101815D01*
X40203Y101870D01*
X40102Y101921D01*
X39999Y101969D01*
X39895Y102014D01*
X39789Y102054D01*
X39682Y102091D01*
X39574Y102124D01*
X39464Y102154D01*
X39354Y102179D01*
X39243Y102201D01*
X39131Y102218D01*
X39018Y102232D01*
X38905Y102242D01*
X38792Y102248D01*
X38679Y102250D01*
X39328Y107442D02*
X35433Y107442D01*
X39328Y107442D02*
X39429Y107440D01*
X39529Y107434D01*
X39629Y107424D01*
X39729Y107411D01*
X39828Y107393D01*
X39927Y107372D01*
X40024Y107347D01*
X40121Y107318D01*
X40216Y107285D01*
X40310Y107249D01*
X40402Y107209D01*
X40493Y107166D01*
X40582Y107119D01*
X40669Y107069D01*
X40755Y107015D01*
X40838Y106958D01*
X40918Y106898D01*
X40997Y106835D01*
X41073Y106768D01*
X41146Y106699D01*
X41216Y106627D01*
X41284Y106553D01*
X41349Y106476D01*
X41410Y106396D01*
X41469Y106314D01*
X41524Y106230D01*
X41576Y106144D01*
X41625Y106056D01*
X41670Y105966D01*
X41712Y105874D01*
X41750Y105781D01*
X41784Y105686D01*
X41815Y105591D01*
X41842Y105494D01*
X41865Y105396D01*
X41885Y105297D01*
X41900Y105197D01*
X41912Y105097D01*
X41920Y104997D01*
X41924Y104896D01*
X41924Y104796D01*
X41920Y104695D01*
X41912Y104595D01*
X41900Y104495D01*
X41885Y104395D01*
X41865Y104296D01*
X41842Y104198D01*
X41815Y104101D01*
X41784Y104006D01*
X41750Y103911D01*
X41712Y103818D01*
X41670Y103726D01*
X41625Y103636D01*
X41576Y103548D01*
X41524Y103462D01*
X41469Y103378D01*
X41410Y103296D01*
X41349Y103216D01*
X41284Y103139D01*
X41216Y103065D01*
X41146Y102993D01*
X41073Y102924D01*
X40997Y102857D01*
X40918Y102794D01*
X40838Y102734D01*
X40755Y102677D01*
X40669Y102623D01*
X40582Y102573D01*
X40493Y102526D01*
X40402Y102483D01*
X40310Y102443D01*
X40216Y102407D01*
X40121Y102374D01*
X40024Y102345D01*
X39927Y102320D01*
X39828Y102299D01*
X39729Y102281D01*
X39629Y102268D01*
X39529Y102258D01*
X39429Y102252D01*
X39328Y102250D01*
X39328Y102249D02*
X36731Y102249D01*
X46214Y107442D02*
X50109Y95758D01*
X54003Y107442D01*
X58293Y95758D02*
X61539Y95758D01*
X61652Y95760D01*
X61765Y95766D01*
X61878Y95776D01*
X61991Y95790D01*
X62103Y95807D01*
X62214Y95829D01*
X62324Y95854D01*
X62434Y95884D01*
X62542Y95917D01*
X62649Y95954D01*
X62755Y95994D01*
X62859Y96039D01*
X62962Y96087D01*
X63063Y96138D01*
X63162Y96193D01*
X63259Y96251D01*
X63354Y96313D01*
X63447Y96378D01*
X63537Y96446D01*
X63625Y96517D01*
X63711Y96592D01*
X63794Y96669D01*
X63874Y96749D01*
X63951Y96832D01*
X64026Y96918D01*
X64097Y97006D01*
X64165Y97096D01*
X64230Y97189D01*
X64292Y97284D01*
X64350Y97381D01*
X64405Y97480D01*
X64456Y97581D01*
X64504Y97684D01*
X64549Y97788D01*
X64589Y97894D01*
X64626Y98001D01*
X64659Y98109D01*
X64689Y98219D01*
X64714Y98329D01*
X64736Y98440D01*
X64753Y98552D01*
X64767Y98665D01*
X64777Y98778D01*
X64783Y98891D01*
X64785Y99004D01*
X64783Y99117D01*
X64777Y99230D01*
X64767Y99343D01*
X64753Y99456D01*
X64736Y99568D01*
X64714Y99679D01*
X64689Y99789D01*
X64659Y99899D01*
X64626Y100007D01*
X64589Y100114D01*
X64549Y100220D01*
X64504Y100324D01*
X64456Y100427D01*
X64405Y100528D01*
X64350Y100627D01*
X64292Y100724D01*
X64230Y100819D01*
X64165Y100912D01*
X64097Y101002D01*
X64026Y101090D01*
X63951Y101176D01*
X63874Y101259D01*
X63794Y101339D01*
X63711Y101416D01*
X63625Y101491D01*
X63537Y101562D01*
X63447Y101630D01*
X63354Y101695D01*
X63259Y101757D01*
X63162Y101815D01*
X63063Y101870D01*
X62962Y101921D01*
X62859Y101969D01*
X62755Y102014D01*
X62649Y102054D01*
X62542Y102091D01*
X62434Y102124D01*
X62324Y102154D01*
X62214Y102179D01*
X62103Y102201D01*
X61991Y102218D01*
X61878Y102232D01*
X61765Y102242D01*
X61652Y102248D01*
X61539Y102250D01*
X62188Y107442D02*
X58293Y107442D01*
X62188Y107442D02*
X62289Y107440D01*
X62389Y107434D01*
X62489Y107424D01*
X62589Y107411D01*
X62688Y107393D01*
X62787Y107372D01*
X62884Y107347D01*
X62981Y107318D01*
X63076Y107285D01*
X63170Y107249D01*
X63262Y107209D01*
X63353Y107166D01*
X63442Y107119D01*
X63529Y107069D01*
X63615Y107015D01*
X63698Y106958D01*
X63778Y106898D01*
X63857Y106835D01*
X63933Y106768D01*
X64006Y106699D01*
X64076Y106627D01*
X64144Y106553D01*
X64209Y106476D01*
X64270Y106396D01*
X64329Y106314D01*
X64384Y106230D01*
X64436Y106144D01*
X64485Y106056D01*
X64530Y105966D01*
X64572Y105874D01*
X64610Y105781D01*
X64644Y105686D01*
X64675Y105591D01*
X64702Y105494D01*
X64725Y105396D01*
X64745Y105297D01*
X64760Y105197D01*
X64772Y105097D01*
X64780Y104997D01*
X64784Y104896D01*
X64784Y104796D01*
X64780Y104695D01*
X64772Y104595D01*
X64760Y104495D01*
X64745Y104395D01*
X64725Y104296D01*
X64702Y104198D01*
X64675Y104101D01*
X64644Y104006D01*
X64610Y103911D01*
X64572Y103818D01*
X64530Y103726D01*
X64485Y103636D01*
X64436Y103548D01*
X64384Y103462D01*
X64329Y103378D01*
X64270Y103296D01*
X64209Y103216D01*
X64144Y103139D01*
X64076Y103065D01*
X64006Y102993D01*
X63933Y102924D01*
X63857Y102857D01*
X63778Y102794D01*
X63698Y102734D01*
X63615Y102677D01*
X63529Y102623D01*
X63442Y102573D01*
X63353Y102526D01*
X63262Y102483D01*
X63170Y102443D01*
X63076Y102407D01*
X62981Y102374D01*
X62884Y102345D01*
X62787Y102320D01*
X62688Y102299D01*
X62589Y102281D01*
X62489Y102268D01*
X62389Y102258D01*
X62289Y102252D01*
X62188Y102250D01*
X62188Y102249D02*
X59591Y102249D01*
X35433Y222758D02*
X35433Y234442D01*
X38679Y234442D01*
X38792Y234440D01*
X38905Y234434D01*
X39018Y234424D01*
X39131Y234410D01*
X39243Y234393D01*
X39354Y234371D01*
X39464Y234346D01*
X39574Y234316D01*
X39682Y234283D01*
X39789Y234246D01*
X39895Y234206D01*
X39999Y234161D01*
X40102Y234113D01*
X40203Y234062D01*
X40302Y234007D01*
X40399Y233949D01*
X40494Y233887D01*
X40587Y233822D01*
X40677Y233754D01*
X40765Y233683D01*
X40851Y233608D01*
X40934Y233531D01*
X41014Y233451D01*
X41091Y233368D01*
X41166Y233282D01*
X41237Y233194D01*
X41305Y233104D01*
X41370Y233011D01*
X41432Y232916D01*
X41490Y232819D01*
X41545Y232720D01*
X41596Y232619D01*
X41644Y232516D01*
X41689Y232412D01*
X41729Y232306D01*
X41766Y232199D01*
X41799Y232091D01*
X41829Y231981D01*
X41854Y231871D01*
X41876Y231760D01*
X41893Y231648D01*
X41907Y231535D01*
X41917Y231422D01*
X41923Y231309D01*
X41925Y231196D01*
X41924Y231196D02*
X41924Y226004D01*
X41925Y226004D02*
X41923Y225891D01*
X41917Y225778D01*
X41907Y225665D01*
X41893Y225552D01*
X41876Y225440D01*
X41854Y225329D01*
X41829Y225219D01*
X41799Y225109D01*
X41766Y225001D01*
X41729Y224894D01*
X41689Y224788D01*
X41644Y224684D01*
X41596Y224581D01*
X41545Y224480D01*
X41490Y224381D01*
X41432Y224284D01*
X41370Y224189D01*
X41305Y224096D01*
X41237Y224006D01*
X41166Y223918D01*
X41091Y223832D01*
X41014Y223749D01*
X40934Y223669D01*
X40851Y223592D01*
X40765Y223517D01*
X40677Y223446D01*
X40587Y223378D01*
X40494Y223313D01*
X40399Y223251D01*
X40302Y223193D01*
X40203Y223138D01*
X40102Y223087D01*
X39999Y223039D01*
X39895Y222994D01*
X39789Y222954D01*
X39682Y222917D01*
X39574Y222884D01*
X39464Y222854D01*
X39354Y222829D01*
X39243Y222807D01*
X39131Y222790D01*
X39018Y222776D01*
X38905Y222766D01*
X38792Y222760D01*
X38679Y222758D01*
X35433Y222758D01*
X47244Y228600D02*
X47247Y228830D01*
X47255Y229060D01*
X47269Y229289D01*
X47288Y229518D01*
X47313Y229747D01*
X47343Y229974D01*
X47378Y230202D01*
X47419Y230428D01*
X47465Y230653D01*
X47517Y230877D01*
X47574Y231099D01*
X47636Y231321D01*
X47704Y231540D01*
X47777Y231758D01*
X47855Y231975D01*
X47938Y232189D01*
X48026Y232401D01*
X48119Y232611D01*
X48218Y232819D01*
X48251Y232909D01*
X48287Y232998D01*
X48327Y233086D01*
X48371Y233171D01*
X48418Y233255D01*
X48468Y233337D01*
X48522Y233417D01*
X48578Y233494D01*
X48638Y233570D01*
X48701Y233643D01*
X48766Y233713D01*
X48835Y233781D01*
X48906Y233845D01*
X48979Y233907D01*
X49055Y233966D01*
X49133Y234022D01*
X49214Y234075D01*
X49296Y234124D01*
X49380Y234170D01*
X49467Y234213D01*
X49554Y234252D01*
X49644Y234288D01*
X49734Y234320D01*
X49826Y234348D01*
X49919Y234373D01*
X50013Y234394D01*
X50107Y234411D01*
X50202Y234425D01*
X50298Y234434D01*
X50394Y234440D01*
X50490Y234442D01*
X50586Y234440D01*
X50682Y234434D01*
X50778Y234425D01*
X50873Y234411D01*
X50967Y234394D01*
X51061Y234373D01*
X51154Y234348D01*
X51246Y234320D01*
X51336Y234288D01*
X51426Y234252D01*
X51513Y234213D01*
X51600Y234170D01*
X51684Y234124D01*
X51766Y234075D01*
X51847Y234022D01*
X51925Y233966D01*
X52001Y233907D01*
X52074Y233845D01*
X52145Y233781D01*
X52214Y233713D01*
X52279Y233643D01*
X52342Y233570D01*
X52402Y233494D01*
X52458Y233417D01*
X52512Y233337D01*
X52562Y233255D01*
X52609Y233171D01*
X52653Y233086D01*
X52693Y232998D01*
X52729Y232909D01*
X52762Y232819D01*
X52861Y232612D01*
X52954Y232402D01*
X53042Y232189D01*
X53125Y231975D01*
X53203Y231759D01*
X53276Y231541D01*
X53344Y231321D01*
X53406Y231100D01*
X53463Y230877D01*
X53515Y230653D01*
X53561Y230428D01*
X53602Y230202D01*
X53637Y229975D01*
X53667Y229747D01*
X53692Y229518D01*
X53711Y229289D01*
X53725Y229060D01*
X53733Y228830D01*
X53736Y228600D01*
X47244Y228600D02*
X47247Y228370D01*
X47255Y228140D01*
X47269Y227911D01*
X47288Y227682D01*
X47313Y227453D01*
X47343Y227225D01*
X47378Y226998D01*
X47419Y226772D01*
X47465Y226547D01*
X47517Y226323D01*
X47574Y226100D01*
X47636Y225879D01*
X47704Y225659D01*
X47777Y225441D01*
X47855Y225225D01*
X47938Y225011D01*
X48026Y224799D01*
X48119Y224588D01*
X48218Y224381D01*
X48251Y224291D01*
X48287Y224202D01*
X48328Y224114D01*
X48371Y224029D01*
X48418Y223945D01*
X48468Y223863D01*
X48522Y223783D01*
X48578Y223706D01*
X48638Y223630D01*
X48701Y223557D01*
X48766Y223487D01*
X48835Y223419D01*
X48906Y223355D01*
X48979Y223293D01*
X49055Y223234D01*
X49133Y223178D01*
X49214Y223125D01*
X49296Y223076D01*
X49380Y223030D01*
X49467Y222987D01*
X49554Y222948D01*
X49644Y222912D01*
X49734Y222880D01*
X49826Y222852D01*
X49919Y222827D01*
X50013Y222806D01*
X50107Y222789D01*
X50202Y222775D01*
X50298Y222766D01*
X50394Y222760D01*
X50490Y222758D01*
X52761Y224381D02*
X52860Y224588D01*
X52953Y224799D01*
X53041Y225011D01*
X53124Y225225D01*
X53202Y225441D01*
X53275Y225659D01*
X53343Y225879D01*
X53405Y226100D01*
X53462Y226323D01*
X53514Y226547D01*
X53560Y226772D01*
X53601Y226998D01*
X53636Y227225D01*
X53666Y227453D01*
X53691Y227682D01*
X53710Y227911D01*
X53724Y228140D01*
X53732Y228370D01*
X53735Y228600D01*
X52762Y224381D02*
X52729Y224291D01*
X52693Y224202D01*
X52653Y224114D01*
X52609Y224029D01*
X52562Y223945D01*
X52512Y223863D01*
X52458Y223783D01*
X52402Y223706D01*
X52342Y223630D01*
X52279Y223557D01*
X52214Y223487D01*
X52145Y223419D01*
X52074Y223355D01*
X52001Y223293D01*
X51925Y223234D01*
X51847Y223178D01*
X51766Y223125D01*
X51684Y223076D01*
X51600Y223030D01*
X51513Y222987D01*
X51426Y222948D01*
X51336Y222912D01*
X51246Y222880D01*
X51154Y222852D01*
X51061Y222827D01*
X50967Y222806D01*
X50873Y222789D01*
X50778Y222775D01*
X50682Y222766D01*
X50586Y222760D01*
X50490Y222758D01*
X47893Y225354D02*
X53086Y231846D01*
X35433Y248158D02*
X39328Y259842D01*
X43222Y248158D01*
X42249Y251079D02*
X36407Y251079D01*
X47513Y254000D02*
X47516Y254230D01*
X47524Y254460D01*
X47538Y254689D01*
X47557Y254918D01*
X47582Y255147D01*
X47612Y255374D01*
X47647Y255602D01*
X47688Y255828D01*
X47734Y256053D01*
X47786Y256277D01*
X47843Y256499D01*
X47905Y256721D01*
X47973Y256940D01*
X48046Y257158D01*
X48124Y257375D01*
X48207Y257589D01*
X48295Y257801D01*
X48388Y258011D01*
X48487Y258219D01*
X48486Y258219D02*
X48519Y258309D01*
X48555Y258398D01*
X48595Y258486D01*
X48639Y258571D01*
X48686Y258655D01*
X48736Y258737D01*
X48790Y258817D01*
X48846Y258894D01*
X48906Y258970D01*
X48969Y259043D01*
X49034Y259113D01*
X49103Y259181D01*
X49174Y259245D01*
X49247Y259307D01*
X49323Y259366D01*
X49401Y259422D01*
X49482Y259475D01*
X49564Y259524D01*
X49648Y259570D01*
X49735Y259613D01*
X49822Y259652D01*
X49912Y259688D01*
X50002Y259720D01*
X50094Y259748D01*
X50187Y259773D01*
X50281Y259794D01*
X50375Y259811D01*
X50470Y259825D01*
X50566Y259834D01*
X50662Y259840D01*
X50758Y259842D01*
X50854Y259840D01*
X50950Y259834D01*
X51046Y259825D01*
X51141Y259811D01*
X51235Y259794D01*
X51329Y259773D01*
X51422Y259748D01*
X51514Y259720D01*
X51604Y259688D01*
X51694Y259652D01*
X51781Y259613D01*
X51868Y259570D01*
X51952Y259524D01*
X52034Y259475D01*
X52115Y259422D01*
X52193Y259366D01*
X52269Y259307D01*
X52342Y259245D01*
X52413Y259181D01*
X52482Y259113D01*
X52547Y259043D01*
X52610Y258970D01*
X52670Y258894D01*
X52726Y258817D01*
X52780Y258737D01*
X52830Y258655D01*
X52877Y258571D01*
X52921Y258486D01*
X52961Y258398D01*
X52997Y258309D01*
X53030Y258219D01*
X53129Y258012D01*
X53222Y257802D01*
X53310Y257589D01*
X53393Y257375D01*
X53471Y257159D01*
X53544Y256941D01*
X53612Y256721D01*
X53674Y256500D01*
X53731Y256277D01*
X53783Y256053D01*
X53829Y255828D01*
X53870Y255602D01*
X53905Y255375D01*
X53935Y255147D01*
X53960Y254918D01*
X53979Y254689D01*
X53993Y254460D01*
X54001Y254230D01*
X54004Y254000D01*
X47512Y254000D02*
X47515Y253770D01*
X47523Y253540D01*
X47537Y253311D01*
X47556Y253082D01*
X47581Y252853D01*
X47611Y252625D01*
X47646Y252398D01*
X47687Y252172D01*
X47733Y251947D01*
X47785Y251723D01*
X47842Y251500D01*
X47904Y251279D01*
X47972Y251059D01*
X48045Y250841D01*
X48123Y250625D01*
X48206Y250411D01*
X48294Y250199D01*
X48387Y249988D01*
X48486Y249781D01*
X48519Y249691D01*
X48555Y249602D01*
X48596Y249514D01*
X48639Y249429D01*
X48686Y249345D01*
X48736Y249263D01*
X48790Y249183D01*
X48846Y249106D01*
X48906Y249030D01*
X48969Y248957D01*
X49034Y248887D01*
X49103Y248819D01*
X49174Y248755D01*
X49247Y248693D01*
X49323Y248634D01*
X49401Y248578D01*
X49482Y248525D01*
X49564Y248476D01*
X49648Y248430D01*
X49735Y248387D01*
X49822Y248348D01*
X49912Y248312D01*
X50002Y248280D01*
X50094Y248252D01*
X50187Y248227D01*
X50281Y248206D01*
X50375Y248189D01*
X50470Y248175D01*
X50566Y248166D01*
X50662Y248160D01*
X50758Y248158D01*
X53029Y249781D02*
X53128Y249988D01*
X53221Y250199D01*
X53309Y250411D01*
X53392Y250625D01*
X53470Y250841D01*
X53543Y251059D01*
X53611Y251279D01*
X53673Y251500D01*
X53730Y251723D01*
X53782Y251947D01*
X53828Y252172D01*
X53869Y252398D01*
X53904Y252625D01*
X53934Y252853D01*
X53959Y253082D01*
X53978Y253311D01*
X53992Y253540D01*
X54000Y253770D01*
X54003Y254000D01*
X53030Y249781D02*
X52997Y249691D01*
X52961Y249602D01*
X52921Y249514D01*
X52877Y249429D01*
X52830Y249345D01*
X52780Y249263D01*
X52726Y249183D01*
X52670Y249106D01*
X52610Y249030D01*
X52547Y248957D01*
X52482Y248887D01*
X52413Y248819D01*
X52342Y248755D01*
X52269Y248693D01*
X52193Y248634D01*
X52115Y248578D01*
X52034Y248525D01*
X51952Y248476D01*
X51868Y248430D01*
X51781Y248387D01*
X51694Y248348D01*
X51604Y248312D01*
X51514Y248280D01*
X51422Y248252D01*
X51329Y248227D01*
X51235Y248206D01*
X51141Y248189D01*
X51046Y248175D01*
X50950Y248166D01*
X50854Y248160D01*
X50758Y248158D01*
X48161Y250754D02*
X53354Y257246D01*
X35433Y273558D02*
X35433Y285242D01*
X38679Y285242D01*
X38792Y285240D01*
X38905Y285234D01*
X39018Y285224D01*
X39131Y285210D01*
X39243Y285193D01*
X39354Y285171D01*
X39464Y285146D01*
X39574Y285116D01*
X39682Y285083D01*
X39789Y285046D01*
X39895Y285006D01*
X39999Y284961D01*
X40102Y284913D01*
X40203Y284862D01*
X40302Y284807D01*
X40399Y284749D01*
X40494Y284687D01*
X40587Y284622D01*
X40677Y284554D01*
X40765Y284483D01*
X40851Y284408D01*
X40934Y284331D01*
X41014Y284251D01*
X41091Y284168D01*
X41166Y284082D01*
X41237Y283994D01*
X41305Y283904D01*
X41370Y283811D01*
X41432Y283716D01*
X41490Y283619D01*
X41545Y283520D01*
X41596Y283419D01*
X41644Y283316D01*
X41689Y283212D01*
X41729Y283106D01*
X41766Y282999D01*
X41799Y282891D01*
X41829Y282781D01*
X41854Y282671D01*
X41876Y282560D01*
X41893Y282448D01*
X41907Y282335D01*
X41917Y282222D01*
X41923Y282109D01*
X41925Y281996D01*
X41923Y281883D01*
X41917Y281770D01*
X41907Y281657D01*
X41893Y281544D01*
X41876Y281432D01*
X41854Y281321D01*
X41829Y281211D01*
X41799Y281101D01*
X41766Y280993D01*
X41729Y280886D01*
X41689Y280780D01*
X41644Y280676D01*
X41596Y280573D01*
X41545Y280472D01*
X41490Y280373D01*
X41432Y280276D01*
X41370Y280181D01*
X41305Y280088D01*
X41237Y279998D01*
X41166Y279910D01*
X41091Y279824D01*
X41014Y279741D01*
X40934Y279661D01*
X40851Y279584D01*
X40765Y279509D01*
X40677Y279438D01*
X40587Y279370D01*
X40494Y279305D01*
X40399Y279243D01*
X40302Y279185D01*
X40203Y279130D01*
X40102Y279079D01*
X39999Y279031D01*
X39895Y278986D01*
X39789Y278946D01*
X39682Y278909D01*
X39574Y278876D01*
X39464Y278846D01*
X39354Y278821D01*
X39243Y278799D01*
X39131Y278782D01*
X39018Y278768D01*
X38905Y278758D01*
X38792Y278752D01*
X38679Y278750D01*
X38679Y278751D02*
X35433Y278751D01*
X39328Y278751D02*
X41924Y273558D01*
X50303Y273558D02*
X50402Y273560D01*
X50502Y273566D01*
X50601Y273575D01*
X50699Y273588D01*
X50797Y273605D01*
X50895Y273626D01*
X50991Y273651D01*
X51086Y273679D01*
X51180Y273711D01*
X51273Y273746D01*
X51365Y273785D01*
X51455Y273828D01*
X51543Y273873D01*
X51630Y273923D01*
X51714Y273975D01*
X51797Y274031D01*
X51877Y274089D01*
X51955Y274151D01*
X52030Y274216D01*
X52103Y274284D01*
X52173Y274354D01*
X52241Y274427D01*
X52306Y274502D01*
X52368Y274580D01*
X52426Y274660D01*
X52482Y274743D01*
X52534Y274827D01*
X52584Y274914D01*
X52629Y275002D01*
X52672Y275092D01*
X52711Y275184D01*
X52746Y275277D01*
X52778Y275371D01*
X52806Y275466D01*
X52831Y275562D01*
X52852Y275660D01*
X52869Y275758D01*
X52882Y275856D01*
X52891Y275955D01*
X52897Y276055D01*
X52899Y276154D01*
X50303Y273558D02*
X50159Y273560D01*
X50014Y273566D01*
X49870Y273575D01*
X49727Y273588D01*
X49583Y273605D01*
X49440Y273626D01*
X49298Y273651D01*
X49157Y273679D01*
X49016Y273711D01*
X48876Y273747D01*
X48737Y273786D01*
X48599Y273829D01*
X48463Y273876D01*
X48327Y273926D01*
X48193Y273980D01*
X48061Y274037D01*
X47930Y274098D01*
X47801Y274162D01*
X47673Y274230D01*
X47547Y274300D01*
X47423Y274375D01*
X47302Y274452D01*
X47182Y274533D01*
X47064Y274616D01*
X46949Y274703D01*
X46836Y274793D01*
X46725Y274886D01*
X46617Y274981D01*
X46511Y275080D01*
X46408Y275181D01*
X46733Y282646D02*
X46735Y282745D01*
X46741Y282845D01*
X46750Y282944D01*
X46763Y283042D01*
X46780Y283140D01*
X46801Y283238D01*
X46826Y283334D01*
X46854Y283429D01*
X46886Y283523D01*
X46921Y283616D01*
X46960Y283708D01*
X47003Y283798D01*
X47048Y283886D01*
X47098Y283973D01*
X47150Y284057D01*
X47206Y284140D01*
X47264Y284220D01*
X47326Y284298D01*
X47391Y284373D01*
X47459Y284446D01*
X47529Y284516D01*
X47602Y284584D01*
X47677Y284649D01*
X47755Y284711D01*
X47835Y284769D01*
X47918Y284825D01*
X48002Y284877D01*
X48089Y284927D01*
X48177Y284972D01*
X48267Y285015D01*
X48359Y285054D01*
X48452Y285089D01*
X48546Y285121D01*
X48641Y285149D01*
X48738Y285174D01*
X48835Y285195D01*
X48933Y285212D01*
X49031Y285225D01*
X49130Y285234D01*
X49230Y285240D01*
X49329Y285242D01*
X49465Y285240D01*
X49601Y285234D01*
X49737Y285225D01*
X49873Y285212D01*
X50008Y285194D01*
X50142Y285174D01*
X50276Y285149D01*
X50410Y285121D01*
X50542Y285088D01*
X50673Y285053D01*
X50804Y285013D01*
X50933Y284970D01*
X51061Y284924D01*
X51187Y284873D01*
X51313Y284820D01*
X51436Y284762D01*
X51558Y284702D01*
X51678Y284638D01*
X51797Y284570D01*
X51913Y284500D01*
X52027Y284426D01*
X52140Y284349D01*
X52250Y284268D01*
X48031Y280374D02*
X47945Y280427D01*
X47861Y280484D01*
X47779Y280543D01*
X47699Y280606D01*
X47622Y280672D01*
X47547Y280740D01*
X47475Y280812D01*
X47406Y280886D01*
X47340Y280963D01*
X47277Y281042D01*
X47217Y281124D01*
X47160Y281208D01*
X47106Y281294D01*
X47056Y281382D01*
X47009Y281472D01*
X46965Y281563D01*
X46926Y281657D01*
X46889Y281751D01*
X46857Y281847D01*
X46828Y281945D01*
X46803Y282043D01*
X46782Y282142D01*
X46764Y282242D01*
X46751Y282342D01*
X46741Y282443D01*
X46735Y282545D01*
X46733Y282646D01*
X51601Y278426D02*
X51687Y278373D01*
X51771Y278316D01*
X51853Y278257D01*
X51933Y278194D01*
X52010Y278128D01*
X52085Y278060D01*
X52157Y277988D01*
X52226Y277914D01*
X52292Y277837D01*
X52355Y277758D01*
X52415Y277676D01*
X52472Y277592D01*
X52526Y277506D01*
X52576Y277418D01*
X52623Y277328D01*
X52667Y277237D01*
X52706Y277143D01*
X52743Y277049D01*
X52775Y276953D01*
X52804Y276855D01*
X52829Y276757D01*
X52850Y276658D01*
X52868Y276558D01*
X52881Y276458D01*
X52891Y276357D01*
X52897Y276255D01*
X52899Y276154D01*
X51601Y278426D02*
X48031Y280374D01*
X59941Y285242D02*
X59941Y273558D01*
X56695Y285242D02*
X63186Y285242D01*
D14*
X250825Y215900D02*
X257175Y209550D01*
X257175Y196850D02*
X250825Y190500D01*
X257175Y184150D01*
X257175Y171450D02*
X250825Y165100D01*
X257175Y158750D01*
X257175Y146050D02*
X250825Y139700D01*
X257175Y133350D01*
X257175Y120650D02*
X250825Y114300D01*
X231775Y209550D02*
X238125Y215900D01*
X231775Y196850D02*
X238125Y190500D01*
X231775Y184150D01*
X231775Y171450D02*
X238125Y165100D01*
X231775Y158750D01*
X231775Y146050D02*
X238125Y139700D01*
X231775Y133350D01*
X231775Y120650D02*
X238125Y114300D01*
X231775Y107950D01*
X231775Y95250D02*
X238125Y88900D01*
X250825Y88900D01*
X257175Y95250D01*
X257175Y107950D02*
X250825Y114300D01*
D16*
X210354Y273558D02*
X210354Y285242D01*
X207109Y285242D02*
X213600Y285242D01*
X224917Y285242D02*
X217128Y273558D01*
X224917Y273558D02*
X217128Y285242D01*
X206420Y259842D02*
X206420Y248158D01*
X206420Y259842D02*
X209666Y259842D01*
X209779Y259840D01*
X209892Y259834D01*
X210005Y259824D01*
X210118Y259810D01*
X210230Y259793D01*
X210341Y259771D01*
X210451Y259746D01*
X210561Y259716D01*
X210669Y259683D01*
X210776Y259646D01*
X210882Y259606D01*
X210986Y259561D01*
X211089Y259513D01*
X211190Y259462D01*
X211289Y259407D01*
X211386Y259349D01*
X211481Y259287D01*
X211574Y259222D01*
X211664Y259154D01*
X211752Y259083D01*
X211838Y259008D01*
X211921Y258931D01*
X212001Y258851D01*
X212078Y258768D01*
X212153Y258682D01*
X212224Y258594D01*
X212292Y258504D01*
X212357Y258411D01*
X212419Y258316D01*
X212477Y258219D01*
X212532Y258120D01*
X212583Y258019D01*
X212631Y257916D01*
X212676Y257812D01*
X212716Y257706D01*
X212753Y257599D01*
X212786Y257491D01*
X212816Y257381D01*
X212841Y257271D01*
X212863Y257160D01*
X212880Y257048D01*
X212894Y256935D01*
X212904Y256822D01*
X212910Y256709D01*
X212912Y256596D01*
X212910Y256483D01*
X212904Y256370D01*
X212894Y256257D01*
X212880Y256144D01*
X212863Y256032D01*
X212841Y255921D01*
X212816Y255811D01*
X212786Y255701D01*
X212753Y255593D01*
X212716Y255486D01*
X212676Y255380D01*
X212631Y255276D01*
X212583Y255173D01*
X212532Y255072D01*
X212477Y254973D01*
X212419Y254876D01*
X212357Y254781D01*
X212292Y254688D01*
X212224Y254598D01*
X212153Y254510D01*
X212078Y254424D01*
X212001Y254341D01*
X211921Y254261D01*
X211838Y254184D01*
X211752Y254109D01*
X211664Y254038D01*
X211574Y253970D01*
X211481Y253905D01*
X211386Y253843D01*
X211289Y253785D01*
X211190Y253730D01*
X211089Y253679D01*
X210986Y253631D01*
X210882Y253586D01*
X210776Y253546D01*
X210669Y253509D01*
X210561Y253476D01*
X210451Y253446D01*
X210341Y253421D01*
X210230Y253399D01*
X210118Y253382D01*
X210005Y253368D01*
X209892Y253358D01*
X209779Y253352D01*
X209666Y253350D01*
X209666Y253351D02*
X206420Y253351D01*
X210315Y253351D02*
X212912Y248158D01*
X217128Y248158D02*
X224917Y259842D01*
X217128Y259842D02*
X224917Y248158D01*
X206615Y234442D02*
X206615Y222758D01*
X206615Y234442D02*
X209860Y234442D01*
X209973Y234440D01*
X210086Y234434D01*
X210199Y234424D01*
X210312Y234410D01*
X210424Y234393D01*
X210535Y234371D01*
X210645Y234346D01*
X210755Y234316D01*
X210863Y234283D01*
X210970Y234246D01*
X211076Y234206D01*
X211180Y234161D01*
X211283Y234113D01*
X211384Y234062D01*
X211483Y234007D01*
X211580Y233949D01*
X211675Y233887D01*
X211768Y233822D01*
X211858Y233754D01*
X211946Y233683D01*
X212032Y233608D01*
X212115Y233531D01*
X212195Y233451D01*
X212272Y233368D01*
X212347Y233282D01*
X212418Y233194D01*
X212486Y233104D01*
X212551Y233011D01*
X212613Y232916D01*
X212671Y232819D01*
X212726Y232720D01*
X212777Y232619D01*
X212825Y232516D01*
X212870Y232412D01*
X212910Y232306D01*
X212947Y232199D01*
X212980Y232091D01*
X213010Y231981D01*
X213035Y231871D01*
X213057Y231760D01*
X213074Y231648D01*
X213088Y231535D01*
X213098Y231422D01*
X213104Y231309D01*
X213106Y231196D01*
X213106Y226004D01*
X213107Y226004D02*
X213105Y225891D01*
X213099Y225778D01*
X213089Y225665D01*
X213075Y225552D01*
X213058Y225440D01*
X213036Y225329D01*
X213011Y225219D01*
X212981Y225109D01*
X212948Y225001D01*
X212911Y224894D01*
X212871Y224788D01*
X212826Y224684D01*
X212778Y224581D01*
X212727Y224480D01*
X212672Y224381D01*
X212614Y224284D01*
X212552Y224189D01*
X212487Y224096D01*
X212419Y224006D01*
X212348Y223918D01*
X212273Y223832D01*
X212196Y223749D01*
X212116Y223669D01*
X212033Y223592D01*
X211947Y223517D01*
X211859Y223446D01*
X211769Y223378D01*
X211676Y223313D01*
X211581Y223251D01*
X211484Y223193D01*
X211385Y223138D01*
X211284Y223087D01*
X211181Y223039D01*
X211077Y222994D01*
X210971Y222954D01*
X210864Y222917D01*
X210756Y222884D01*
X210646Y222854D01*
X210536Y222829D01*
X210425Y222807D01*
X210313Y222790D01*
X210200Y222776D01*
X210087Y222766D01*
X209974Y222760D01*
X209861Y222758D01*
X209860Y222758D02*
X206615Y222758D01*
X218426Y231846D02*
X221671Y234442D01*
X221671Y222758D01*
X218426Y222758D02*
X224917Y222758D01*
X206615Y209042D02*
X206615Y197358D01*
X206615Y209042D02*
X209860Y209042D01*
X209973Y209040D01*
X210086Y209034D01*
X210199Y209024D01*
X210312Y209010D01*
X210424Y208993D01*
X210535Y208971D01*
X210645Y208946D01*
X210755Y208916D01*
X210863Y208883D01*
X210970Y208846D01*
X211076Y208806D01*
X211180Y208761D01*
X211283Y208713D01*
X211384Y208662D01*
X211483Y208607D01*
X211580Y208549D01*
X211675Y208487D01*
X211768Y208422D01*
X211858Y208354D01*
X211946Y208283D01*
X212032Y208208D01*
X212115Y208131D01*
X212195Y208051D01*
X212272Y207968D01*
X212347Y207882D01*
X212418Y207794D01*
X212486Y207704D01*
X212551Y207611D01*
X212613Y207516D01*
X212671Y207419D01*
X212726Y207320D01*
X212777Y207219D01*
X212825Y207116D01*
X212870Y207012D01*
X212910Y206906D01*
X212947Y206799D01*
X212980Y206691D01*
X213010Y206581D01*
X213035Y206471D01*
X213057Y206360D01*
X213074Y206248D01*
X213088Y206135D01*
X213098Y206022D01*
X213104Y205909D01*
X213106Y205796D01*
X213106Y200604D01*
X213107Y200604D02*
X213105Y200491D01*
X213099Y200378D01*
X213089Y200265D01*
X213075Y200152D01*
X213058Y200040D01*
X213036Y199929D01*
X213011Y199819D01*
X212981Y199709D01*
X212948Y199601D01*
X212911Y199494D01*
X212871Y199388D01*
X212826Y199284D01*
X212778Y199181D01*
X212727Y199080D01*
X212672Y198981D01*
X212614Y198884D01*
X212552Y198789D01*
X212487Y198696D01*
X212419Y198606D01*
X212348Y198518D01*
X212273Y198432D01*
X212196Y198349D01*
X212116Y198269D01*
X212033Y198192D01*
X211947Y198117D01*
X211859Y198046D01*
X211769Y197978D01*
X211676Y197913D01*
X211581Y197851D01*
X211484Y197793D01*
X211385Y197738D01*
X211284Y197687D01*
X211181Y197639D01*
X211077Y197594D01*
X210971Y197554D01*
X210864Y197517D01*
X210756Y197484D01*
X210646Y197454D01*
X210536Y197429D01*
X210425Y197407D01*
X210313Y197390D01*
X210200Y197376D01*
X210087Y197366D01*
X209974Y197360D01*
X209861Y197358D01*
X209860Y197358D02*
X206615Y197358D01*
X221996Y209042D02*
X222103Y209040D01*
X222209Y209034D01*
X222315Y209024D01*
X222421Y209011D01*
X222527Y208993D01*
X222631Y208972D01*
X222735Y208947D01*
X222838Y208918D01*
X222939Y208886D01*
X223039Y208849D01*
X223138Y208809D01*
X223236Y208766D01*
X223332Y208719D01*
X223426Y208668D01*
X223518Y208614D01*
X223608Y208557D01*
X223696Y208497D01*
X223781Y208433D01*
X223864Y208366D01*
X223945Y208296D01*
X224023Y208224D01*
X224099Y208148D01*
X224171Y208070D01*
X224241Y207989D01*
X224308Y207906D01*
X224372Y207821D01*
X224432Y207733D01*
X224489Y207643D01*
X224543Y207551D01*
X224594Y207457D01*
X224641Y207361D01*
X224684Y207263D01*
X224724Y207164D01*
X224761Y207064D01*
X224793Y206963D01*
X224822Y206860D01*
X224847Y206756D01*
X224868Y206652D01*
X224886Y206546D01*
X224899Y206440D01*
X224909Y206334D01*
X224915Y206228D01*
X224917Y206121D01*
X221996Y209042D02*
X221875Y209040D01*
X221754Y209034D01*
X221634Y209024D01*
X221513Y209011D01*
X221394Y208993D01*
X221274Y208972D01*
X221156Y208947D01*
X221039Y208918D01*
X220922Y208885D01*
X220807Y208849D01*
X220693Y208808D01*
X220580Y208765D01*
X220468Y208717D01*
X220359Y208666D01*
X220251Y208611D01*
X220144Y208553D01*
X220040Y208492D01*
X219938Y208427D01*
X219838Y208359D01*
X219740Y208288D01*
X219644Y208214D01*
X219551Y208137D01*
X219461Y208056D01*
X219373Y207973D01*
X219288Y207887D01*
X219205Y207798D01*
X219126Y207707D01*
X219049Y207613D01*
X218976Y207517D01*
X218906Y207419D01*
X218839Y207318D01*
X218775Y207215D01*
X218715Y207110D01*
X218658Y207003D01*
X218604Y206895D01*
X218554Y206785D01*
X218508Y206673D01*
X218465Y206560D01*
X218426Y206445D01*
X223944Y203849D02*
X224023Y203926D01*
X224099Y204007D01*
X224172Y204090D01*
X224242Y204175D01*
X224309Y204263D01*
X224373Y204353D01*
X224433Y204445D01*
X224490Y204540D01*
X224544Y204636D01*
X224595Y204734D01*
X224642Y204834D01*
X224686Y204936D01*
X224726Y205039D01*
X224762Y205143D01*
X224794Y205249D01*
X224823Y205355D01*
X224848Y205463D01*
X224870Y205571D01*
X224887Y205681D01*
X224901Y205790D01*
X224910Y205900D01*
X224916Y206011D01*
X224918Y206121D01*
X223943Y203849D02*
X218426Y197358D01*
X224917Y197358D01*
X206615Y183642D02*
X206615Y171958D01*
X206615Y183642D02*
X209860Y183642D01*
X209973Y183640D01*
X210086Y183634D01*
X210199Y183624D01*
X210312Y183610D01*
X210424Y183593D01*
X210535Y183571D01*
X210645Y183546D01*
X210755Y183516D01*
X210863Y183483D01*
X210970Y183446D01*
X211076Y183406D01*
X211180Y183361D01*
X211283Y183313D01*
X211384Y183262D01*
X211483Y183207D01*
X211580Y183149D01*
X211675Y183087D01*
X211768Y183022D01*
X211858Y182954D01*
X211946Y182883D01*
X212032Y182808D01*
X212115Y182731D01*
X212195Y182651D01*
X212272Y182568D01*
X212347Y182482D01*
X212418Y182394D01*
X212486Y182304D01*
X212551Y182211D01*
X212613Y182116D01*
X212671Y182019D01*
X212726Y181920D01*
X212777Y181819D01*
X212825Y181716D01*
X212870Y181612D01*
X212910Y181506D01*
X212947Y181399D01*
X212980Y181291D01*
X213010Y181181D01*
X213035Y181071D01*
X213057Y180960D01*
X213074Y180848D01*
X213088Y180735D01*
X213098Y180622D01*
X213104Y180509D01*
X213106Y180396D01*
X213106Y175204D01*
X213107Y175204D02*
X213105Y175091D01*
X213099Y174978D01*
X213089Y174865D01*
X213075Y174752D01*
X213058Y174640D01*
X213036Y174529D01*
X213011Y174419D01*
X212981Y174309D01*
X212948Y174201D01*
X212911Y174094D01*
X212871Y173988D01*
X212826Y173884D01*
X212778Y173781D01*
X212727Y173680D01*
X212672Y173581D01*
X212614Y173484D01*
X212552Y173389D01*
X212487Y173296D01*
X212419Y173206D01*
X212348Y173118D01*
X212273Y173032D01*
X212196Y172949D01*
X212116Y172869D01*
X212033Y172792D01*
X211947Y172717D01*
X211859Y172646D01*
X211769Y172578D01*
X211676Y172513D01*
X211581Y172451D01*
X211484Y172393D01*
X211385Y172338D01*
X211284Y172287D01*
X211181Y172239D01*
X211077Y172194D01*
X210971Y172154D01*
X210864Y172117D01*
X210756Y172084D01*
X210646Y172054D01*
X210536Y172029D01*
X210425Y172007D01*
X210313Y171990D01*
X210200Y171976D01*
X210087Y171966D01*
X209974Y171960D01*
X209861Y171958D01*
X209860Y171958D02*
X206615Y171958D01*
X218426Y171958D02*
X221671Y171958D01*
X221784Y171960D01*
X221897Y171966D01*
X222010Y171976D01*
X222123Y171990D01*
X222235Y172007D01*
X222346Y172029D01*
X222456Y172054D01*
X222566Y172084D01*
X222674Y172117D01*
X222781Y172154D01*
X222887Y172194D01*
X222991Y172239D01*
X223094Y172287D01*
X223195Y172338D01*
X223294Y172393D01*
X223391Y172451D01*
X223486Y172513D01*
X223579Y172578D01*
X223669Y172646D01*
X223757Y172717D01*
X223843Y172792D01*
X223926Y172869D01*
X224006Y172949D01*
X224083Y173032D01*
X224158Y173118D01*
X224229Y173206D01*
X224297Y173296D01*
X224362Y173389D01*
X224424Y173484D01*
X224482Y173581D01*
X224537Y173680D01*
X224588Y173781D01*
X224636Y173884D01*
X224681Y173988D01*
X224721Y174094D01*
X224758Y174201D01*
X224791Y174309D01*
X224821Y174419D01*
X224846Y174529D01*
X224868Y174640D01*
X224885Y174752D01*
X224899Y174865D01*
X224909Y174978D01*
X224915Y175091D01*
X224917Y175204D01*
X224915Y175317D01*
X224909Y175430D01*
X224899Y175543D01*
X224885Y175656D01*
X224868Y175768D01*
X224846Y175879D01*
X224821Y175989D01*
X224791Y176099D01*
X224758Y176207D01*
X224721Y176314D01*
X224681Y176420D01*
X224636Y176524D01*
X224588Y176627D01*
X224537Y176728D01*
X224482Y176827D01*
X224424Y176924D01*
X224362Y177019D01*
X224297Y177112D01*
X224229Y177202D01*
X224158Y177290D01*
X224083Y177376D01*
X224006Y177459D01*
X223926Y177539D01*
X223843Y177616D01*
X223757Y177691D01*
X223669Y177762D01*
X223579Y177830D01*
X223486Y177895D01*
X223391Y177957D01*
X223294Y178015D01*
X223195Y178070D01*
X223094Y178121D01*
X222991Y178169D01*
X222887Y178214D01*
X222781Y178254D01*
X222674Y178291D01*
X222566Y178324D01*
X222456Y178354D01*
X222346Y178379D01*
X222235Y178401D01*
X222123Y178418D01*
X222010Y178432D01*
X221897Y178442D01*
X221784Y178448D01*
X221671Y178450D01*
X222321Y183642D02*
X218426Y183642D01*
X222321Y183642D02*
X222422Y183640D01*
X222522Y183634D01*
X222622Y183624D01*
X222722Y183611D01*
X222821Y183593D01*
X222920Y183572D01*
X223017Y183547D01*
X223114Y183518D01*
X223209Y183485D01*
X223303Y183449D01*
X223395Y183409D01*
X223486Y183366D01*
X223575Y183319D01*
X223662Y183269D01*
X223748Y183215D01*
X223831Y183158D01*
X223911Y183098D01*
X223990Y183035D01*
X224066Y182968D01*
X224139Y182899D01*
X224209Y182827D01*
X224277Y182753D01*
X224342Y182676D01*
X224403Y182596D01*
X224462Y182514D01*
X224517Y182430D01*
X224569Y182344D01*
X224618Y182256D01*
X224663Y182166D01*
X224705Y182074D01*
X224743Y181981D01*
X224777Y181886D01*
X224808Y181791D01*
X224835Y181694D01*
X224858Y181596D01*
X224878Y181497D01*
X224893Y181397D01*
X224905Y181297D01*
X224913Y181197D01*
X224917Y181096D01*
X224917Y180996D01*
X224913Y180895D01*
X224905Y180795D01*
X224893Y180695D01*
X224878Y180595D01*
X224858Y180496D01*
X224835Y180398D01*
X224808Y180301D01*
X224777Y180206D01*
X224743Y180111D01*
X224705Y180018D01*
X224663Y179926D01*
X224618Y179836D01*
X224569Y179748D01*
X224517Y179662D01*
X224462Y179578D01*
X224403Y179496D01*
X224342Y179416D01*
X224277Y179339D01*
X224209Y179265D01*
X224139Y179193D01*
X224066Y179124D01*
X223990Y179057D01*
X223911Y178994D01*
X223831Y178934D01*
X223748Y178877D01*
X223662Y178823D01*
X223575Y178773D01*
X223486Y178726D01*
X223395Y178683D01*
X223303Y178643D01*
X223209Y178607D01*
X223114Y178574D01*
X223017Y178545D01*
X222920Y178520D01*
X222821Y178499D01*
X222722Y178481D01*
X222622Y178468D01*
X222522Y178458D01*
X222422Y178452D01*
X222321Y178450D01*
X222321Y178449D02*
X219724Y178449D01*
X206615Y158242D02*
X206615Y146558D01*
X206615Y158242D02*
X209860Y158242D01*
X209973Y158240D01*
X210086Y158234D01*
X210199Y158224D01*
X210312Y158210D01*
X210424Y158193D01*
X210535Y158171D01*
X210645Y158146D01*
X210755Y158116D01*
X210863Y158083D01*
X210970Y158046D01*
X211076Y158006D01*
X211180Y157961D01*
X211283Y157913D01*
X211384Y157862D01*
X211483Y157807D01*
X211580Y157749D01*
X211675Y157687D01*
X211768Y157622D01*
X211858Y157554D01*
X211946Y157483D01*
X212032Y157408D01*
X212115Y157331D01*
X212195Y157251D01*
X212272Y157168D01*
X212347Y157082D01*
X212418Y156994D01*
X212486Y156904D01*
X212551Y156811D01*
X212613Y156716D01*
X212671Y156619D01*
X212726Y156520D01*
X212777Y156419D01*
X212825Y156316D01*
X212870Y156212D01*
X212910Y156106D01*
X212947Y155999D01*
X212980Y155891D01*
X213010Y155781D01*
X213035Y155671D01*
X213057Y155560D01*
X213074Y155448D01*
X213088Y155335D01*
X213098Y155222D01*
X213104Y155109D01*
X213106Y154996D01*
X213106Y149804D01*
X213107Y149804D02*
X213105Y149691D01*
X213099Y149578D01*
X213089Y149465D01*
X213075Y149352D01*
X213058Y149240D01*
X213036Y149129D01*
X213011Y149019D01*
X212981Y148909D01*
X212948Y148801D01*
X212911Y148694D01*
X212871Y148588D01*
X212826Y148484D01*
X212778Y148381D01*
X212727Y148280D01*
X212672Y148181D01*
X212614Y148084D01*
X212552Y147989D01*
X212487Y147896D01*
X212419Y147806D01*
X212348Y147718D01*
X212273Y147632D01*
X212196Y147549D01*
X212116Y147469D01*
X212033Y147392D01*
X211947Y147317D01*
X211859Y147246D01*
X211769Y147178D01*
X211676Y147113D01*
X211581Y147051D01*
X211484Y146993D01*
X211385Y146938D01*
X211284Y146887D01*
X211181Y146839D01*
X211077Y146794D01*
X210971Y146754D01*
X210864Y146717D01*
X210756Y146684D01*
X210646Y146654D01*
X210536Y146629D01*
X210425Y146607D01*
X210313Y146590D01*
X210200Y146576D01*
X210087Y146566D01*
X209974Y146560D01*
X209861Y146558D01*
X209860Y146558D02*
X206615Y146558D01*
X218426Y149154D02*
X221022Y158242D01*
X218426Y149154D02*
X224917Y149154D01*
X222970Y151751D02*
X222970Y146558D01*
X200533Y127649D02*
X198586Y127649D01*
X200533Y127649D02*
X200533Y121158D01*
X196638Y121158D01*
X196539Y121160D01*
X196439Y121166D01*
X196340Y121175D01*
X196242Y121188D01*
X196144Y121205D01*
X196046Y121226D01*
X195950Y121251D01*
X195855Y121279D01*
X195761Y121311D01*
X195668Y121346D01*
X195576Y121385D01*
X195486Y121428D01*
X195398Y121473D01*
X195311Y121523D01*
X195227Y121575D01*
X195144Y121631D01*
X195064Y121689D01*
X194986Y121751D01*
X194911Y121816D01*
X194838Y121884D01*
X194768Y121954D01*
X194700Y122027D01*
X194635Y122102D01*
X194573Y122180D01*
X194515Y122260D01*
X194459Y122343D01*
X194407Y122427D01*
X194357Y122514D01*
X194312Y122602D01*
X194269Y122692D01*
X194230Y122784D01*
X194195Y122877D01*
X194163Y122971D01*
X194135Y123066D01*
X194110Y123162D01*
X194089Y123260D01*
X194072Y123358D01*
X194059Y123456D01*
X194050Y123555D01*
X194044Y123655D01*
X194042Y123754D01*
X194042Y130246D01*
X194044Y130345D01*
X194050Y130445D01*
X194059Y130544D01*
X194072Y130642D01*
X194089Y130740D01*
X194110Y130838D01*
X194135Y130934D01*
X194163Y131029D01*
X194195Y131123D01*
X194230Y131216D01*
X194269Y131308D01*
X194312Y131398D01*
X194357Y131486D01*
X194407Y131573D01*
X194459Y131657D01*
X194515Y131740D01*
X194573Y131820D01*
X194635Y131898D01*
X194700Y131973D01*
X194768Y132046D01*
X194838Y132116D01*
X194911Y132184D01*
X194986Y132249D01*
X195064Y132311D01*
X195144Y132369D01*
X195227Y132425D01*
X195311Y132477D01*
X195398Y132527D01*
X195486Y132572D01*
X195576Y132615D01*
X195668Y132654D01*
X195760Y132689D01*
X195855Y132721D01*
X195950Y132749D01*
X196046Y132774D01*
X196144Y132795D01*
X196242Y132812D01*
X196340Y132825D01*
X196439Y132834D01*
X196539Y132840D01*
X196638Y132842D01*
X200533Y132842D01*
X206234Y132842D02*
X206234Y121158D01*
X212725Y121158D02*
X206234Y132842D01*
X212725Y132842D02*
X212725Y121158D01*
X218426Y121158D02*
X218426Y132842D01*
X221671Y132842D01*
X221784Y132840D01*
X221897Y132834D01*
X222010Y132824D01*
X222123Y132810D01*
X222235Y132793D01*
X222346Y132771D01*
X222456Y132746D01*
X222566Y132716D01*
X222674Y132683D01*
X222781Y132646D01*
X222887Y132606D01*
X222991Y132561D01*
X223094Y132513D01*
X223195Y132462D01*
X223294Y132407D01*
X223391Y132349D01*
X223486Y132287D01*
X223579Y132222D01*
X223669Y132154D01*
X223757Y132083D01*
X223843Y132008D01*
X223926Y131931D01*
X224006Y131851D01*
X224083Y131768D01*
X224158Y131682D01*
X224229Y131594D01*
X224297Y131504D01*
X224362Y131411D01*
X224424Y131316D01*
X224482Y131219D01*
X224537Y131120D01*
X224588Y131019D01*
X224636Y130916D01*
X224681Y130812D01*
X224721Y130706D01*
X224758Y130599D01*
X224791Y130491D01*
X224821Y130381D01*
X224846Y130271D01*
X224868Y130160D01*
X224885Y130048D01*
X224899Y129935D01*
X224909Y129822D01*
X224915Y129709D01*
X224917Y129596D01*
X224917Y124404D01*
X224915Y124291D01*
X224909Y124178D01*
X224899Y124065D01*
X224885Y123952D01*
X224868Y123840D01*
X224846Y123729D01*
X224821Y123619D01*
X224791Y123509D01*
X224758Y123401D01*
X224721Y123294D01*
X224681Y123188D01*
X224636Y123084D01*
X224588Y122981D01*
X224537Y122880D01*
X224482Y122781D01*
X224424Y122684D01*
X224362Y122589D01*
X224297Y122496D01*
X224229Y122406D01*
X224158Y122318D01*
X224083Y122232D01*
X224006Y122149D01*
X223926Y122069D01*
X223843Y121992D01*
X223757Y121917D01*
X223669Y121846D01*
X223579Y121778D01*
X223486Y121713D01*
X223391Y121651D01*
X223294Y121593D01*
X223195Y121538D01*
X223094Y121487D01*
X222991Y121439D01*
X222887Y121394D01*
X222781Y121354D01*
X222674Y121317D01*
X222566Y121284D01*
X222456Y121254D01*
X222346Y121229D01*
X222235Y121207D01*
X222123Y121190D01*
X222010Y121176D01*
X221897Y121166D01*
X221784Y121160D01*
X221671Y121158D01*
X218426Y121158D01*
X210241Y95758D02*
X206347Y95758D01*
X210241Y95758D02*
X210340Y95760D01*
X210440Y95766D01*
X210539Y95775D01*
X210637Y95788D01*
X210735Y95805D01*
X210833Y95826D01*
X210929Y95851D01*
X211024Y95879D01*
X211118Y95911D01*
X211211Y95946D01*
X211303Y95985D01*
X211393Y96028D01*
X211481Y96073D01*
X211568Y96123D01*
X211652Y96175D01*
X211735Y96231D01*
X211815Y96289D01*
X211893Y96351D01*
X211968Y96416D01*
X212041Y96484D01*
X212111Y96554D01*
X212179Y96627D01*
X212244Y96702D01*
X212306Y96780D01*
X212364Y96860D01*
X212420Y96943D01*
X212472Y97027D01*
X212522Y97114D01*
X212567Y97202D01*
X212610Y97292D01*
X212649Y97384D01*
X212684Y97477D01*
X212716Y97571D01*
X212744Y97666D01*
X212769Y97762D01*
X212790Y97860D01*
X212807Y97958D01*
X212820Y98056D01*
X212829Y98155D01*
X212835Y98255D01*
X212837Y98354D01*
X212838Y98354D02*
X212838Y99653D01*
X212837Y99653D02*
X212835Y99752D01*
X212829Y99852D01*
X212820Y99951D01*
X212807Y100049D01*
X212790Y100147D01*
X212769Y100245D01*
X212744Y100341D01*
X212716Y100436D01*
X212684Y100530D01*
X212649Y100623D01*
X212610Y100715D01*
X212567Y100805D01*
X212522Y100893D01*
X212472Y100980D01*
X212420Y101064D01*
X212364Y101147D01*
X212306Y101227D01*
X212244Y101305D01*
X212179Y101380D01*
X212111Y101453D01*
X212041Y101523D01*
X211968Y101591D01*
X211893Y101656D01*
X211815Y101718D01*
X211735Y101776D01*
X211652Y101832D01*
X211568Y101884D01*
X211481Y101934D01*
X211393Y101979D01*
X211303Y102022D01*
X211211Y102061D01*
X211118Y102096D01*
X211024Y102128D01*
X210929Y102156D01*
X210833Y102181D01*
X210735Y102202D01*
X210637Y102219D01*
X210539Y102232D01*
X210440Y102241D01*
X210340Y102247D01*
X210241Y102249D01*
X206347Y102249D01*
X206347Y107442D01*
X212838Y107442D01*
X217128Y107442D02*
X221022Y95758D01*
X224917Y107442D01*
D14*
X9525Y215900D02*
X3175Y222250D01*
X3175Y234950D02*
X9525Y241300D01*
X3175Y247650D01*
X3175Y260350D02*
X9525Y266700D01*
X3175Y273050D01*
X3175Y285750D02*
X9525Y292100D01*
X22225Y292100D01*
X28575Y285750D01*
X28575Y273050D01*
X22225Y266700D01*
X28575Y260350D01*
X28575Y247650D01*
X22225Y241300D01*
X28575Y234950D01*
X28575Y222250D01*
X22225Y215900D01*
X231775Y107950D02*
X231775Y95250D01*
X231775Y120650D02*
X231775Y133350D01*
X231775Y146050D02*
X231775Y158750D01*
X231775Y171450D02*
X231775Y184150D01*
X231775Y196850D02*
X231775Y209550D01*
X238125Y215900D02*
X231775Y222250D01*
X231775Y234950D01*
X238125Y241300D01*
X231775Y247650D01*
X231775Y260350D01*
X238125Y266700D01*
X231775Y273050D01*
X231775Y285750D01*
X238125Y292100D01*
X250825Y292100D01*
X257175Y285750D01*
X257175Y273050D02*
X250825Y266700D01*
X257175Y260350D01*
X257175Y247650D02*
X250825Y241300D01*
X257175Y234950D01*
X257175Y222250D02*
X250825Y215900D01*
X3175Y222250D02*
X3175Y82550D01*
X22225Y82550D01*
X22225Y12700D01*
X257175Y12700D01*
D10*
X80475Y27475D02*
X80475Y71475D01*
X80475Y27475D02*
X64975Y27475D01*
X42975Y27475D01*
X27475Y27475D01*
X27475Y71475D01*
X36475Y80475D02*
X42975Y80475D01*
X64975Y80475D01*
X71475Y80475D01*
X80475Y71475D01*
X36475Y80475D02*
X27475Y71475D01*
X63475Y75975D02*
X64011Y75736D01*
X64541Y75484D01*
X65064Y75219D01*
X65581Y74941D01*
X66091Y74650D01*
X66594Y74348D01*
X67089Y74033D01*
X67576Y73705D01*
X68055Y73366D01*
X68525Y73016D01*
X68987Y72654D01*
X69440Y72281D01*
X69884Y71897D01*
X70318Y71502D01*
X70742Y71096D01*
X71156Y70681D01*
X71560Y70255D01*
X71954Y69819D01*
X72336Y69374D01*
X72708Y68920D01*
X73068Y68457D01*
X73417Y67985D01*
X73754Y67505D01*
X74079Y67017D01*
X74393Y66521D01*
X74694Y66017D01*
X74982Y65506D01*
X75258Y64988D01*
X75522Y64464D01*
X75772Y63933D01*
X76009Y63396D01*
X76233Y62854D01*
X76444Y62306D01*
X76641Y61754D01*
X76825Y61196D01*
X76995Y60635D01*
X77151Y60069D01*
X77293Y59500D01*
X77422Y58927D01*
X77536Y58351D01*
X77636Y57773D01*
X77722Y57193D01*
X77794Y56610D01*
X77851Y56026D01*
X77894Y55441D01*
X77923Y54855D01*
X77937Y54268D01*
X77937Y53682D01*
X77923Y53095D01*
X77894Y52509D01*
X77851Y51924D01*
X77794Y51340D01*
X77722Y50757D01*
X77636Y50177D01*
X77536Y49599D01*
X77422Y49023D01*
X77293Y48450D01*
X77151Y47881D01*
X76995Y47315D01*
X76825Y46754D01*
X76641Y46196D01*
X76444Y45644D01*
X76233Y45096D01*
X76009Y44554D01*
X75772Y44017D01*
X75522Y43486D01*
X75258Y42962D01*
X74982Y42444D01*
X74694Y41933D01*
X74393Y41429D01*
X74079Y40933D01*
X73754Y40445D01*
X73417Y39965D01*
X73068Y39493D01*
X72708Y39030D01*
X72336Y38576D01*
X71954Y38131D01*
X71560Y37695D01*
X71156Y37269D01*
X70742Y36854D01*
X70318Y36448D01*
X69884Y36053D01*
X69440Y35669D01*
X68987Y35296D01*
X68525Y34934D01*
X68055Y34584D01*
X67576Y34245D01*
X67089Y33917D01*
X66594Y33602D01*
X66091Y33300D01*
X65581Y33009D01*
X65064Y32731D01*
X64541Y32466D01*
X64011Y32214D01*
X63475Y31975D01*
X62945Y31753D01*
X62410Y31544D01*
X61869Y31349D01*
X61325Y31166D01*
X60776Y30996D01*
X60223Y30840D01*
X59666Y30697D01*
X59107Y30567D01*
X58544Y30451D01*
X57978Y30348D01*
X57411Y30259D01*
X56841Y30183D01*
X56270Y30121D01*
X55697Y30073D01*
X55124Y30039D01*
X54550Y30018D01*
X53975Y30011D01*
X53400Y30018D01*
X52826Y30039D01*
X52253Y30073D01*
X51680Y30121D01*
X51109Y30183D01*
X50539Y30259D01*
X49972Y30348D01*
X49406Y30451D01*
X48843Y30567D01*
X48284Y30697D01*
X47727Y30840D01*
X47174Y30996D01*
X46625Y31166D01*
X46081Y31349D01*
X45540Y31544D01*
X45005Y31753D01*
X44475Y31975D01*
X43939Y32214D01*
X43409Y32466D01*
X42886Y32731D01*
X42369Y33009D01*
X41859Y33300D01*
X41356Y33602D01*
X40861Y33917D01*
X40374Y34245D01*
X39895Y34584D01*
X39425Y34934D01*
X38963Y35296D01*
X38510Y35669D01*
X38066Y36053D01*
X37632Y36448D01*
X37208Y36854D01*
X36794Y37269D01*
X36390Y37695D01*
X35996Y38131D01*
X35614Y38576D01*
X35242Y39030D01*
X34882Y39493D01*
X34533Y39965D01*
X34196Y40445D01*
X33871Y40933D01*
X33557Y41429D01*
X33256Y41933D01*
X32968Y42444D01*
X32692Y42962D01*
X32428Y43486D01*
X32178Y44017D01*
X31941Y44554D01*
X31717Y45096D01*
X31506Y45644D01*
X31309Y46196D01*
X31125Y46754D01*
X30955Y47315D01*
X30799Y47881D01*
X30657Y48450D01*
X30528Y49023D01*
X30414Y49599D01*
X30314Y50177D01*
X30228Y50757D01*
X30156Y51340D01*
X30099Y51924D01*
X30056Y52509D01*
X30027Y53095D01*
X30013Y53682D01*
X30013Y54268D01*
X30027Y54855D01*
X30056Y55441D01*
X30099Y56026D01*
X30156Y56610D01*
X30228Y57193D01*
X30314Y57773D01*
X30414Y58351D01*
X30528Y58927D01*
X30657Y59500D01*
X30799Y60069D01*
X30955Y60635D01*
X31125Y61196D01*
X31309Y61754D01*
X31506Y62306D01*
X31717Y62854D01*
X31941Y63396D01*
X32178Y63933D01*
X32428Y64464D01*
X32692Y64988D01*
X32968Y65506D01*
X33256Y66017D01*
X33557Y66521D01*
X33871Y67017D01*
X34196Y67505D01*
X34533Y67985D01*
X34882Y68457D01*
X35242Y68920D01*
X35614Y69374D01*
X35996Y69819D01*
X36390Y70255D01*
X36794Y70681D01*
X37208Y71096D01*
X37632Y71502D01*
X38066Y71897D01*
X38510Y72281D01*
X38963Y72654D01*
X39425Y73016D01*
X39895Y73366D01*
X40374Y73705D01*
X40861Y74033D01*
X41356Y74348D01*
X41859Y74650D01*
X42369Y74941D01*
X42886Y75219D01*
X43409Y75484D01*
X43939Y75736D01*
X44475Y75975D01*
X45005Y76197D01*
X45540Y76406D01*
X46081Y76601D01*
X46625Y76784D01*
X47174Y76954D01*
X47727Y77110D01*
X48284Y77253D01*
X48843Y77383D01*
X49406Y77499D01*
X49972Y77602D01*
X50539Y77691D01*
X51109Y77767D01*
X51680Y77829D01*
X52253Y77877D01*
X52826Y77911D01*
X53400Y77932D01*
X53975Y77939D01*
X54550Y77932D01*
X55124Y77911D01*
X55697Y77877D01*
X56270Y77829D01*
X56841Y77767D01*
X57411Y77691D01*
X57978Y77602D01*
X58544Y77499D01*
X59107Y77383D01*
X59666Y77253D01*
X60223Y77110D01*
X60776Y76954D01*
X61325Y76784D01*
X61869Y76601D01*
X62410Y76406D01*
X62945Y76197D01*
X63475Y75975D01*
M02*
