G04 EAGLE Gerber RS-274X export*
G75*
%MOMM*%
%FSLAX34Y34*%
%LPD*%
%INSilk bottom*%
%IPPOS*%
%AMOC8*
5,1,8,0,0,1.08239X$1,22.5*%
G01*
%ADD10C,0.000000*%
%ADD11C,0.101600*%
%ADD12C,0.508000*%


D10*
X0Y298450D02*
X0Y82550D01*
X2Y82439D01*
X8Y82329D01*
X17Y82218D01*
X31Y82108D01*
X48Y81999D01*
X69Y81890D01*
X94Y81782D01*
X123Y81675D01*
X155Y81569D01*
X191Y81464D01*
X231Y81361D01*
X274Y81259D01*
X321Y81158D01*
X372Y81059D01*
X425Y80963D01*
X482Y80868D01*
X543Y80775D01*
X606Y80684D01*
X673Y80595D01*
X743Y80509D01*
X816Y80426D01*
X891Y80344D01*
X969Y80266D01*
X1051Y80191D01*
X1134Y80118D01*
X1220Y80048D01*
X1309Y79981D01*
X1400Y79918D01*
X1493Y79857D01*
X1587Y79800D01*
X1684Y79747D01*
X1783Y79696D01*
X1884Y79649D01*
X1986Y79606D01*
X2089Y79566D01*
X2194Y79530D01*
X2300Y79498D01*
X2407Y79469D01*
X2515Y79444D01*
X2624Y79423D01*
X2733Y79406D01*
X2843Y79392D01*
X2954Y79383D01*
X3064Y79377D01*
X3175Y79375D01*
X8210Y79375D01*
X8472Y79372D01*
X8734Y79362D01*
X8995Y79347D01*
X9256Y79324D01*
X9517Y79296D01*
X9776Y79261D01*
X10035Y79220D01*
X10293Y79173D01*
X10549Y79120D01*
X10804Y79060D01*
X11058Y78994D01*
X11310Y78922D01*
X11560Y78844D01*
X11808Y78761D01*
X12054Y78671D01*
X12298Y78575D01*
X12539Y78473D01*
X12778Y78366D01*
X13014Y78252D01*
X13248Y78133D01*
X13478Y78009D01*
X13705Y77879D01*
X13930Y77743D01*
X14150Y77602D01*
X14368Y77456D01*
X14582Y77305D01*
X14792Y77148D01*
X14998Y76987D01*
X15200Y76820D01*
X15398Y76649D01*
X15592Y76473D01*
X15782Y76292D01*
X15967Y76107D01*
X16148Y75917D01*
X16324Y75723D01*
X16495Y75525D01*
X16662Y75323D01*
X16823Y75117D01*
X16980Y74907D01*
X17131Y74693D01*
X17277Y74475D01*
X17418Y74255D01*
X17554Y74030D01*
X17684Y73803D01*
X17808Y73573D01*
X17927Y73339D01*
X18041Y73103D01*
X18148Y72864D01*
X18250Y72623D01*
X18346Y72379D01*
X18436Y72133D01*
X18519Y71885D01*
X18597Y71635D01*
X18669Y71383D01*
X18735Y71129D01*
X18795Y70874D01*
X18848Y70618D01*
X18895Y70360D01*
X18936Y70101D01*
X18971Y69842D01*
X18999Y69581D01*
X19022Y69320D01*
X19037Y69059D01*
X19047Y68797D01*
X19050Y68535D01*
X19050Y12700D01*
X19052Y12589D01*
X19058Y12479D01*
X19067Y12368D01*
X19081Y12258D01*
X19098Y12149D01*
X19119Y12040D01*
X19144Y11932D01*
X19173Y11825D01*
X19205Y11719D01*
X19241Y11614D01*
X19281Y11511D01*
X19324Y11409D01*
X19371Y11308D01*
X19422Y11209D01*
X19475Y11112D01*
X19532Y11018D01*
X19593Y10925D01*
X19656Y10834D01*
X19723Y10745D01*
X19793Y10659D01*
X19866Y10576D01*
X19941Y10494D01*
X20019Y10416D01*
X20101Y10341D01*
X20184Y10268D01*
X20270Y10198D01*
X20359Y10131D01*
X20450Y10068D01*
X20543Y10007D01*
X20637Y9950D01*
X20734Y9897D01*
X20833Y9846D01*
X20934Y9799D01*
X21036Y9756D01*
X21139Y9716D01*
X21244Y9680D01*
X21350Y9648D01*
X21457Y9619D01*
X21565Y9594D01*
X21674Y9573D01*
X21783Y9556D01*
X21893Y9542D01*
X22004Y9533D01*
X22114Y9527D01*
X22225Y9525D01*
X256975Y9525D01*
X257086Y9527D01*
X257196Y9533D01*
X257307Y9542D01*
X257417Y9556D01*
X257526Y9573D01*
X257635Y9594D01*
X257743Y9619D01*
X257850Y9648D01*
X257956Y9680D01*
X258061Y9716D01*
X258164Y9756D01*
X258266Y9799D01*
X258367Y9846D01*
X258466Y9897D01*
X258562Y9950D01*
X258657Y10007D01*
X258750Y10068D01*
X258841Y10131D01*
X258930Y10198D01*
X259016Y10268D01*
X259099Y10341D01*
X259181Y10416D01*
X259259Y10494D01*
X259334Y10576D01*
X259407Y10659D01*
X259477Y10745D01*
X259544Y10834D01*
X259607Y10925D01*
X259668Y11018D01*
X259725Y11112D01*
X259778Y11209D01*
X259829Y11308D01*
X259876Y11409D01*
X259919Y11511D01*
X259959Y11614D01*
X259995Y11719D01*
X260027Y11825D01*
X260056Y11932D01*
X260081Y12040D01*
X260102Y12149D01*
X260119Y12258D01*
X260133Y12368D01*
X260142Y12479D01*
X260148Y12589D01*
X260150Y12700D01*
X260150Y298525D01*
X260148Y298631D01*
X260142Y298737D01*
X260133Y298843D01*
X260120Y298948D01*
X260103Y299053D01*
X260082Y299157D01*
X260058Y299261D01*
X260029Y299363D01*
X259998Y299465D01*
X259962Y299565D01*
X259924Y299663D01*
X259881Y299761D01*
X259835Y299857D01*
X259786Y299951D01*
X259734Y300043D01*
X259678Y300133D01*
X259619Y300222D01*
X259557Y300308D01*
X259491Y300392D01*
X259423Y300473D01*
X259352Y300552D01*
X259279Y300629D01*
X259202Y300702D01*
X259123Y300773D01*
X259042Y300841D01*
X258958Y300907D01*
X258872Y300969D01*
X258783Y301028D01*
X258693Y301084D01*
X258601Y301136D01*
X258507Y301185D01*
X258411Y301231D01*
X258313Y301274D01*
X258215Y301312D01*
X258115Y301348D01*
X258013Y301379D01*
X257911Y301408D01*
X257807Y301432D01*
X257703Y301453D01*
X257598Y301470D01*
X257493Y301483D01*
X257387Y301492D01*
X257281Y301498D01*
X257175Y301500D01*
X3050Y301500D01*
X2941Y301498D01*
X2832Y301492D01*
X2724Y301483D01*
X2616Y301469D01*
X2508Y301452D01*
X2402Y301430D01*
X2296Y301405D01*
X2191Y301376D01*
X2087Y301344D01*
X1984Y301308D01*
X1883Y301268D01*
X1783Y301224D01*
X1685Y301177D01*
X1588Y301127D01*
X1494Y301073D01*
X1401Y301016D01*
X1311Y300955D01*
X1222Y300892D01*
X1136Y300825D01*
X1053Y300755D01*
X972Y300682D01*
X893Y300607D01*
X818Y300528D01*
X745Y300447D01*
X675Y300364D01*
X608Y300278D01*
X545Y300189D01*
X484Y300099D01*
X427Y300006D01*
X373Y299912D01*
X323Y299815D01*
X276Y299717D01*
X232Y299617D01*
X192Y299516D01*
X156Y299413D01*
X124Y299309D01*
X95Y299204D01*
X70Y299098D01*
X48Y298992D01*
X31Y298884D01*
X17Y298776D01*
X8Y298668D01*
X2Y298559D01*
X0Y298450D01*
D11*
X78740Y79756D02*
X85852Y79756D01*
X78740Y79756D02*
X78651Y79754D01*
X78563Y79748D01*
X78475Y79739D01*
X78387Y79725D01*
X78300Y79708D01*
X78214Y79687D01*
X78129Y79662D01*
X78045Y79633D01*
X77962Y79601D01*
X77881Y79566D01*
X77802Y79526D01*
X77724Y79484D01*
X77648Y79438D01*
X77574Y79389D01*
X77503Y79336D01*
X77434Y79281D01*
X77367Y79222D01*
X77303Y79161D01*
X77242Y79097D01*
X77183Y79030D01*
X77128Y78961D01*
X77075Y78890D01*
X77026Y78816D01*
X76980Y78740D01*
X76938Y78662D01*
X76898Y78583D01*
X76863Y78502D01*
X76831Y78419D01*
X76802Y78335D01*
X76777Y78250D01*
X76756Y78164D01*
X76739Y78077D01*
X76725Y77989D01*
X76716Y77901D01*
X76710Y77813D01*
X76708Y77724D01*
X76708Y76708D01*
X83820Y84083D02*
X85852Y86623D01*
X76708Y86623D01*
X76708Y84083D02*
X76708Y89163D01*
X76327Y29083D02*
X67183Y29083D01*
X76327Y29083D02*
X76327Y31623D01*
X76325Y31723D01*
X76319Y31822D01*
X76309Y31922D01*
X76296Y32020D01*
X76278Y32119D01*
X76257Y32216D01*
X76232Y32312D01*
X76203Y32408D01*
X76170Y32502D01*
X76134Y32595D01*
X76094Y32686D01*
X76050Y32776D01*
X76003Y32864D01*
X75953Y32950D01*
X75899Y33034D01*
X75842Y33116D01*
X75782Y33195D01*
X75718Y33273D01*
X75652Y33347D01*
X75583Y33419D01*
X75511Y33488D01*
X75437Y33554D01*
X75359Y33618D01*
X75280Y33678D01*
X75198Y33735D01*
X75114Y33789D01*
X75028Y33839D01*
X74940Y33886D01*
X74850Y33930D01*
X74759Y33970D01*
X74666Y34006D01*
X74572Y34039D01*
X74476Y34068D01*
X74380Y34093D01*
X74283Y34114D01*
X74184Y34132D01*
X74086Y34145D01*
X73986Y34155D01*
X73887Y34161D01*
X73787Y34163D01*
X69723Y34163D01*
X69623Y34161D01*
X69524Y34155D01*
X69424Y34145D01*
X69326Y34132D01*
X69227Y34114D01*
X69130Y34093D01*
X69034Y34068D01*
X68938Y34039D01*
X68844Y34006D01*
X68751Y33970D01*
X68660Y33930D01*
X68570Y33886D01*
X68482Y33839D01*
X68396Y33789D01*
X68312Y33735D01*
X68230Y33678D01*
X68151Y33618D01*
X68073Y33554D01*
X67999Y33488D01*
X67927Y33419D01*
X67858Y33347D01*
X67792Y33273D01*
X67728Y33195D01*
X67668Y33116D01*
X67611Y33034D01*
X67557Y32950D01*
X67507Y32864D01*
X67460Y32776D01*
X67416Y32686D01*
X67376Y32595D01*
X67340Y32502D01*
X67307Y32408D01*
X67278Y32312D01*
X67253Y32216D01*
X67232Y32119D01*
X67214Y32020D01*
X67201Y31922D01*
X67191Y31822D01*
X67185Y31723D01*
X67183Y31623D01*
X67183Y29083D01*
X67183Y38532D02*
X67183Y41580D01*
X67185Y41669D01*
X67191Y41757D01*
X67200Y41845D01*
X67214Y41933D01*
X67231Y42020D01*
X67252Y42106D01*
X67277Y42191D01*
X67306Y42275D01*
X67338Y42358D01*
X67373Y42439D01*
X67413Y42518D01*
X67455Y42596D01*
X67501Y42672D01*
X67550Y42746D01*
X67603Y42817D01*
X67658Y42886D01*
X67717Y42953D01*
X67778Y43017D01*
X67842Y43078D01*
X67909Y43137D01*
X67978Y43192D01*
X68049Y43245D01*
X68123Y43294D01*
X68199Y43340D01*
X68277Y43382D01*
X68356Y43422D01*
X68437Y43457D01*
X68520Y43489D01*
X68604Y43518D01*
X68689Y43543D01*
X68775Y43564D01*
X68862Y43581D01*
X68950Y43595D01*
X69038Y43604D01*
X69126Y43610D01*
X69215Y43612D01*
X70231Y43612D01*
X70320Y43610D01*
X70408Y43604D01*
X70496Y43595D01*
X70584Y43581D01*
X70671Y43564D01*
X70757Y43543D01*
X70842Y43518D01*
X70926Y43489D01*
X71009Y43457D01*
X71090Y43422D01*
X71169Y43382D01*
X71247Y43340D01*
X71323Y43294D01*
X71397Y43245D01*
X71468Y43192D01*
X71537Y43137D01*
X71604Y43078D01*
X71668Y43017D01*
X71729Y42953D01*
X71788Y42886D01*
X71843Y42817D01*
X71896Y42746D01*
X71945Y42672D01*
X71991Y42596D01*
X72033Y42518D01*
X72073Y42439D01*
X72108Y42358D01*
X72140Y42275D01*
X72169Y42191D01*
X72194Y42106D01*
X72215Y42020D01*
X72232Y41933D01*
X72246Y41845D01*
X72255Y41757D01*
X72261Y41669D01*
X72263Y41580D01*
X72263Y38532D01*
X76327Y38532D01*
X76327Y43612D01*
X76327Y52857D02*
X67183Y52857D01*
X76327Y52857D02*
X76327Y55397D01*
X76325Y55497D01*
X76319Y55596D01*
X76309Y55696D01*
X76296Y55794D01*
X76278Y55893D01*
X76257Y55990D01*
X76232Y56086D01*
X76203Y56182D01*
X76170Y56276D01*
X76134Y56369D01*
X76094Y56460D01*
X76050Y56550D01*
X76003Y56638D01*
X75953Y56724D01*
X75899Y56808D01*
X75842Y56890D01*
X75782Y56969D01*
X75718Y57047D01*
X75652Y57121D01*
X75583Y57193D01*
X75511Y57262D01*
X75437Y57328D01*
X75359Y57392D01*
X75280Y57452D01*
X75198Y57509D01*
X75114Y57563D01*
X75028Y57613D01*
X74940Y57660D01*
X74850Y57704D01*
X74759Y57744D01*
X74666Y57780D01*
X74572Y57813D01*
X74476Y57842D01*
X74380Y57867D01*
X74283Y57888D01*
X74184Y57906D01*
X74086Y57919D01*
X73986Y57929D01*
X73887Y57935D01*
X73787Y57937D01*
X69723Y57937D01*
X69623Y57935D01*
X69524Y57929D01*
X69424Y57919D01*
X69326Y57906D01*
X69227Y57888D01*
X69130Y57867D01*
X69034Y57842D01*
X68938Y57813D01*
X68844Y57780D01*
X68751Y57744D01*
X68660Y57704D01*
X68570Y57660D01*
X68482Y57613D01*
X68396Y57563D01*
X68312Y57509D01*
X68230Y57452D01*
X68151Y57392D01*
X68073Y57328D01*
X67999Y57262D01*
X67927Y57193D01*
X67858Y57121D01*
X67792Y57047D01*
X67728Y56969D01*
X67668Y56890D01*
X67611Y56808D01*
X67557Y56724D01*
X67507Y56638D01*
X67460Y56550D01*
X67416Y56460D01*
X67376Y56369D01*
X67340Y56276D01*
X67307Y56182D01*
X67278Y56086D01*
X67253Y55990D01*
X67232Y55893D01*
X67214Y55794D01*
X67201Y55696D01*
X67191Y55596D01*
X67185Y55497D01*
X67183Y55397D01*
X67183Y52857D01*
X72263Y62306D02*
X72263Y65354D01*
X72261Y65443D01*
X72255Y65531D01*
X72246Y65619D01*
X72232Y65707D01*
X72215Y65794D01*
X72194Y65880D01*
X72169Y65965D01*
X72140Y66049D01*
X72108Y66132D01*
X72073Y66213D01*
X72033Y66292D01*
X71991Y66370D01*
X71945Y66446D01*
X71896Y66520D01*
X71843Y66591D01*
X71788Y66660D01*
X71729Y66727D01*
X71668Y66791D01*
X71604Y66852D01*
X71537Y66911D01*
X71468Y66966D01*
X71397Y67019D01*
X71323Y67068D01*
X71247Y67114D01*
X71169Y67156D01*
X71090Y67196D01*
X71009Y67231D01*
X70926Y67263D01*
X70842Y67292D01*
X70757Y67317D01*
X70671Y67338D01*
X70584Y67355D01*
X70496Y67369D01*
X70408Y67378D01*
X70320Y67384D01*
X70231Y67386D01*
X69723Y67386D01*
X69623Y67384D01*
X69524Y67378D01*
X69424Y67368D01*
X69326Y67355D01*
X69227Y67337D01*
X69130Y67316D01*
X69034Y67291D01*
X68938Y67262D01*
X68844Y67229D01*
X68751Y67193D01*
X68660Y67153D01*
X68570Y67109D01*
X68482Y67062D01*
X68396Y67012D01*
X68312Y66958D01*
X68230Y66901D01*
X68151Y66841D01*
X68073Y66777D01*
X67999Y66711D01*
X67927Y66642D01*
X67858Y66570D01*
X67792Y66496D01*
X67728Y66418D01*
X67668Y66339D01*
X67611Y66257D01*
X67557Y66173D01*
X67507Y66087D01*
X67460Y65999D01*
X67416Y65909D01*
X67376Y65818D01*
X67340Y65725D01*
X67307Y65631D01*
X67278Y65535D01*
X67253Y65439D01*
X67232Y65342D01*
X67214Y65243D01*
X67201Y65145D01*
X67191Y65045D01*
X67185Y64946D01*
X67183Y64846D01*
X67185Y64746D01*
X67191Y64647D01*
X67201Y64547D01*
X67214Y64449D01*
X67232Y64350D01*
X67253Y64253D01*
X67278Y64157D01*
X67307Y64061D01*
X67340Y63967D01*
X67376Y63874D01*
X67416Y63783D01*
X67460Y63693D01*
X67507Y63605D01*
X67557Y63519D01*
X67611Y63435D01*
X67668Y63353D01*
X67728Y63274D01*
X67792Y63196D01*
X67858Y63122D01*
X67927Y63050D01*
X67999Y62981D01*
X68073Y62915D01*
X68151Y62851D01*
X68230Y62791D01*
X68312Y62734D01*
X68396Y62680D01*
X68482Y62630D01*
X68570Y62583D01*
X68660Y62539D01*
X68751Y62499D01*
X68844Y62463D01*
X68938Y62430D01*
X69034Y62401D01*
X69130Y62376D01*
X69227Y62355D01*
X69326Y62337D01*
X69424Y62324D01*
X69524Y62314D01*
X69623Y62308D01*
X69723Y62306D01*
X72263Y62306D01*
X72388Y62308D01*
X72513Y62314D01*
X72638Y62323D01*
X72762Y62337D01*
X72886Y62354D01*
X73010Y62375D01*
X73132Y62400D01*
X73254Y62429D01*
X73375Y62461D01*
X73495Y62497D01*
X73614Y62537D01*
X73731Y62580D01*
X73847Y62627D01*
X73962Y62678D01*
X74074Y62732D01*
X74186Y62790D01*
X74295Y62850D01*
X74402Y62915D01*
X74508Y62982D01*
X74611Y63053D01*
X74712Y63127D01*
X74811Y63204D01*
X74907Y63284D01*
X75001Y63367D01*
X75092Y63452D01*
X75181Y63541D01*
X75266Y63632D01*
X75349Y63726D01*
X75429Y63822D01*
X75506Y63921D01*
X75580Y64022D01*
X75651Y64125D01*
X75718Y64231D01*
X75783Y64338D01*
X75843Y64447D01*
X75901Y64559D01*
X75955Y64671D01*
X76006Y64786D01*
X76053Y64902D01*
X76096Y65019D01*
X76136Y65138D01*
X76172Y65258D01*
X76204Y65379D01*
X76233Y65501D01*
X76258Y65623D01*
X76279Y65747D01*
X76296Y65871D01*
X76310Y65995D01*
X76319Y66120D01*
X76325Y66245D01*
X76327Y66370D01*
X72263Y80188D02*
X72263Y81712D01*
X67183Y81712D01*
X67183Y78664D01*
X67185Y78575D01*
X67191Y78487D01*
X67200Y78399D01*
X67214Y78311D01*
X67231Y78224D01*
X67252Y78138D01*
X67277Y78053D01*
X67306Y77969D01*
X67338Y77886D01*
X67373Y77805D01*
X67413Y77726D01*
X67455Y77648D01*
X67501Y77572D01*
X67550Y77498D01*
X67603Y77427D01*
X67658Y77358D01*
X67717Y77291D01*
X67778Y77227D01*
X67842Y77166D01*
X67909Y77107D01*
X67978Y77052D01*
X68049Y76999D01*
X68123Y76950D01*
X68199Y76904D01*
X68277Y76862D01*
X68356Y76822D01*
X68437Y76787D01*
X68520Y76755D01*
X68604Y76726D01*
X68689Y76701D01*
X68775Y76680D01*
X68862Y76663D01*
X68950Y76649D01*
X69038Y76640D01*
X69126Y76634D01*
X69215Y76632D01*
X74295Y76632D01*
X74384Y76634D01*
X74472Y76640D01*
X74560Y76649D01*
X74648Y76663D01*
X74735Y76680D01*
X74821Y76701D01*
X74906Y76726D01*
X74990Y76755D01*
X75073Y76787D01*
X75154Y76822D01*
X75233Y76862D01*
X75311Y76904D01*
X75387Y76950D01*
X75461Y76999D01*
X75532Y77052D01*
X75601Y77107D01*
X75668Y77166D01*
X75732Y77227D01*
X75793Y77291D01*
X75852Y77358D01*
X75907Y77427D01*
X75960Y77498D01*
X76009Y77572D01*
X76055Y77648D01*
X76097Y77726D01*
X76137Y77805D01*
X76172Y77886D01*
X76204Y77969D01*
X76233Y78053D01*
X76258Y78138D01*
X76279Y78224D01*
X76296Y78311D01*
X76310Y78399D01*
X76319Y78487D01*
X76325Y78575D01*
X76327Y78664D01*
X76327Y81712D01*
X76327Y86385D02*
X67183Y86385D01*
X67183Y91465D02*
X76327Y86385D01*
X76327Y91465D02*
X67183Y91465D01*
X67183Y96139D02*
X76327Y96139D01*
X76327Y98679D01*
X76325Y98779D01*
X76319Y98878D01*
X76309Y98978D01*
X76296Y99076D01*
X76278Y99175D01*
X76257Y99272D01*
X76232Y99368D01*
X76203Y99464D01*
X76170Y99558D01*
X76134Y99651D01*
X76094Y99742D01*
X76050Y99832D01*
X76003Y99920D01*
X75953Y100006D01*
X75899Y100090D01*
X75842Y100172D01*
X75782Y100251D01*
X75718Y100329D01*
X75652Y100403D01*
X75583Y100475D01*
X75511Y100544D01*
X75437Y100610D01*
X75359Y100674D01*
X75280Y100734D01*
X75198Y100791D01*
X75114Y100845D01*
X75028Y100895D01*
X74940Y100942D01*
X74850Y100986D01*
X74759Y101026D01*
X74666Y101062D01*
X74572Y101095D01*
X74476Y101124D01*
X74380Y101149D01*
X74283Y101170D01*
X74184Y101188D01*
X74086Y101201D01*
X73986Y101211D01*
X73887Y101217D01*
X73787Y101219D01*
X69723Y101219D01*
X69623Y101217D01*
X69524Y101211D01*
X69424Y101201D01*
X69326Y101188D01*
X69227Y101170D01*
X69130Y101149D01*
X69034Y101124D01*
X68938Y101095D01*
X68844Y101062D01*
X68751Y101026D01*
X68660Y100986D01*
X68570Y100942D01*
X68482Y100895D01*
X68396Y100845D01*
X68312Y100791D01*
X68230Y100734D01*
X68151Y100674D01*
X68073Y100610D01*
X67999Y100544D01*
X67927Y100475D01*
X67858Y100403D01*
X67792Y100329D01*
X67728Y100251D01*
X67668Y100172D01*
X67611Y100090D01*
X67557Y100006D01*
X67507Y99920D01*
X67460Y99832D01*
X67416Y99742D01*
X67376Y99651D01*
X67340Y99558D01*
X67307Y99464D01*
X67278Y99368D01*
X67253Y99272D01*
X67232Y99175D01*
X67214Y99076D01*
X67201Y98978D01*
X67191Y98878D01*
X67185Y98779D01*
X67183Y98679D01*
X67183Y96139D01*
X67183Y110464D02*
X67183Y113004D01*
X67185Y113104D01*
X67191Y113203D01*
X67201Y113303D01*
X67214Y113401D01*
X67232Y113500D01*
X67253Y113597D01*
X67278Y113693D01*
X67307Y113789D01*
X67340Y113883D01*
X67376Y113976D01*
X67416Y114067D01*
X67460Y114157D01*
X67507Y114245D01*
X67557Y114331D01*
X67611Y114415D01*
X67668Y114497D01*
X67728Y114576D01*
X67792Y114654D01*
X67858Y114728D01*
X67927Y114800D01*
X67999Y114869D01*
X68073Y114935D01*
X68151Y114999D01*
X68230Y115059D01*
X68312Y115116D01*
X68396Y115170D01*
X68482Y115220D01*
X68570Y115267D01*
X68660Y115311D01*
X68751Y115351D01*
X68844Y115387D01*
X68938Y115420D01*
X69034Y115449D01*
X69130Y115474D01*
X69227Y115495D01*
X69326Y115513D01*
X69424Y115526D01*
X69524Y115536D01*
X69623Y115542D01*
X69723Y115544D01*
X69823Y115542D01*
X69922Y115536D01*
X70022Y115526D01*
X70120Y115513D01*
X70219Y115495D01*
X70316Y115474D01*
X70412Y115449D01*
X70508Y115420D01*
X70602Y115387D01*
X70695Y115351D01*
X70786Y115311D01*
X70876Y115267D01*
X70964Y115220D01*
X71050Y115170D01*
X71134Y115116D01*
X71216Y115059D01*
X71295Y114999D01*
X71373Y114935D01*
X71447Y114869D01*
X71519Y114800D01*
X71588Y114728D01*
X71654Y114654D01*
X71718Y114576D01*
X71778Y114497D01*
X71835Y114415D01*
X71889Y114331D01*
X71939Y114245D01*
X71986Y114157D01*
X72030Y114067D01*
X72070Y113976D01*
X72106Y113883D01*
X72139Y113789D01*
X72168Y113693D01*
X72193Y113597D01*
X72214Y113500D01*
X72232Y113401D01*
X72245Y113303D01*
X72255Y113203D01*
X72261Y113104D01*
X72263Y113004D01*
X76327Y113512D02*
X76327Y110464D01*
X76327Y113512D02*
X76325Y113601D01*
X76319Y113689D01*
X76310Y113777D01*
X76296Y113865D01*
X76279Y113952D01*
X76258Y114038D01*
X76233Y114123D01*
X76204Y114207D01*
X76172Y114290D01*
X76137Y114371D01*
X76097Y114450D01*
X76055Y114528D01*
X76009Y114604D01*
X75960Y114678D01*
X75907Y114749D01*
X75852Y114818D01*
X75793Y114885D01*
X75732Y114949D01*
X75668Y115010D01*
X75601Y115069D01*
X75532Y115124D01*
X75461Y115177D01*
X75387Y115226D01*
X75311Y115272D01*
X75233Y115314D01*
X75154Y115354D01*
X75073Y115389D01*
X74990Y115421D01*
X74906Y115450D01*
X74821Y115475D01*
X74735Y115496D01*
X74648Y115513D01*
X74560Y115527D01*
X74472Y115536D01*
X74384Y115542D01*
X74295Y115544D01*
X74206Y115542D01*
X74118Y115536D01*
X74030Y115527D01*
X73942Y115513D01*
X73855Y115496D01*
X73769Y115475D01*
X73684Y115450D01*
X73600Y115421D01*
X73517Y115389D01*
X73436Y115354D01*
X73357Y115314D01*
X73279Y115272D01*
X73203Y115226D01*
X73129Y115177D01*
X73058Y115124D01*
X72989Y115069D01*
X72922Y115010D01*
X72858Y114949D01*
X72797Y114885D01*
X72738Y114818D01*
X72683Y114749D01*
X72630Y114678D01*
X72581Y114604D01*
X72535Y114528D01*
X72493Y114450D01*
X72453Y114371D01*
X72418Y114290D01*
X72386Y114207D01*
X72357Y114123D01*
X72332Y114038D01*
X72311Y113952D01*
X72294Y113865D01*
X72280Y113777D01*
X72271Y113689D01*
X72265Y113601D01*
X72263Y113512D01*
X72263Y111480D01*
X76327Y119100D02*
X67183Y122148D01*
X76327Y125196D01*
X67183Y128752D02*
X67183Y131292D01*
X67185Y131392D01*
X67191Y131491D01*
X67201Y131591D01*
X67214Y131689D01*
X67232Y131788D01*
X67253Y131885D01*
X67278Y131981D01*
X67307Y132077D01*
X67340Y132171D01*
X67376Y132264D01*
X67416Y132355D01*
X67460Y132445D01*
X67507Y132533D01*
X67557Y132619D01*
X67611Y132703D01*
X67668Y132785D01*
X67728Y132864D01*
X67792Y132942D01*
X67858Y133016D01*
X67927Y133088D01*
X67999Y133157D01*
X68073Y133223D01*
X68151Y133287D01*
X68230Y133347D01*
X68312Y133404D01*
X68396Y133458D01*
X68482Y133508D01*
X68570Y133555D01*
X68660Y133599D01*
X68751Y133639D01*
X68844Y133675D01*
X68938Y133708D01*
X69034Y133737D01*
X69130Y133762D01*
X69227Y133783D01*
X69326Y133801D01*
X69424Y133814D01*
X69524Y133824D01*
X69623Y133830D01*
X69723Y133832D01*
X69823Y133830D01*
X69922Y133824D01*
X70022Y133814D01*
X70120Y133801D01*
X70219Y133783D01*
X70316Y133762D01*
X70412Y133737D01*
X70508Y133708D01*
X70602Y133675D01*
X70695Y133639D01*
X70786Y133599D01*
X70876Y133555D01*
X70964Y133508D01*
X71050Y133458D01*
X71134Y133404D01*
X71216Y133347D01*
X71295Y133287D01*
X71373Y133223D01*
X71447Y133157D01*
X71519Y133088D01*
X71588Y133016D01*
X71654Y132942D01*
X71718Y132864D01*
X71778Y132785D01*
X71835Y132703D01*
X71889Y132619D01*
X71939Y132533D01*
X71986Y132445D01*
X72030Y132355D01*
X72070Y132264D01*
X72106Y132171D01*
X72139Y132077D01*
X72168Y131981D01*
X72193Y131885D01*
X72214Y131788D01*
X72232Y131689D01*
X72245Y131591D01*
X72255Y131491D01*
X72261Y131392D01*
X72263Y131292D01*
X76327Y131800D02*
X76327Y128752D01*
X76327Y131800D02*
X76325Y131889D01*
X76319Y131977D01*
X76310Y132065D01*
X76296Y132153D01*
X76279Y132240D01*
X76258Y132326D01*
X76233Y132411D01*
X76204Y132495D01*
X76172Y132578D01*
X76137Y132659D01*
X76097Y132738D01*
X76055Y132816D01*
X76009Y132892D01*
X75960Y132966D01*
X75907Y133037D01*
X75852Y133106D01*
X75793Y133173D01*
X75732Y133237D01*
X75668Y133298D01*
X75601Y133357D01*
X75532Y133412D01*
X75461Y133465D01*
X75387Y133514D01*
X75311Y133560D01*
X75233Y133602D01*
X75154Y133642D01*
X75073Y133677D01*
X74990Y133709D01*
X74906Y133738D01*
X74821Y133763D01*
X74735Y133784D01*
X74648Y133801D01*
X74560Y133815D01*
X74472Y133824D01*
X74384Y133830D01*
X74295Y133832D01*
X74206Y133830D01*
X74118Y133824D01*
X74030Y133815D01*
X73942Y133801D01*
X73855Y133784D01*
X73769Y133763D01*
X73684Y133738D01*
X73600Y133709D01*
X73517Y133677D01*
X73436Y133642D01*
X73357Y133602D01*
X73279Y133560D01*
X73203Y133514D01*
X73129Y133465D01*
X73058Y133412D01*
X72989Y133357D01*
X72922Y133298D01*
X72858Y133237D01*
X72797Y133173D01*
X72738Y133106D01*
X72683Y133037D01*
X72630Y132966D01*
X72581Y132892D01*
X72535Y132816D01*
X72493Y132738D01*
X72453Y132659D01*
X72418Y132578D01*
X72386Y132495D01*
X72357Y132411D01*
X72332Y132326D01*
X72311Y132240D01*
X72294Y132153D01*
X72280Y132065D01*
X72271Y131977D01*
X72265Y131889D01*
X72263Y131800D01*
X72263Y129768D01*
D12*
X92075Y149225D02*
X92075Y15875D01*
X92075Y149225D02*
X53975Y149225D01*
X53975Y123825D01*
X53975Y41275D01*
X53975Y15875D01*
X92075Y15875D01*
X53975Y15875D02*
X38100Y15875D01*
X38100Y41275D01*
X53975Y41275D01*
X53975Y149225D02*
X38100Y149225D01*
X38100Y123825D01*
X53975Y123825D01*
D11*
X180848Y85344D02*
X187960Y85344D01*
X188049Y85346D01*
X188137Y85352D01*
X188225Y85361D01*
X188313Y85375D01*
X188400Y85392D01*
X188486Y85413D01*
X188571Y85438D01*
X188655Y85467D01*
X188738Y85499D01*
X188819Y85534D01*
X188898Y85574D01*
X188976Y85616D01*
X189052Y85662D01*
X189126Y85711D01*
X189197Y85764D01*
X189266Y85819D01*
X189333Y85878D01*
X189397Y85939D01*
X189458Y86003D01*
X189517Y86070D01*
X189572Y86139D01*
X189625Y86210D01*
X189674Y86284D01*
X189720Y86360D01*
X189762Y86438D01*
X189802Y86517D01*
X189837Y86598D01*
X189869Y86681D01*
X189898Y86765D01*
X189923Y86850D01*
X189944Y86936D01*
X189961Y87023D01*
X189975Y87111D01*
X189984Y87199D01*
X189990Y87287D01*
X189992Y87376D01*
X189992Y88392D01*
X187960Y81017D02*
X180848Y78985D01*
X187960Y81017D02*
X187960Y75937D01*
X185928Y77461D02*
X189992Y77461D01*
X200660Y140462D02*
X200749Y140464D01*
X200837Y140470D01*
X200925Y140479D01*
X201013Y140493D01*
X201100Y140510D01*
X201186Y140531D01*
X201271Y140556D01*
X201355Y140585D01*
X201438Y140617D01*
X201519Y140652D01*
X201598Y140692D01*
X201676Y140734D01*
X201752Y140780D01*
X201826Y140829D01*
X201897Y140882D01*
X201966Y140937D01*
X202033Y140996D01*
X202097Y141057D01*
X202158Y141121D01*
X202217Y141188D01*
X202272Y141257D01*
X202325Y141328D01*
X202374Y141402D01*
X202420Y141478D01*
X202462Y141556D01*
X202502Y141635D01*
X202537Y141716D01*
X202569Y141799D01*
X202598Y141883D01*
X202623Y141968D01*
X202644Y142054D01*
X202661Y142141D01*
X202675Y142229D01*
X202684Y142317D01*
X202690Y142405D01*
X202692Y142494D01*
X202690Y142624D01*
X202684Y142755D01*
X202674Y142885D01*
X202660Y143014D01*
X202643Y143143D01*
X202621Y143272D01*
X202595Y143400D01*
X202566Y143527D01*
X202533Y143653D01*
X202496Y143778D01*
X202455Y143902D01*
X202410Y144024D01*
X202362Y144145D01*
X202310Y144265D01*
X202254Y144383D01*
X202195Y144499D01*
X202132Y144613D01*
X202066Y144726D01*
X201997Y144836D01*
X201924Y144944D01*
X201848Y145050D01*
X201769Y145154D01*
X201687Y145255D01*
X201601Y145353D01*
X201513Y145449D01*
X201422Y145542D01*
X195580Y145288D02*
X195491Y145286D01*
X195403Y145280D01*
X195315Y145271D01*
X195227Y145257D01*
X195140Y145240D01*
X195054Y145219D01*
X194969Y145194D01*
X194885Y145165D01*
X194802Y145133D01*
X194721Y145098D01*
X194642Y145058D01*
X194564Y145016D01*
X194488Y144970D01*
X194414Y144921D01*
X194343Y144868D01*
X194274Y144813D01*
X194207Y144754D01*
X194143Y144693D01*
X194082Y144629D01*
X194023Y144562D01*
X193968Y144493D01*
X193915Y144422D01*
X193866Y144348D01*
X193820Y144272D01*
X193778Y144194D01*
X193738Y144115D01*
X193703Y144034D01*
X193671Y143951D01*
X193642Y143867D01*
X193617Y143782D01*
X193596Y143696D01*
X193579Y143609D01*
X193565Y143521D01*
X193556Y143433D01*
X193550Y143345D01*
X193548Y143256D01*
X193550Y143133D01*
X193556Y143011D01*
X193566Y142889D01*
X193580Y142767D01*
X193597Y142646D01*
X193619Y142525D01*
X193644Y142405D01*
X193674Y142286D01*
X193707Y142168D01*
X193744Y142051D01*
X193784Y141936D01*
X193828Y141821D01*
X193876Y141708D01*
X193928Y141597D01*
X193983Y141488D01*
X194042Y141380D01*
X194104Y141274D01*
X194169Y141171D01*
X194238Y141069D01*
X194310Y140970D01*
X197358Y144272D02*
X197311Y144348D01*
X197261Y144422D01*
X197208Y144493D01*
X197151Y144562D01*
X197092Y144629D01*
X197030Y144693D01*
X196965Y144755D01*
X196897Y144813D01*
X196827Y144868D01*
X196755Y144921D01*
X196681Y144970D01*
X196604Y145016D01*
X196526Y145059D01*
X196445Y145098D01*
X196363Y145134D01*
X196280Y145166D01*
X196196Y145194D01*
X196110Y145219D01*
X196023Y145240D01*
X195935Y145257D01*
X195847Y145271D01*
X195758Y145280D01*
X195669Y145286D01*
X195580Y145288D01*
X198882Y141478D02*
X198929Y141402D01*
X198979Y141328D01*
X199032Y141257D01*
X199089Y141188D01*
X199148Y141121D01*
X199210Y141057D01*
X199275Y140995D01*
X199343Y140937D01*
X199413Y140882D01*
X199485Y140829D01*
X199559Y140780D01*
X199636Y140734D01*
X199714Y140691D01*
X199795Y140652D01*
X199877Y140616D01*
X199960Y140584D01*
X200044Y140556D01*
X200130Y140531D01*
X200217Y140510D01*
X200305Y140493D01*
X200393Y140479D01*
X200482Y140470D01*
X200571Y140464D01*
X200660Y140462D01*
X198882Y141478D02*
X197358Y144272D01*
X202692Y134701D02*
X202692Y132669D01*
X202692Y134701D02*
X202690Y134790D01*
X202684Y134878D01*
X202675Y134966D01*
X202661Y135054D01*
X202644Y135141D01*
X202623Y135227D01*
X202598Y135312D01*
X202569Y135396D01*
X202537Y135479D01*
X202502Y135560D01*
X202462Y135639D01*
X202420Y135717D01*
X202374Y135793D01*
X202325Y135867D01*
X202272Y135938D01*
X202217Y136007D01*
X202158Y136074D01*
X202097Y136138D01*
X202033Y136199D01*
X201966Y136258D01*
X201897Y136313D01*
X201826Y136366D01*
X201752Y136415D01*
X201676Y136461D01*
X201598Y136503D01*
X201519Y136543D01*
X201438Y136578D01*
X201355Y136610D01*
X201271Y136639D01*
X201186Y136664D01*
X201100Y136685D01*
X201013Y136702D01*
X200925Y136716D01*
X200837Y136725D01*
X200749Y136731D01*
X200660Y136733D01*
X195580Y136733D01*
X195491Y136731D01*
X195403Y136725D01*
X195315Y136716D01*
X195227Y136702D01*
X195140Y136685D01*
X195054Y136664D01*
X194969Y136639D01*
X194885Y136610D01*
X194802Y136578D01*
X194721Y136543D01*
X194642Y136503D01*
X194564Y136461D01*
X194488Y136415D01*
X194414Y136366D01*
X194343Y136313D01*
X194274Y136258D01*
X194207Y136199D01*
X194143Y136138D01*
X194082Y136074D01*
X194023Y136007D01*
X193968Y135938D01*
X193915Y135867D01*
X193866Y135793D01*
X193820Y135717D01*
X193778Y135639D01*
X193738Y135560D01*
X193703Y135479D01*
X193671Y135396D01*
X193642Y135312D01*
X193617Y135227D01*
X193596Y135141D01*
X193579Y135054D01*
X193565Y134966D01*
X193556Y134878D01*
X193550Y134790D01*
X193548Y134701D01*
X193548Y132669D01*
X193548Y128758D02*
X202692Y128758D01*
X202692Y124694D01*
X202692Y113538D02*
X202690Y113449D01*
X202684Y113361D01*
X202675Y113273D01*
X202661Y113185D01*
X202644Y113098D01*
X202623Y113012D01*
X202598Y112927D01*
X202569Y112843D01*
X202537Y112760D01*
X202502Y112679D01*
X202462Y112600D01*
X202420Y112522D01*
X202374Y112446D01*
X202325Y112372D01*
X202272Y112301D01*
X202217Y112232D01*
X202158Y112165D01*
X202097Y112101D01*
X202033Y112040D01*
X201966Y111981D01*
X201897Y111926D01*
X201826Y111873D01*
X201752Y111824D01*
X201676Y111778D01*
X201598Y111736D01*
X201519Y111696D01*
X201438Y111661D01*
X201355Y111629D01*
X201271Y111600D01*
X201186Y111575D01*
X201100Y111554D01*
X201013Y111537D01*
X200925Y111523D01*
X200837Y111514D01*
X200749Y111508D01*
X200660Y111506D01*
X202692Y113538D02*
X202690Y113668D01*
X202684Y113799D01*
X202674Y113929D01*
X202660Y114058D01*
X202643Y114187D01*
X202621Y114316D01*
X202595Y114444D01*
X202566Y114571D01*
X202533Y114697D01*
X202496Y114822D01*
X202455Y114946D01*
X202410Y115068D01*
X202362Y115189D01*
X202310Y115309D01*
X202254Y115427D01*
X202195Y115543D01*
X202132Y115657D01*
X202066Y115770D01*
X201997Y115880D01*
X201924Y115988D01*
X201848Y116094D01*
X201769Y116198D01*
X201687Y116299D01*
X201601Y116397D01*
X201513Y116493D01*
X201422Y116586D01*
X195580Y116332D02*
X195491Y116330D01*
X195403Y116324D01*
X195315Y116315D01*
X195227Y116301D01*
X195140Y116284D01*
X195054Y116263D01*
X194969Y116238D01*
X194885Y116209D01*
X194802Y116177D01*
X194721Y116142D01*
X194642Y116102D01*
X194564Y116060D01*
X194488Y116014D01*
X194414Y115965D01*
X194343Y115912D01*
X194274Y115857D01*
X194207Y115798D01*
X194143Y115737D01*
X194082Y115673D01*
X194023Y115606D01*
X193968Y115537D01*
X193915Y115466D01*
X193866Y115392D01*
X193820Y115316D01*
X193778Y115238D01*
X193738Y115159D01*
X193703Y115078D01*
X193671Y114995D01*
X193642Y114911D01*
X193617Y114826D01*
X193596Y114740D01*
X193579Y114653D01*
X193565Y114565D01*
X193556Y114477D01*
X193550Y114389D01*
X193548Y114300D01*
X193550Y114177D01*
X193556Y114055D01*
X193566Y113933D01*
X193580Y113811D01*
X193597Y113690D01*
X193619Y113569D01*
X193644Y113449D01*
X193674Y113330D01*
X193707Y113212D01*
X193744Y113095D01*
X193784Y112980D01*
X193828Y112865D01*
X193876Y112752D01*
X193928Y112641D01*
X193983Y112532D01*
X194042Y112424D01*
X194104Y112318D01*
X194169Y112215D01*
X194238Y112113D01*
X194310Y112014D01*
X197358Y115316D02*
X197311Y115392D01*
X197261Y115466D01*
X197208Y115537D01*
X197151Y115606D01*
X197092Y115673D01*
X197030Y115737D01*
X196965Y115799D01*
X196897Y115857D01*
X196827Y115912D01*
X196755Y115965D01*
X196681Y116014D01*
X196604Y116060D01*
X196526Y116103D01*
X196445Y116142D01*
X196363Y116178D01*
X196280Y116210D01*
X196196Y116238D01*
X196110Y116263D01*
X196023Y116284D01*
X195935Y116301D01*
X195847Y116315D01*
X195758Y116324D01*
X195669Y116330D01*
X195580Y116332D01*
X198882Y112522D02*
X198929Y112446D01*
X198979Y112372D01*
X199032Y112301D01*
X199089Y112232D01*
X199148Y112165D01*
X199210Y112101D01*
X199275Y112039D01*
X199343Y111981D01*
X199413Y111926D01*
X199485Y111873D01*
X199559Y111824D01*
X199636Y111778D01*
X199714Y111735D01*
X199795Y111696D01*
X199877Y111660D01*
X199960Y111628D01*
X200044Y111600D01*
X200130Y111575D01*
X200217Y111554D01*
X200305Y111537D01*
X200393Y111523D01*
X200482Y111514D01*
X200571Y111508D01*
X200660Y111506D01*
X198882Y112522D02*
X197358Y115316D01*
X193548Y107442D02*
X202692Y107442D01*
X193548Y107442D02*
X193548Y104902D01*
X193550Y104802D01*
X193556Y104703D01*
X193566Y104603D01*
X193579Y104505D01*
X193597Y104406D01*
X193618Y104309D01*
X193643Y104213D01*
X193672Y104117D01*
X193705Y104023D01*
X193741Y103930D01*
X193781Y103839D01*
X193825Y103749D01*
X193872Y103661D01*
X193922Y103575D01*
X193976Y103491D01*
X194033Y103409D01*
X194093Y103330D01*
X194157Y103252D01*
X194223Y103178D01*
X194292Y103106D01*
X194364Y103037D01*
X194438Y102971D01*
X194516Y102907D01*
X194595Y102847D01*
X194677Y102790D01*
X194761Y102736D01*
X194847Y102686D01*
X194935Y102639D01*
X195025Y102595D01*
X195116Y102555D01*
X195209Y102519D01*
X195303Y102486D01*
X195399Y102457D01*
X195495Y102432D01*
X195592Y102411D01*
X195691Y102393D01*
X195789Y102380D01*
X195889Y102370D01*
X195988Y102364D01*
X196088Y102362D01*
X200152Y102362D01*
X200252Y102364D01*
X200351Y102370D01*
X200451Y102380D01*
X200549Y102393D01*
X200648Y102411D01*
X200745Y102432D01*
X200841Y102457D01*
X200937Y102486D01*
X201031Y102519D01*
X201124Y102555D01*
X201215Y102595D01*
X201305Y102639D01*
X201393Y102686D01*
X201479Y102736D01*
X201563Y102790D01*
X201645Y102847D01*
X201724Y102907D01*
X201802Y102971D01*
X201876Y103037D01*
X201948Y103106D01*
X202017Y103178D01*
X202083Y103252D01*
X202147Y103330D01*
X202207Y103409D01*
X202264Y103491D01*
X202318Y103575D01*
X202368Y103661D01*
X202415Y103749D01*
X202459Y103839D01*
X202499Y103930D01*
X202535Y104023D01*
X202568Y104117D01*
X202597Y104213D01*
X202622Y104309D01*
X202643Y104406D01*
X202661Y104505D01*
X202674Y104603D01*
X202684Y104703D01*
X202690Y104802D01*
X202692Y104902D01*
X202692Y107442D01*
X202692Y98501D02*
X193548Y95453D01*
X202692Y92405D01*
X200406Y93167D02*
X200406Y97739D01*
X197612Y80112D02*
X197612Y78588D01*
X202692Y78588D01*
X202692Y81636D01*
X202690Y81725D01*
X202684Y81813D01*
X202675Y81901D01*
X202661Y81989D01*
X202644Y82076D01*
X202623Y82162D01*
X202598Y82247D01*
X202569Y82331D01*
X202537Y82414D01*
X202502Y82495D01*
X202462Y82574D01*
X202420Y82652D01*
X202374Y82728D01*
X202325Y82802D01*
X202272Y82873D01*
X202217Y82942D01*
X202158Y83009D01*
X202097Y83073D01*
X202033Y83134D01*
X201966Y83193D01*
X201897Y83248D01*
X201826Y83301D01*
X201752Y83350D01*
X201676Y83396D01*
X201598Y83438D01*
X201519Y83478D01*
X201438Y83513D01*
X201355Y83545D01*
X201271Y83574D01*
X201186Y83599D01*
X201100Y83620D01*
X201013Y83637D01*
X200925Y83651D01*
X200837Y83660D01*
X200749Y83666D01*
X200660Y83668D01*
X195580Y83668D01*
X195491Y83666D01*
X195403Y83660D01*
X195315Y83651D01*
X195227Y83637D01*
X195140Y83620D01*
X195054Y83599D01*
X194969Y83574D01*
X194885Y83545D01*
X194802Y83513D01*
X194721Y83478D01*
X194642Y83438D01*
X194564Y83396D01*
X194488Y83350D01*
X194414Y83301D01*
X194343Y83248D01*
X194274Y83193D01*
X194207Y83134D01*
X194143Y83073D01*
X194082Y83009D01*
X194023Y82942D01*
X193968Y82873D01*
X193915Y82802D01*
X193866Y82728D01*
X193820Y82652D01*
X193778Y82574D01*
X193738Y82495D01*
X193703Y82414D01*
X193671Y82331D01*
X193642Y82247D01*
X193617Y82162D01*
X193596Y82076D01*
X193579Y81989D01*
X193565Y81901D01*
X193556Y81813D01*
X193550Y81725D01*
X193548Y81636D01*
X193548Y78588D01*
X193548Y73914D02*
X202692Y73914D01*
X202692Y68834D02*
X193548Y73914D01*
X193548Y68834D02*
X202692Y68834D01*
X202692Y64161D02*
X193548Y64161D01*
X193548Y61621D01*
X193550Y61521D01*
X193556Y61422D01*
X193566Y61322D01*
X193579Y61224D01*
X193597Y61125D01*
X193618Y61028D01*
X193643Y60932D01*
X193672Y60836D01*
X193705Y60742D01*
X193741Y60649D01*
X193781Y60558D01*
X193825Y60468D01*
X193872Y60380D01*
X193922Y60294D01*
X193976Y60210D01*
X194033Y60128D01*
X194093Y60049D01*
X194157Y59971D01*
X194223Y59897D01*
X194292Y59825D01*
X194364Y59756D01*
X194438Y59690D01*
X194516Y59626D01*
X194595Y59566D01*
X194677Y59509D01*
X194761Y59455D01*
X194847Y59405D01*
X194935Y59358D01*
X195025Y59314D01*
X195116Y59274D01*
X195209Y59238D01*
X195303Y59205D01*
X195399Y59176D01*
X195495Y59151D01*
X195592Y59130D01*
X195691Y59112D01*
X195789Y59099D01*
X195889Y59089D01*
X195988Y59083D01*
X196088Y59081D01*
X200152Y59081D01*
X200252Y59083D01*
X200351Y59089D01*
X200451Y59099D01*
X200549Y59112D01*
X200648Y59130D01*
X200745Y59151D01*
X200841Y59176D01*
X200937Y59205D01*
X201031Y59238D01*
X201124Y59274D01*
X201215Y59314D01*
X201305Y59358D01*
X201393Y59405D01*
X201479Y59455D01*
X201563Y59509D01*
X201645Y59566D01*
X201724Y59626D01*
X201802Y59690D01*
X201876Y59756D01*
X201948Y59825D01*
X202017Y59897D01*
X202083Y59971D01*
X202147Y60049D01*
X202207Y60128D01*
X202264Y60210D01*
X202318Y60294D01*
X202368Y60380D01*
X202415Y60468D01*
X202459Y60558D01*
X202499Y60649D01*
X202535Y60742D01*
X202568Y60836D01*
X202597Y60932D01*
X202622Y61028D01*
X202643Y61125D01*
X202661Y61224D01*
X202674Y61322D01*
X202684Y61422D01*
X202690Y61521D01*
X202692Y61621D01*
X202692Y64161D01*
X202692Y49835D02*
X202692Y47295D01*
X202690Y47195D01*
X202684Y47096D01*
X202674Y46996D01*
X202661Y46898D01*
X202643Y46799D01*
X202622Y46702D01*
X202597Y46606D01*
X202568Y46510D01*
X202535Y46416D01*
X202499Y46323D01*
X202459Y46232D01*
X202415Y46142D01*
X202368Y46054D01*
X202318Y45968D01*
X202264Y45884D01*
X202207Y45802D01*
X202147Y45723D01*
X202083Y45645D01*
X202017Y45571D01*
X201948Y45499D01*
X201876Y45430D01*
X201802Y45364D01*
X201724Y45300D01*
X201645Y45240D01*
X201563Y45183D01*
X201479Y45129D01*
X201393Y45079D01*
X201305Y45032D01*
X201215Y44988D01*
X201124Y44948D01*
X201031Y44912D01*
X200937Y44879D01*
X200841Y44850D01*
X200745Y44825D01*
X200648Y44804D01*
X200549Y44786D01*
X200451Y44773D01*
X200351Y44763D01*
X200252Y44757D01*
X200152Y44755D01*
X200052Y44757D01*
X199953Y44763D01*
X199853Y44773D01*
X199755Y44786D01*
X199656Y44804D01*
X199559Y44825D01*
X199463Y44850D01*
X199367Y44879D01*
X199273Y44912D01*
X199180Y44948D01*
X199089Y44988D01*
X198999Y45032D01*
X198911Y45079D01*
X198825Y45129D01*
X198741Y45183D01*
X198659Y45240D01*
X198580Y45300D01*
X198502Y45364D01*
X198428Y45430D01*
X198356Y45499D01*
X198287Y45571D01*
X198221Y45645D01*
X198157Y45723D01*
X198097Y45802D01*
X198040Y45884D01*
X197986Y45968D01*
X197936Y46054D01*
X197889Y46142D01*
X197845Y46232D01*
X197805Y46323D01*
X197769Y46416D01*
X197736Y46510D01*
X197707Y46606D01*
X197682Y46702D01*
X197661Y46799D01*
X197643Y46898D01*
X197630Y46996D01*
X197620Y47096D01*
X197614Y47195D01*
X197612Y47295D01*
X193548Y46787D02*
X193548Y49835D01*
X193548Y46787D02*
X193550Y46698D01*
X193556Y46610D01*
X193565Y46522D01*
X193579Y46434D01*
X193596Y46347D01*
X193617Y46261D01*
X193642Y46176D01*
X193671Y46092D01*
X193703Y46009D01*
X193738Y45928D01*
X193778Y45849D01*
X193820Y45771D01*
X193866Y45695D01*
X193915Y45621D01*
X193968Y45550D01*
X194023Y45481D01*
X194082Y45414D01*
X194143Y45350D01*
X194207Y45289D01*
X194274Y45230D01*
X194343Y45175D01*
X194414Y45122D01*
X194488Y45073D01*
X194564Y45027D01*
X194642Y44985D01*
X194721Y44945D01*
X194802Y44910D01*
X194885Y44878D01*
X194969Y44849D01*
X195054Y44824D01*
X195140Y44803D01*
X195227Y44786D01*
X195315Y44772D01*
X195403Y44763D01*
X195491Y44757D01*
X195580Y44755D01*
X195669Y44757D01*
X195757Y44763D01*
X195845Y44772D01*
X195933Y44786D01*
X196020Y44803D01*
X196106Y44824D01*
X196191Y44849D01*
X196275Y44878D01*
X196358Y44910D01*
X196439Y44945D01*
X196518Y44985D01*
X196596Y45027D01*
X196672Y45073D01*
X196746Y45122D01*
X196817Y45175D01*
X196886Y45230D01*
X196953Y45289D01*
X197017Y45350D01*
X197078Y45414D01*
X197137Y45481D01*
X197192Y45550D01*
X197245Y45621D01*
X197294Y45695D01*
X197340Y45771D01*
X197382Y45849D01*
X197422Y45928D01*
X197457Y46009D01*
X197489Y46092D01*
X197518Y46176D01*
X197543Y46261D01*
X197564Y46347D01*
X197581Y46434D01*
X197595Y46522D01*
X197604Y46610D01*
X197610Y46698D01*
X197612Y46787D01*
X197612Y48819D01*
X193548Y41199D02*
X202692Y38151D01*
X193548Y35103D01*
X202692Y31547D02*
X202692Y29007D01*
X202690Y28907D01*
X202684Y28808D01*
X202674Y28708D01*
X202661Y28610D01*
X202643Y28511D01*
X202622Y28414D01*
X202597Y28318D01*
X202568Y28222D01*
X202535Y28128D01*
X202499Y28035D01*
X202459Y27944D01*
X202415Y27854D01*
X202368Y27766D01*
X202318Y27680D01*
X202264Y27596D01*
X202207Y27514D01*
X202147Y27435D01*
X202083Y27357D01*
X202017Y27283D01*
X201948Y27211D01*
X201876Y27142D01*
X201802Y27076D01*
X201724Y27012D01*
X201645Y26952D01*
X201563Y26895D01*
X201479Y26841D01*
X201393Y26791D01*
X201305Y26744D01*
X201215Y26700D01*
X201124Y26660D01*
X201031Y26624D01*
X200937Y26591D01*
X200841Y26562D01*
X200745Y26537D01*
X200648Y26516D01*
X200549Y26498D01*
X200451Y26485D01*
X200351Y26475D01*
X200252Y26469D01*
X200152Y26467D01*
X200052Y26469D01*
X199953Y26475D01*
X199853Y26485D01*
X199755Y26498D01*
X199656Y26516D01*
X199559Y26537D01*
X199463Y26562D01*
X199367Y26591D01*
X199273Y26624D01*
X199180Y26660D01*
X199089Y26700D01*
X198999Y26744D01*
X198911Y26791D01*
X198825Y26841D01*
X198741Y26895D01*
X198659Y26952D01*
X198580Y27012D01*
X198502Y27076D01*
X198428Y27142D01*
X198356Y27211D01*
X198287Y27283D01*
X198221Y27357D01*
X198157Y27435D01*
X198097Y27514D01*
X198040Y27596D01*
X197986Y27680D01*
X197936Y27766D01*
X197889Y27854D01*
X197845Y27944D01*
X197805Y28035D01*
X197769Y28128D01*
X197736Y28222D01*
X197707Y28318D01*
X197682Y28414D01*
X197661Y28511D01*
X197643Y28610D01*
X197630Y28708D01*
X197620Y28808D01*
X197614Y28907D01*
X197612Y29007D01*
X193548Y28499D02*
X193548Y31547D01*
X193548Y28499D02*
X193550Y28410D01*
X193556Y28322D01*
X193565Y28234D01*
X193579Y28146D01*
X193596Y28059D01*
X193617Y27973D01*
X193642Y27888D01*
X193671Y27804D01*
X193703Y27721D01*
X193738Y27640D01*
X193778Y27561D01*
X193820Y27483D01*
X193866Y27407D01*
X193915Y27333D01*
X193968Y27262D01*
X194023Y27193D01*
X194082Y27126D01*
X194143Y27062D01*
X194207Y27001D01*
X194274Y26942D01*
X194343Y26887D01*
X194414Y26834D01*
X194488Y26785D01*
X194564Y26739D01*
X194642Y26697D01*
X194721Y26657D01*
X194802Y26622D01*
X194885Y26590D01*
X194969Y26561D01*
X195054Y26536D01*
X195140Y26515D01*
X195227Y26498D01*
X195315Y26484D01*
X195403Y26475D01*
X195491Y26469D01*
X195580Y26467D01*
X195669Y26469D01*
X195757Y26475D01*
X195845Y26484D01*
X195933Y26498D01*
X196020Y26515D01*
X196106Y26536D01*
X196191Y26561D01*
X196275Y26590D01*
X196358Y26622D01*
X196439Y26657D01*
X196518Y26697D01*
X196596Y26739D01*
X196672Y26785D01*
X196746Y26834D01*
X196817Y26887D01*
X196886Y26942D01*
X196953Y27001D01*
X197017Y27062D01*
X197078Y27126D01*
X197137Y27193D01*
X197192Y27262D01*
X197245Y27333D01*
X197294Y27407D01*
X197340Y27483D01*
X197382Y27561D01*
X197422Y27640D01*
X197457Y27721D01*
X197489Y27804D01*
X197518Y27888D01*
X197543Y27973D01*
X197564Y28059D01*
X197581Y28146D01*
X197595Y28234D01*
X197604Y28322D01*
X197610Y28410D01*
X197612Y28499D01*
X197612Y30531D01*
D12*
X174625Y15875D02*
X174625Y149225D01*
X174625Y15875D02*
X212725Y15875D01*
X212725Y41275D01*
X212725Y123825D01*
X212725Y149225D01*
X174625Y149225D01*
X212725Y149225D02*
X228600Y149225D01*
X228600Y123825D01*
X212725Y123825D01*
X212725Y15875D02*
X228600Y15875D01*
X228600Y41275D01*
X212725Y41275D01*
D11*
X85852Y219456D02*
X78740Y219456D01*
X78651Y219454D01*
X78563Y219448D01*
X78475Y219439D01*
X78387Y219425D01*
X78300Y219408D01*
X78214Y219387D01*
X78129Y219362D01*
X78045Y219333D01*
X77962Y219301D01*
X77881Y219266D01*
X77802Y219226D01*
X77724Y219184D01*
X77648Y219138D01*
X77574Y219089D01*
X77503Y219036D01*
X77434Y218981D01*
X77367Y218922D01*
X77303Y218861D01*
X77242Y218797D01*
X77183Y218730D01*
X77128Y218661D01*
X77075Y218590D01*
X77026Y218516D01*
X76980Y218440D01*
X76938Y218362D01*
X76898Y218283D01*
X76863Y218202D01*
X76831Y218119D01*
X76802Y218035D01*
X76777Y217950D01*
X76756Y217864D01*
X76739Y217777D01*
X76725Y217689D01*
X76716Y217601D01*
X76710Y217513D01*
X76708Y217424D01*
X76708Y216408D01*
X76708Y223783D02*
X76708Y226323D01*
X76710Y226423D01*
X76716Y226522D01*
X76726Y226622D01*
X76739Y226720D01*
X76757Y226819D01*
X76778Y226916D01*
X76803Y227012D01*
X76832Y227108D01*
X76865Y227202D01*
X76901Y227295D01*
X76941Y227386D01*
X76985Y227476D01*
X77032Y227564D01*
X77082Y227650D01*
X77136Y227734D01*
X77193Y227816D01*
X77253Y227895D01*
X77317Y227973D01*
X77383Y228047D01*
X77452Y228119D01*
X77524Y228188D01*
X77598Y228254D01*
X77676Y228318D01*
X77755Y228378D01*
X77837Y228435D01*
X77921Y228489D01*
X78007Y228539D01*
X78095Y228586D01*
X78185Y228630D01*
X78276Y228670D01*
X78369Y228706D01*
X78463Y228739D01*
X78559Y228768D01*
X78655Y228793D01*
X78752Y228814D01*
X78851Y228832D01*
X78949Y228845D01*
X79049Y228855D01*
X79148Y228861D01*
X79248Y228863D01*
X79348Y228861D01*
X79447Y228855D01*
X79547Y228845D01*
X79645Y228832D01*
X79744Y228814D01*
X79841Y228793D01*
X79937Y228768D01*
X80033Y228739D01*
X80127Y228706D01*
X80220Y228670D01*
X80311Y228630D01*
X80401Y228586D01*
X80489Y228539D01*
X80575Y228489D01*
X80659Y228435D01*
X80741Y228378D01*
X80820Y228318D01*
X80898Y228254D01*
X80972Y228188D01*
X81044Y228119D01*
X81113Y228047D01*
X81179Y227973D01*
X81243Y227895D01*
X81303Y227816D01*
X81360Y227734D01*
X81414Y227650D01*
X81464Y227564D01*
X81511Y227476D01*
X81555Y227386D01*
X81595Y227295D01*
X81631Y227202D01*
X81664Y227108D01*
X81693Y227012D01*
X81718Y226916D01*
X81739Y226819D01*
X81757Y226720D01*
X81770Y226622D01*
X81780Y226522D01*
X81786Y226423D01*
X81788Y226323D01*
X85852Y226831D02*
X85852Y223783D01*
X85852Y226831D02*
X85850Y226920D01*
X85844Y227008D01*
X85835Y227096D01*
X85821Y227184D01*
X85804Y227271D01*
X85783Y227357D01*
X85758Y227442D01*
X85729Y227526D01*
X85697Y227609D01*
X85662Y227690D01*
X85622Y227769D01*
X85580Y227847D01*
X85534Y227923D01*
X85485Y227997D01*
X85432Y228068D01*
X85377Y228137D01*
X85318Y228204D01*
X85257Y228268D01*
X85193Y228329D01*
X85126Y228388D01*
X85057Y228443D01*
X84986Y228496D01*
X84912Y228545D01*
X84836Y228591D01*
X84758Y228633D01*
X84679Y228673D01*
X84598Y228708D01*
X84515Y228740D01*
X84431Y228769D01*
X84346Y228794D01*
X84260Y228815D01*
X84173Y228832D01*
X84085Y228846D01*
X83997Y228855D01*
X83909Y228861D01*
X83820Y228863D01*
X83731Y228861D01*
X83643Y228855D01*
X83555Y228846D01*
X83467Y228832D01*
X83380Y228815D01*
X83294Y228794D01*
X83209Y228769D01*
X83125Y228740D01*
X83042Y228708D01*
X82961Y228673D01*
X82882Y228633D01*
X82804Y228591D01*
X82728Y228545D01*
X82654Y228496D01*
X82583Y228443D01*
X82514Y228388D01*
X82447Y228329D01*
X82383Y228268D01*
X82322Y228204D01*
X82263Y228137D01*
X82208Y228068D01*
X82155Y227997D01*
X82106Y227923D01*
X82060Y227847D01*
X82018Y227769D01*
X81978Y227690D01*
X81943Y227609D01*
X81911Y227526D01*
X81882Y227442D01*
X81857Y227357D01*
X81836Y227271D01*
X81819Y227184D01*
X81805Y227096D01*
X81796Y227008D01*
X81790Y226920D01*
X81788Y226831D01*
X81788Y224799D01*
X79502Y175006D02*
X70358Y171958D01*
X70358Y178054D02*
X79502Y175006D01*
X72644Y177292D02*
X72644Y172720D01*
X74930Y181610D02*
X75110Y181612D01*
X75290Y181619D01*
X75469Y181629D01*
X75648Y181644D01*
X75827Y181664D01*
X76006Y181687D01*
X76183Y181715D01*
X76360Y181747D01*
X76537Y181783D01*
X76712Y181824D01*
X76886Y181868D01*
X77059Y181917D01*
X77231Y181970D01*
X77402Y182027D01*
X77571Y182088D01*
X77739Y182153D01*
X77905Y182222D01*
X78069Y182295D01*
X78232Y182372D01*
X78310Y182400D01*
X78387Y182433D01*
X78462Y182468D01*
X78536Y182507D01*
X78608Y182549D01*
X78677Y182594D01*
X78745Y182643D01*
X78811Y182694D01*
X78874Y182748D01*
X78935Y182805D01*
X78994Y182864D01*
X79049Y182926D01*
X79102Y182991D01*
X79152Y183057D01*
X79199Y183126D01*
X79243Y183197D01*
X79283Y183270D01*
X79320Y183344D01*
X79355Y183420D01*
X79385Y183498D01*
X79412Y183576D01*
X79436Y183656D01*
X79456Y183737D01*
X79473Y183819D01*
X79485Y183901D01*
X79495Y183984D01*
X79500Y184067D01*
X79502Y184150D01*
X79500Y184233D01*
X79495Y184316D01*
X79485Y184399D01*
X79473Y184481D01*
X79456Y184563D01*
X79436Y184644D01*
X79412Y184724D01*
X79385Y184802D01*
X79355Y184880D01*
X79320Y184956D01*
X79283Y185030D01*
X79243Y185103D01*
X79199Y185174D01*
X79152Y185243D01*
X79102Y185309D01*
X79049Y185374D01*
X78994Y185436D01*
X78935Y185495D01*
X78874Y185552D01*
X78811Y185606D01*
X78745Y185657D01*
X78677Y185706D01*
X78608Y185751D01*
X78536Y185793D01*
X78462Y185832D01*
X78387Y185867D01*
X78310Y185900D01*
X78232Y185928D01*
X78069Y186005D01*
X77905Y186078D01*
X77739Y186147D01*
X77571Y186212D01*
X77402Y186273D01*
X77231Y186330D01*
X77059Y186383D01*
X76886Y186432D01*
X76712Y186476D01*
X76537Y186517D01*
X76360Y186553D01*
X76183Y186585D01*
X76006Y186613D01*
X75827Y186636D01*
X75648Y186656D01*
X75469Y186671D01*
X75290Y186681D01*
X75110Y186688D01*
X74930Y186690D01*
X74930Y181610D02*
X74750Y181612D01*
X74570Y181619D01*
X74391Y181629D01*
X74212Y181644D01*
X74033Y181664D01*
X73854Y181687D01*
X73677Y181715D01*
X73500Y181747D01*
X73323Y181783D01*
X73148Y181824D01*
X72974Y181868D01*
X72801Y181917D01*
X72629Y181970D01*
X72458Y182027D01*
X72289Y182088D01*
X72121Y182153D01*
X71955Y182222D01*
X71791Y182295D01*
X71628Y182372D01*
X71550Y182400D01*
X71473Y182433D01*
X71398Y182468D01*
X71324Y182507D01*
X71252Y182549D01*
X71183Y182594D01*
X71115Y182643D01*
X71049Y182694D01*
X70986Y182748D01*
X70925Y182805D01*
X70866Y182864D01*
X70811Y182926D01*
X70758Y182991D01*
X70708Y183057D01*
X70661Y183126D01*
X70617Y183197D01*
X70577Y183270D01*
X70540Y183344D01*
X70505Y183420D01*
X70475Y183498D01*
X70448Y183576D01*
X70424Y183656D01*
X70404Y183737D01*
X70387Y183819D01*
X70375Y183901D01*
X70365Y183984D01*
X70360Y184067D01*
X70358Y184150D01*
X71628Y185928D02*
X71791Y186005D01*
X71955Y186078D01*
X72121Y186147D01*
X72289Y186212D01*
X72458Y186273D01*
X72629Y186330D01*
X72801Y186383D01*
X72974Y186432D01*
X73148Y186476D01*
X73323Y186517D01*
X73500Y186553D01*
X73677Y186585D01*
X73854Y186613D01*
X74033Y186636D01*
X74212Y186656D01*
X74391Y186671D01*
X74570Y186681D01*
X74750Y186688D01*
X74930Y186690D01*
X71628Y185928D02*
X71550Y185900D01*
X71473Y185867D01*
X71398Y185832D01*
X71324Y185793D01*
X71252Y185751D01*
X71183Y185706D01*
X71115Y185657D01*
X71049Y185606D01*
X70986Y185552D01*
X70925Y185495D01*
X70866Y185436D01*
X70811Y185374D01*
X70758Y185309D01*
X70708Y185243D01*
X70661Y185174D01*
X70617Y185103D01*
X70577Y185030D01*
X70540Y184956D01*
X70505Y184880D01*
X70475Y184802D01*
X70448Y184724D01*
X70424Y184644D01*
X70404Y184563D01*
X70387Y184481D01*
X70375Y184399D01*
X70365Y184316D01*
X70360Y184233D01*
X70358Y184150D01*
X72390Y182118D02*
X77470Y186182D01*
X79502Y195936D02*
X70358Y195936D01*
X79502Y195936D02*
X79502Y198476D01*
X79500Y198576D01*
X79494Y198675D01*
X79484Y198775D01*
X79471Y198873D01*
X79453Y198972D01*
X79432Y199069D01*
X79407Y199165D01*
X79378Y199261D01*
X79345Y199355D01*
X79309Y199448D01*
X79269Y199539D01*
X79225Y199629D01*
X79178Y199717D01*
X79128Y199803D01*
X79074Y199887D01*
X79017Y199969D01*
X78957Y200048D01*
X78893Y200126D01*
X78827Y200200D01*
X78758Y200272D01*
X78686Y200341D01*
X78612Y200407D01*
X78534Y200471D01*
X78455Y200531D01*
X78373Y200588D01*
X78289Y200642D01*
X78203Y200692D01*
X78115Y200739D01*
X78025Y200783D01*
X77934Y200823D01*
X77841Y200859D01*
X77747Y200892D01*
X77651Y200921D01*
X77555Y200946D01*
X77458Y200967D01*
X77359Y200985D01*
X77261Y200998D01*
X77161Y201008D01*
X77062Y201014D01*
X76962Y201016D01*
X72898Y201016D01*
X72798Y201014D01*
X72699Y201008D01*
X72599Y200998D01*
X72501Y200985D01*
X72402Y200967D01*
X72305Y200946D01*
X72209Y200921D01*
X72113Y200892D01*
X72019Y200859D01*
X71926Y200823D01*
X71835Y200783D01*
X71745Y200739D01*
X71657Y200692D01*
X71571Y200642D01*
X71487Y200588D01*
X71405Y200531D01*
X71326Y200471D01*
X71248Y200407D01*
X71174Y200341D01*
X71102Y200272D01*
X71033Y200200D01*
X70967Y200126D01*
X70903Y200048D01*
X70843Y199969D01*
X70786Y199887D01*
X70732Y199803D01*
X70682Y199717D01*
X70635Y199629D01*
X70591Y199539D01*
X70551Y199448D01*
X70515Y199355D01*
X70482Y199261D01*
X70453Y199165D01*
X70428Y199069D01*
X70407Y198972D01*
X70389Y198873D01*
X70376Y198775D01*
X70366Y198675D01*
X70360Y198576D01*
X70358Y198476D01*
X70358Y195936D01*
X72390Y205384D02*
X79502Y207416D01*
X72390Y205384D02*
X72390Y210464D01*
X74422Y208940D02*
X70358Y208940D01*
X75438Y223266D02*
X75438Y224790D01*
X70358Y224790D01*
X70358Y221742D01*
X70360Y221653D01*
X70366Y221565D01*
X70375Y221477D01*
X70389Y221389D01*
X70406Y221302D01*
X70427Y221216D01*
X70452Y221131D01*
X70481Y221047D01*
X70513Y220964D01*
X70548Y220883D01*
X70588Y220804D01*
X70630Y220726D01*
X70676Y220650D01*
X70725Y220576D01*
X70778Y220505D01*
X70833Y220436D01*
X70892Y220369D01*
X70953Y220305D01*
X71017Y220244D01*
X71084Y220185D01*
X71153Y220130D01*
X71224Y220077D01*
X71298Y220028D01*
X71374Y219982D01*
X71452Y219940D01*
X71531Y219900D01*
X71612Y219865D01*
X71695Y219833D01*
X71779Y219804D01*
X71864Y219779D01*
X71950Y219758D01*
X72037Y219741D01*
X72125Y219727D01*
X72213Y219718D01*
X72301Y219712D01*
X72390Y219710D01*
X77470Y219710D01*
X77559Y219712D01*
X77647Y219718D01*
X77735Y219727D01*
X77823Y219741D01*
X77910Y219758D01*
X77996Y219779D01*
X78081Y219804D01*
X78165Y219833D01*
X78248Y219865D01*
X78329Y219900D01*
X78408Y219940D01*
X78486Y219982D01*
X78562Y220028D01*
X78636Y220077D01*
X78707Y220130D01*
X78776Y220185D01*
X78843Y220244D01*
X78907Y220305D01*
X78968Y220369D01*
X79027Y220436D01*
X79082Y220505D01*
X79135Y220576D01*
X79184Y220650D01*
X79230Y220726D01*
X79272Y220804D01*
X79312Y220883D01*
X79347Y220964D01*
X79379Y221047D01*
X79408Y221131D01*
X79433Y221216D01*
X79454Y221302D01*
X79471Y221389D01*
X79485Y221477D01*
X79494Y221565D01*
X79500Y221653D01*
X79502Y221742D01*
X79502Y224790D01*
X79502Y229463D02*
X70358Y229463D01*
X70358Y234543D02*
X79502Y229463D01*
X79502Y234543D02*
X70358Y234543D01*
X70358Y239217D02*
X79502Y239217D01*
X79502Y241757D01*
X79500Y241857D01*
X79494Y241956D01*
X79484Y242056D01*
X79471Y242154D01*
X79453Y242253D01*
X79432Y242350D01*
X79407Y242446D01*
X79378Y242542D01*
X79345Y242636D01*
X79309Y242729D01*
X79269Y242820D01*
X79225Y242910D01*
X79178Y242998D01*
X79128Y243084D01*
X79074Y243168D01*
X79017Y243250D01*
X78957Y243329D01*
X78893Y243407D01*
X78827Y243481D01*
X78758Y243553D01*
X78686Y243622D01*
X78612Y243688D01*
X78534Y243752D01*
X78455Y243812D01*
X78373Y243869D01*
X78289Y243923D01*
X78203Y243973D01*
X78115Y244020D01*
X78025Y244064D01*
X77934Y244104D01*
X77841Y244140D01*
X77747Y244173D01*
X77651Y244202D01*
X77555Y244227D01*
X77458Y244248D01*
X77359Y244266D01*
X77261Y244279D01*
X77161Y244289D01*
X77062Y244295D01*
X76962Y244297D01*
X72898Y244297D01*
X72798Y244295D01*
X72699Y244289D01*
X72599Y244279D01*
X72501Y244266D01*
X72402Y244248D01*
X72305Y244227D01*
X72209Y244202D01*
X72113Y244173D01*
X72019Y244140D01*
X71926Y244104D01*
X71835Y244064D01*
X71745Y244020D01*
X71657Y243973D01*
X71571Y243923D01*
X71487Y243869D01*
X71405Y243812D01*
X71326Y243752D01*
X71248Y243688D01*
X71174Y243622D01*
X71102Y243553D01*
X71033Y243481D01*
X70967Y243407D01*
X70903Y243329D01*
X70843Y243250D01*
X70786Y243168D01*
X70732Y243084D01*
X70682Y242998D01*
X70635Y242910D01*
X70591Y242820D01*
X70551Y242729D01*
X70515Y242636D01*
X70482Y242542D01*
X70453Y242446D01*
X70428Y242350D01*
X70407Y242253D01*
X70389Y242154D01*
X70376Y242056D01*
X70366Y241956D01*
X70360Y241857D01*
X70358Y241757D01*
X70358Y239217D01*
X70358Y253542D02*
X70358Y256082D01*
X70360Y256182D01*
X70366Y256281D01*
X70376Y256381D01*
X70389Y256479D01*
X70407Y256578D01*
X70428Y256675D01*
X70453Y256771D01*
X70482Y256867D01*
X70515Y256961D01*
X70551Y257054D01*
X70591Y257145D01*
X70635Y257235D01*
X70682Y257323D01*
X70732Y257409D01*
X70786Y257493D01*
X70843Y257575D01*
X70903Y257654D01*
X70967Y257732D01*
X71033Y257806D01*
X71102Y257878D01*
X71174Y257947D01*
X71248Y258013D01*
X71326Y258077D01*
X71405Y258137D01*
X71487Y258194D01*
X71571Y258248D01*
X71657Y258298D01*
X71745Y258345D01*
X71835Y258389D01*
X71926Y258429D01*
X72019Y258465D01*
X72113Y258498D01*
X72209Y258527D01*
X72305Y258552D01*
X72402Y258573D01*
X72501Y258591D01*
X72599Y258604D01*
X72699Y258614D01*
X72798Y258620D01*
X72898Y258622D01*
X72998Y258620D01*
X73097Y258614D01*
X73197Y258604D01*
X73295Y258591D01*
X73394Y258573D01*
X73491Y258552D01*
X73587Y258527D01*
X73683Y258498D01*
X73777Y258465D01*
X73870Y258429D01*
X73961Y258389D01*
X74051Y258345D01*
X74139Y258298D01*
X74225Y258248D01*
X74309Y258194D01*
X74391Y258137D01*
X74470Y258077D01*
X74548Y258013D01*
X74622Y257947D01*
X74694Y257878D01*
X74763Y257806D01*
X74829Y257732D01*
X74893Y257654D01*
X74953Y257575D01*
X75010Y257493D01*
X75064Y257409D01*
X75114Y257323D01*
X75161Y257235D01*
X75205Y257145D01*
X75245Y257054D01*
X75281Y256961D01*
X75314Y256867D01*
X75343Y256771D01*
X75368Y256675D01*
X75389Y256578D01*
X75407Y256479D01*
X75420Y256381D01*
X75430Y256281D01*
X75436Y256182D01*
X75438Y256082D01*
X79502Y256590D02*
X79502Y253542D01*
X79502Y256590D02*
X79500Y256679D01*
X79494Y256767D01*
X79485Y256855D01*
X79471Y256943D01*
X79454Y257030D01*
X79433Y257116D01*
X79408Y257201D01*
X79379Y257285D01*
X79347Y257368D01*
X79312Y257449D01*
X79272Y257528D01*
X79230Y257606D01*
X79184Y257682D01*
X79135Y257756D01*
X79082Y257827D01*
X79027Y257896D01*
X78968Y257963D01*
X78907Y258027D01*
X78843Y258088D01*
X78776Y258147D01*
X78707Y258202D01*
X78636Y258255D01*
X78562Y258304D01*
X78486Y258350D01*
X78408Y258392D01*
X78329Y258432D01*
X78248Y258467D01*
X78165Y258499D01*
X78081Y258528D01*
X77996Y258553D01*
X77910Y258574D01*
X77823Y258591D01*
X77735Y258605D01*
X77647Y258614D01*
X77559Y258620D01*
X77470Y258622D01*
X77381Y258620D01*
X77293Y258614D01*
X77205Y258605D01*
X77117Y258591D01*
X77030Y258574D01*
X76944Y258553D01*
X76859Y258528D01*
X76775Y258499D01*
X76692Y258467D01*
X76611Y258432D01*
X76532Y258392D01*
X76454Y258350D01*
X76378Y258304D01*
X76304Y258255D01*
X76233Y258202D01*
X76164Y258147D01*
X76097Y258088D01*
X76033Y258027D01*
X75972Y257963D01*
X75913Y257896D01*
X75858Y257827D01*
X75805Y257756D01*
X75756Y257682D01*
X75710Y257606D01*
X75668Y257528D01*
X75628Y257449D01*
X75593Y257368D01*
X75561Y257285D01*
X75532Y257201D01*
X75507Y257116D01*
X75486Y257030D01*
X75469Y256943D01*
X75455Y256855D01*
X75446Y256767D01*
X75440Y256679D01*
X75438Y256590D01*
X75438Y254558D01*
X79502Y262178D02*
X70358Y265226D01*
X79502Y268274D01*
X70358Y271830D02*
X70358Y274370D01*
X70360Y274470D01*
X70366Y274569D01*
X70376Y274669D01*
X70389Y274767D01*
X70407Y274866D01*
X70428Y274963D01*
X70453Y275059D01*
X70482Y275155D01*
X70515Y275249D01*
X70551Y275342D01*
X70591Y275433D01*
X70635Y275523D01*
X70682Y275611D01*
X70732Y275697D01*
X70786Y275781D01*
X70843Y275863D01*
X70903Y275942D01*
X70967Y276020D01*
X71033Y276094D01*
X71102Y276166D01*
X71174Y276235D01*
X71248Y276301D01*
X71326Y276365D01*
X71405Y276425D01*
X71487Y276482D01*
X71571Y276536D01*
X71657Y276586D01*
X71745Y276633D01*
X71835Y276677D01*
X71926Y276717D01*
X72019Y276753D01*
X72113Y276786D01*
X72209Y276815D01*
X72305Y276840D01*
X72402Y276861D01*
X72501Y276879D01*
X72599Y276892D01*
X72699Y276902D01*
X72798Y276908D01*
X72898Y276910D01*
X72998Y276908D01*
X73097Y276902D01*
X73197Y276892D01*
X73295Y276879D01*
X73394Y276861D01*
X73491Y276840D01*
X73587Y276815D01*
X73683Y276786D01*
X73777Y276753D01*
X73870Y276717D01*
X73961Y276677D01*
X74051Y276633D01*
X74139Y276586D01*
X74225Y276536D01*
X74309Y276482D01*
X74391Y276425D01*
X74470Y276365D01*
X74548Y276301D01*
X74622Y276235D01*
X74694Y276166D01*
X74763Y276094D01*
X74829Y276020D01*
X74893Y275942D01*
X74953Y275863D01*
X75010Y275781D01*
X75064Y275697D01*
X75114Y275611D01*
X75161Y275523D01*
X75205Y275433D01*
X75245Y275342D01*
X75281Y275249D01*
X75314Y275155D01*
X75343Y275059D01*
X75368Y274963D01*
X75389Y274866D01*
X75407Y274767D01*
X75420Y274669D01*
X75430Y274569D01*
X75436Y274470D01*
X75438Y274370D01*
X79502Y274878D02*
X79502Y271830D01*
X79502Y274878D02*
X79500Y274967D01*
X79494Y275055D01*
X79485Y275143D01*
X79471Y275231D01*
X79454Y275318D01*
X79433Y275404D01*
X79408Y275489D01*
X79379Y275573D01*
X79347Y275656D01*
X79312Y275737D01*
X79272Y275816D01*
X79230Y275894D01*
X79184Y275970D01*
X79135Y276044D01*
X79082Y276115D01*
X79027Y276184D01*
X78968Y276251D01*
X78907Y276315D01*
X78843Y276376D01*
X78776Y276435D01*
X78707Y276490D01*
X78636Y276543D01*
X78562Y276592D01*
X78486Y276638D01*
X78408Y276680D01*
X78329Y276720D01*
X78248Y276755D01*
X78165Y276787D01*
X78081Y276816D01*
X77996Y276841D01*
X77910Y276862D01*
X77823Y276879D01*
X77735Y276893D01*
X77647Y276902D01*
X77559Y276908D01*
X77470Y276910D01*
X77381Y276908D01*
X77293Y276902D01*
X77205Y276893D01*
X77117Y276879D01*
X77030Y276862D01*
X76944Y276841D01*
X76859Y276816D01*
X76775Y276787D01*
X76692Y276755D01*
X76611Y276720D01*
X76532Y276680D01*
X76454Y276638D01*
X76378Y276592D01*
X76304Y276543D01*
X76233Y276490D01*
X76164Y276435D01*
X76097Y276376D01*
X76033Y276315D01*
X75972Y276251D01*
X75913Y276184D01*
X75858Y276115D01*
X75805Y276044D01*
X75756Y275970D01*
X75710Y275894D01*
X75668Y275816D01*
X75628Y275737D01*
X75593Y275656D01*
X75561Y275573D01*
X75532Y275489D01*
X75507Y275404D01*
X75486Y275318D01*
X75469Y275231D01*
X75455Y275143D01*
X75446Y275055D01*
X75440Y274967D01*
X75438Y274878D01*
X75438Y272846D01*
D12*
X92075Y288925D02*
X92075Y155575D01*
X92075Y288925D02*
X53975Y288925D01*
X53975Y263525D01*
X53975Y180975D01*
X53975Y155575D01*
X92075Y155575D01*
X53975Y155575D02*
X38100Y155575D01*
X38100Y180975D01*
X53975Y180975D01*
X53975Y288925D02*
X38100Y288925D01*
X38100Y263525D01*
X53975Y263525D01*
D11*
X180848Y225044D02*
X187960Y225044D01*
X188049Y225046D01*
X188137Y225052D01*
X188225Y225061D01*
X188313Y225075D01*
X188400Y225092D01*
X188486Y225113D01*
X188571Y225138D01*
X188655Y225167D01*
X188738Y225199D01*
X188819Y225234D01*
X188898Y225274D01*
X188976Y225316D01*
X189052Y225362D01*
X189126Y225411D01*
X189197Y225464D01*
X189266Y225519D01*
X189333Y225578D01*
X189397Y225639D01*
X189458Y225703D01*
X189517Y225770D01*
X189572Y225839D01*
X189625Y225910D01*
X189674Y225984D01*
X189720Y226060D01*
X189762Y226138D01*
X189802Y226217D01*
X189837Y226298D01*
X189869Y226381D01*
X189898Y226465D01*
X189923Y226550D01*
X189944Y226636D01*
X189961Y226723D01*
X189975Y226811D01*
X189984Y226899D01*
X189990Y226987D01*
X189992Y227076D01*
X189992Y228092D01*
X180848Y217923D02*
X180850Y217829D01*
X180856Y217734D01*
X180866Y217640D01*
X180879Y217547D01*
X180897Y217454D01*
X180918Y217362D01*
X180943Y217271D01*
X180972Y217181D01*
X181004Y217092D01*
X181041Y217005D01*
X181080Y216919D01*
X181124Y216835D01*
X181170Y216753D01*
X181220Y216673D01*
X181274Y216595D01*
X181330Y216519D01*
X181390Y216446D01*
X181452Y216375D01*
X181518Y216307D01*
X181586Y216241D01*
X181657Y216179D01*
X181730Y216119D01*
X181806Y216063D01*
X181884Y216009D01*
X181964Y215959D01*
X182046Y215913D01*
X182130Y215869D01*
X182216Y215830D01*
X182303Y215793D01*
X182392Y215761D01*
X182482Y215732D01*
X182573Y215707D01*
X182665Y215686D01*
X182758Y215668D01*
X182851Y215655D01*
X182945Y215645D01*
X183040Y215639D01*
X183134Y215637D01*
X180848Y217923D02*
X180850Y218029D01*
X180856Y218134D01*
X180865Y218239D01*
X180878Y218344D01*
X180895Y218448D01*
X180916Y218551D01*
X180940Y218654D01*
X180969Y218756D01*
X181000Y218856D01*
X181036Y218956D01*
X181074Y219054D01*
X181117Y219150D01*
X181163Y219246D01*
X181212Y219339D01*
X181264Y219430D01*
X181320Y219520D01*
X181379Y219608D01*
X181441Y219693D01*
X181506Y219776D01*
X181574Y219857D01*
X181645Y219935D01*
X181719Y220010D01*
X181795Y220083D01*
X181874Y220153D01*
X181955Y220220D01*
X182039Y220285D01*
X182125Y220346D01*
X182213Y220404D01*
X182303Y220459D01*
X182395Y220510D01*
X182489Y220559D01*
X182585Y220604D01*
X182682Y220645D01*
X182780Y220683D01*
X182880Y220717D01*
X184912Y216399D02*
X184845Y216332D01*
X184776Y216267D01*
X184704Y216205D01*
X184631Y216146D01*
X184554Y216090D01*
X184476Y216036D01*
X184396Y215986D01*
X184314Y215939D01*
X184230Y215895D01*
X184144Y215855D01*
X184057Y215817D01*
X183969Y215783D01*
X183879Y215753D01*
X183789Y215726D01*
X183697Y215702D01*
X183604Y215682D01*
X183511Y215666D01*
X183417Y215653D01*
X183323Y215644D01*
X183229Y215639D01*
X183134Y215637D01*
X184912Y216399D02*
X189992Y220717D01*
X189992Y215637D01*
X193548Y272542D02*
X202692Y272542D01*
X193548Y272542D02*
X193548Y270002D01*
X193550Y269902D01*
X193556Y269803D01*
X193566Y269703D01*
X193579Y269605D01*
X193597Y269506D01*
X193618Y269409D01*
X193643Y269313D01*
X193672Y269217D01*
X193705Y269123D01*
X193741Y269030D01*
X193781Y268939D01*
X193825Y268849D01*
X193872Y268761D01*
X193922Y268675D01*
X193976Y268591D01*
X194033Y268509D01*
X194093Y268430D01*
X194157Y268352D01*
X194223Y268278D01*
X194292Y268206D01*
X194364Y268137D01*
X194438Y268071D01*
X194516Y268007D01*
X194595Y267947D01*
X194677Y267890D01*
X194761Y267836D01*
X194847Y267786D01*
X194935Y267739D01*
X195025Y267695D01*
X195116Y267655D01*
X195209Y267619D01*
X195303Y267586D01*
X195399Y267557D01*
X195495Y267532D01*
X195592Y267511D01*
X195691Y267493D01*
X195789Y267480D01*
X195889Y267470D01*
X195988Y267464D01*
X196088Y267462D01*
X196188Y267464D01*
X196287Y267470D01*
X196387Y267480D01*
X196485Y267493D01*
X196584Y267511D01*
X196681Y267532D01*
X196777Y267557D01*
X196873Y267586D01*
X196967Y267619D01*
X197060Y267655D01*
X197151Y267695D01*
X197241Y267739D01*
X197329Y267786D01*
X197415Y267836D01*
X197499Y267890D01*
X197581Y267947D01*
X197660Y268007D01*
X197738Y268071D01*
X197812Y268137D01*
X197884Y268206D01*
X197953Y268278D01*
X198019Y268352D01*
X198083Y268430D01*
X198143Y268509D01*
X198200Y268591D01*
X198254Y268675D01*
X198304Y268761D01*
X198351Y268849D01*
X198395Y268939D01*
X198435Y269030D01*
X198471Y269123D01*
X198504Y269217D01*
X198533Y269313D01*
X198558Y269409D01*
X198579Y269506D01*
X198597Y269605D01*
X198610Y269703D01*
X198620Y269803D01*
X198626Y269902D01*
X198628Y270002D01*
X198628Y272542D01*
X198628Y269494D02*
X202692Y267462D01*
X202692Y263972D02*
X193548Y257876D01*
X193548Y263972D02*
X202692Y257876D01*
X202692Y247513D02*
X193548Y247513D01*
X193548Y250053D02*
X193548Y244973D01*
X193548Y235931D02*
X202692Y242027D01*
X202692Y235931D02*
X193548Y242027D01*
X197612Y223637D02*
X197612Y222113D01*
X202692Y222113D01*
X202692Y225161D01*
X202690Y225250D01*
X202684Y225338D01*
X202675Y225426D01*
X202661Y225514D01*
X202644Y225601D01*
X202623Y225687D01*
X202598Y225772D01*
X202569Y225856D01*
X202537Y225939D01*
X202502Y226020D01*
X202462Y226099D01*
X202420Y226177D01*
X202374Y226253D01*
X202325Y226327D01*
X202272Y226398D01*
X202217Y226467D01*
X202158Y226534D01*
X202097Y226598D01*
X202033Y226659D01*
X201966Y226718D01*
X201897Y226773D01*
X201826Y226826D01*
X201752Y226875D01*
X201676Y226921D01*
X201598Y226963D01*
X201519Y227003D01*
X201438Y227038D01*
X201355Y227070D01*
X201271Y227099D01*
X201186Y227124D01*
X201100Y227145D01*
X201013Y227162D01*
X200925Y227176D01*
X200837Y227185D01*
X200749Y227191D01*
X200660Y227193D01*
X195580Y227193D01*
X195491Y227191D01*
X195403Y227185D01*
X195315Y227176D01*
X195227Y227162D01*
X195140Y227145D01*
X195054Y227124D01*
X194969Y227099D01*
X194885Y227070D01*
X194802Y227038D01*
X194721Y227003D01*
X194642Y226963D01*
X194564Y226921D01*
X194488Y226875D01*
X194414Y226826D01*
X194343Y226773D01*
X194274Y226718D01*
X194207Y226659D01*
X194143Y226598D01*
X194082Y226534D01*
X194023Y226467D01*
X193968Y226398D01*
X193915Y226327D01*
X193866Y226253D01*
X193820Y226177D01*
X193778Y226099D01*
X193738Y226020D01*
X193703Y225939D01*
X193671Y225856D01*
X193642Y225772D01*
X193617Y225687D01*
X193596Y225601D01*
X193579Y225514D01*
X193565Y225426D01*
X193556Y225338D01*
X193550Y225250D01*
X193548Y225161D01*
X193548Y222113D01*
X193548Y217440D02*
X202692Y217440D01*
X202692Y212360D02*
X193548Y217440D01*
X193548Y212360D02*
X202692Y212360D01*
X202692Y207686D02*
X193548Y207686D01*
X193548Y205146D01*
X193550Y205046D01*
X193556Y204947D01*
X193566Y204847D01*
X193579Y204749D01*
X193597Y204650D01*
X193618Y204553D01*
X193643Y204457D01*
X193672Y204361D01*
X193705Y204267D01*
X193741Y204174D01*
X193781Y204083D01*
X193825Y203993D01*
X193872Y203905D01*
X193922Y203819D01*
X193976Y203735D01*
X194033Y203653D01*
X194093Y203574D01*
X194157Y203496D01*
X194223Y203422D01*
X194292Y203350D01*
X194364Y203281D01*
X194438Y203215D01*
X194516Y203151D01*
X194595Y203091D01*
X194677Y203034D01*
X194761Y202980D01*
X194847Y202930D01*
X194935Y202883D01*
X195025Y202839D01*
X195116Y202799D01*
X195209Y202763D01*
X195303Y202730D01*
X195399Y202701D01*
X195495Y202676D01*
X195592Y202655D01*
X195691Y202637D01*
X195789Y202624D01*
X195889Y202614D01*
X195988Y202608D01*
X196088Y202606D01*
X200152Y202606D01*
X200252Y202608D01*
X200351Y202614D01*
X200451Y202624D01*
X200549Y202637D01*
X200648Y202655D01*
X200745Y202676D01*
X200841Y202701D01*
X200937Y202730D01*
X201031Y202763D01*
X201124Y202799D01*
X201215Y202839D01*
X201305Y202883D01*
X201393Y202930D01*
X201479Y202980D01*
X201563Y203034D01*
X201645Y203091D01*
X201724Y203151D01*
X201802Y203215D01*
X201876Y203281D01*
X201948Y203350D01*
X202017Y203422D01*
X202083Y203496D01*
X202147Y203574D01*
X202207Y203653D01*
X202264Y203735D01*
X202318Y203819D01*
X202368Y203905D01*
X202415Y203993D01*
X202459Y204083D01*
X202499Y204174D01*
X202535Y204267D01*
X202568Y204361D01*
X202597Y204457D01*
X202622Y204553D01*
X202643Y204650D01*
X202661Y204749D01*
X202674Y204847D01*
X202684Y204947D01*
X202690Y205046D01*
X202692Y205146D01*
X202692Y207686D01*
X202692Y193361D02*
X202692Y190821D01*
X202690Y190721D01*
X202684Y190622D01*
X202674Y190522D01*
X202661Y190424D01*
X202643Y190325D01*
X202622Y190228D01*
X202597Y190132D01*
X202568Y190036D01*
X202535Y189942D01*
X202499Y189849D01*
X202459Y189758D01*
X202415Y189668D01*
X202368Y189580D01*
X202318Y189494D01*
X202264Y189410D01*
X202207Y189328D01*
X202147Y189249D01*
X202083Y189171D01*
X202017Y189097D01*
X201948Y189025D01*
X201876Y188956D01*
X201802Y188890D01*
X201724Y188826D01*
X201645Y188766D01*
X201563Y188709D01*
X201479Y188655D01*
X201393Y188605D01*
X201305Y188558D01*
X201215Y188514D01*
X201124Y188474D01*
X201031Y188438D01*
X200937Y188405D01*
X200841Y188376D01*
X200745Y188351D01*
X200648Y188330D01*
X200549Y188312D01*
X200451Y188299D01*
X200351Y188289D01*
X200252Y188283D01*
X200152Y188281D01*
X200052Y188283D01*
X199953Y188289D01*
X199853Y188299D01*
X199755Y188312D01*
X199656Y188330D01*
X199559Y188351D01*
X199463Y188376D01*
X199367Y188405D01*
X199273Y188438D01*
X199180Y188474D01*
X199089Y188514D01*
X198999Y188558D01*
X198911Y188605D01*
X198825Y188655D01*
X198741Y188709D01*
X198659Y188766D01*
X198580Y188826D01*
X198502Y188890D01*
X198428Y188956D01*
X198356Y189025D01*
X198287Y189097D01*
X198221Y189171D01*
X198157Y189249D01*
X198097Y189328D01*
X198040Y189410D01*
X197986Y189494D01*
X197936Y189580D01*
X197889Y189668D01*
X197845Y189758D01*
X197805Y189849D01*
X197769Y189942D01*
X197736Y190036D01*
X197707Y190132D01*
X197682Y190228D01*
X197661Y190325D01*
X197643Y190424D01*
X197630Y190522D01*
X197620Y190622D01*
X197614Y190721D01*
X197612Y190821D01*
X193548Y190313D02*
X193548Y193361D01*
X193548Y190313D02*
X193550Y190224D01*
X193556Y190136D01*
X193565Y190048D01*
X193579Y189960D01*
X193596Y189873D01*
X193617Y189787D01*
X193642Y189702D01*
X193671Y189618D01*
X193703Y189535D01*
X193738Y189454D01*
X193778Y189375D01*
X193820Y189297D01*
X193866Y189221D01*
X193915Y189147D01*
X193968Y189076D01*
X194023Y189007D01*
X194082Y188940D01*
X194143Y188876D01*
X194207Y188815D01*
X194274Y188756D01*
X194343Y188701D01*
X194414Y188648D01*
X194488Y188599D01*
X194564Y188553D01*
X194642Y188511D01*
X194721Y188471D01*
X194802Y188436D01*
X194885Y188404D01*
X194969Y188375D01*
X195054Y188350D01*
X195140Y188329D01*
X195227Y188312D01*
X195315Y188298D01*
X195403Y188289D01*
X195491Y188283D01*
X195580Y188281D01*
X195669Y188283D01*
X195757Y188289D01*
X195845Y188298D01*
X195933Y188312D01*
X196020Y188329D01*
X196106Y188350D01*
X196191Y188375D01*
X196275Y188404D01*
X196358Y188436D01*
X196439Y188471D01*
X196518Y188511D01*
X196596Y188553D01*
X196672Y188599D01*
X196746Y188648D01*
X196817Y188701D01*
X196886Y188756D01*
X196953Y188815D01*
X197017Y188876D01*
X197078Y188940D01*
X197137Y189007D01*
X197192Y189076D01*
X197245Y189147D01*
X197294Y189221D01*
X197340Y189297D01*
X197382Y189375D01*
X197422Y189454D01*
X197457Y189535D01*
X197489Y189618D01*
X197518Y189702D01*
X197543Y189787D01*
X197564Y189873D01*
X197581Y189960D01*
X197595Y190048D01*
X197604Y190136D01*
X197610Y190224D01*
X197612Y190313D01*
X197612Y192345D01*
X193548Y184725D02*
X202692Y181677D01*
X193548Y178629D01*
X202692Y175073D02*
X202692Y172533D01*
X202690Y172433D01*
X202684Y172334D01*
X202674Y172234D01*
X202661Y172136D01*
X202643Y172037D01*
X202622Y171940D01*
X202597Y171844D01*
X202568Y171748D01*
X202535Y171654D01*
X202499Y171561D01*
X202459Y171470D01*
X202415Y171380D01*
X202368Y171292D01*
X202318Y171206D01*
X202264Y171122D01*
X202207Y171040D01*
X202147Y170961D01*
X202083Y170883D01*
X202017Y170809D01*
X201948Y170737D01*
X201876Y170668D01*
X201802Y170602D01*
X201724Y170538D01*
X201645Y170478D01*
X201563Y170421D01*
X201479Y170367D01*
X201393Y170317D01*
X201305Y170270D01*
X201215Y170226D01*
X201124Y170186D01*
X201031Y170150D01*
X200937Y170117D01*
X200841Y170088D01*
X200745Y170063D01*
X200648Y170042D01*
X200549Y170024D01*
X200451Y170011D01*
X200351Y170001D01*
X200252Y169995D01*
X200152Y169993D01*
X200052Y169995D01*
X199953Y170001D01*
X199853Y170011D01*
X199755Y170024D01*
X199656Y170042D01*
X199559Y170063D01*
X199463Y170088D01*
X199367Y170117D01*
X199273Y170150D01*
X199180Y170186D01*
X199089Y170226D01*
X198999Y170270D01*
X198911Y170317D01*
X198825Y170367D01*
X198741Y170421D01*
X198659Y170478D01*
X198580Y170538D01*
X198502Y170602D01*
X198428Y170668D01*
X198356Y170737D01*
X198287Y170809D01*
X198221Y170883D01*
X198157Y170961D01*
X198097Y171040D01*
X198040Y171122D01*
X197986Y171206D01*
X197936Y171292D01*
X197889Y171380D01*
X197845Y171470D01*
X197805Y171561D01*
X197769Y171654D01*
X197736Y171748D01*
X197707Y171844D01*
X197682Y171940D01*
X197661Y172037D01*
X197643Y172136D01*
X197630Y172234D01*
X197620Y172334D01*
X197614Y172433D01*
X197612Y172533D01*
X193548Y172025D02*
X193548Y175073D01*
X193548Y172025D02*
X193550Y171936D01*
X193556Y171848D01*
X193565Y171760D01*
X193579Y171672D01*
X193596Y171585D01*
X193617Y171499D01*
X193642Y171414D01*
X193671Y171330D01*
X193703Y171247D01*
X193738Y171166D01*
X193778Y171087D01*
X193820Y171009D01*
X193866Y170933D01*
X193915Y170859D01*
X193968Y170788D01*
X194023Y170719D01*
X194082Y170652D01*
X194143Y170588D01*
X194207Y170527D01*
X194274Y170468D01*
X194343Y170413D01*
X194414Y170360D01*
X194488Y170311D01*
X194564Y170265D01*
X194642Y170223D01*
X194721Y170183D01*
X194802Y170148D01*
X194885Y170116D01*
X194969Y170087D01*
X195054Y170062D01*
X195140Y170041D01*
X195227Y170024D01*
X195315Y170010D01*
X195403Y170001D01*
X195491Y169995D01*
X195580Y169993D01*
X195669Y169995D01*
X195757Y170001D01*
X195845Y170010D01*
X195933Y170024D01*
X196020Y170041D01*
X196106Y170062D01*
X196191Y170087D01*
X196275Y170116D01*
X196358Y170148D01*
X196439Y170183D01*
X196518Y170223D01*
X196596Y170265D01*
X196672Y170311D01*
X196746Y170360D01*
X196817Y170413D01*
X196886Y170468D01*
X196953Y170527D01*
X197017Y170588D01*
X197078Y170652D01*
X197137Y170719D01*
X197192Y170788D01*
X197245Y170859D01*
X197294Y170933D01*
X197340Y171009D01*
X197382Y171087D01*
X197422Y171166D01*
X197457Y171247D01*
X197489Y171330D01*
X197518Y171414D01*
X197543Y171499D01*
X197564Y171585D01*
X197581Y171672D01*
X197595Y171760D01*
X197604Y171848D01*
X197610Y171936D01*
X197612Y172025D01*
X197612Y174057D01*
D12*
X174625Y155575D02*
X174625Y288925D01*
X174625Y155575D02*
X212725Y155575D01*
X212725Y180975D01*
X212725Y263525D01*
X212725Y288925D01*
X174625Y288925D01*
X212725Y288925D02*
X228600Y288925D01*
X228600Y263525D01*
X212725Y263525D01*
X212725Y155575D02*
X228600Y155575D01*
X228600Y180975D01*
X212725Y180975D01*
M02*
